# Blender 5.0.1
# www.blender.org
mtllib Alien_Green.mtl
o model
v 0.855225 9.808046 -0.564085
v 0.680420 10.509113 -0.329183
v 0.795410 9.690845 0.210237
v 0.680420 10.509113 -0.329183
v 0.557129 10.418283 0.409975
v 0.795410 9.690845 0.210237
v 0.795410 9.690845 0.210237
v 0.557129 10.418283 0.409975
v 0.603027 9.630779 0.659055
v 0.557129 10.418283 0.409975
v 0.466064 10.087169 0.775284
v 0.603027 9.630779 0.659055
v 0.603027 9.630779 0.659055
v 0.466064 10.087169 0.775284
v -0.014893 9.536282 0.931082
v 0.466064 10.087169 0.775284
v -0.014893 9.895727 0.937915
v -0.014893 9.536282 0.931082
v -0.014893 9.536282 0.931082
v -0.014893 9.895727 0.937915
v -0.633057 9.630779 0.659055
v -0.014893 9.895727 0.937915
v -0.496094 10.087169 0.775284
v -0.633057 9.630779 0.659055
v -0.633057 9.630779 0.659055
v -0.496094 10.087169 0.775284
v -0.825439 9.690845 0.210237
v -0.496094 10.087169 0.775284
v -0.587158 10.418283 0.409975
v -0.825439 9.690845 0.210237
v -0.825439 9.690845 0.210237
v -0.587158 10.418283 0.409975
v -0.885254 9.808046 -0.564085
v -0.587158 10.418283 0.409975
v -0.710449 10.509113 -0.329183
v -0.885254 9.808046 -0.564085
v -0.885254 9.808046 -0.564085
v -0.710449 10.509113 -0.329183
v -0.437012 9.970426 -1.162347
v -0.710449 10.509113 -0.329183
v -0.507324 10.472722 -0.961142
v -0.437012 9.970426 -1.162347
v -0.437012 9.970426 -1.162347
v -0.507324 10.472722 -0.961142
v 0.406250 9.970426 -1.162347
v -0.507324 10.472722 -0.961142
v 0.476807 10.472722 -0.961142
v 0.406250 9.970426 -1.162347
v -0.825439 9.690845 0.210237
v -0.395508 8.691138 0.132108
v -0.455322 9.133615 0.910574
v -0.395508 8.691138 0.132108
v -0.366699 8.601772 0.740625
v -0.455322 9.133615 0.910574
v -0.455322 9.133615 0.910574
v -0.366699 8.601772 0.740625
v -0.014893 9.047907 1.043902
v -0.366699 8.601772 0.740625
v -0.014893 8.508739 0.888360
v -0.014893 9.047907 1.043902
v -0.014893 9.047907 1.043902
v -0.014893 8.508739 0.888360
v 0.425293 9.133615 0.910574
v -0.014893 8.508739 0.888360
v 0.336670 8.601772 0.740625
v 0.425293 9.133615 0.910574
v 0.425293 9.133615 0.910574
v 0.336670 8.601772 0.740625
v 0.795410 9.690845 0.210237
v 0.336670 8.601772 0.740625
v 0.365479 8.691138 0.132108
v 0.795410 9.690845 0.210237
v 0.466064 10.087169 0.775284
v 0.557129 10.418283 0.409975
v -0.014893 9.895727 0.937915
v 0.557129 10.418283 0.409975
v -0.014893 10.425612 0.753303
v -0.014893 9.895727 0.937915
v -0.014893 9.895727 0.937915
v -0.014893 10.425612 0.753303
v -0.496094 10.087169 0.775284
v -0.014893 10.425612 0.753303
v -0.587158 10.418283 0.409975
v -0.496094 10.087169 0.775284
v 0.230957 10.813857 -0.543584
v 0.476807 10.472722 -0.961142
v -0.275146 10.802381 -0.570200
v 0.476807 10.472722 -0.961142
v -0.507324 10.472722 -0.961142
v -0.275146 10.802381 -0.570200
v -0.275146 10.802381 -0.570200
v -0.507324 10.472722 -0.961142
v -0.428955 10.779187 -0.156301
v -0.507324 10.472722 -0.961142
v -0.710449 10.509113 -0.329183
v -0.428955 10.779187 -0.156301
v -5.320522 4.805095 0.172332
v -5.338049 4.792166 0.305201
v -4.956500 5.253540 0.120324
v -5.338049 4.792166 0.305201
v -4.956623 5.253467 0.312783
v -4.956500 5.253540 0.120324
v -4.956500 5.253540 0.120324
v -4.956623 5.253467 0.312783
v -4.431469 5.715286 0.024416
v -4.956623 5.253467 0.312783
v -4.431472 5.715323 0.284947
v -4.431469 5.715286 0.024416
v -5.338049 4.792166 0.305201
v -5.320522 4.805095 0.172332
v -4.830321 5.165822 0.292005
v -5.320522 4.805095 0.172332
v -4.804579 5.183888 0.062883
v -4.830321 5.165822 0.292005
v -4.830321 5.165822 0.292005
v -4.804579 5.183888 0.062883
v -4.264358 5.528061 0.328827
v -4.804579 5.183888 0.062883
v -4.280505 5.553107 0.017388
v -4.264358 5.528061 0.328827
v -4.296998 5.578293 -0.293853
v -4.280505 5.553107 0.017388
v -4.778939 5.201739 -0.352508
v -4.280505 5.553107 0.017388
v -4.804628 5.183858 -0.130053
v -4.778939 5.201739 -0.352508
v -4.778939 5.201739 -0.352508
v -4.804628 5.183858 -0.130053
v -5.302906 4.818028 -0.364420
v -4.804628 5.183858 -0.130053
v -5.320263 4.805130 -0.250251
v -5.302906 4.818028 -0.364420
v -4.431469 5.715286 0.024416
v -4.431246 5.715307 -0.236375
v -4.956509 5.253294 -0.128799
v -4.431246 5.715307 -0.236375
v -4.956479 5.253584 -0.297357
v -4.956509 5.253294 -0.128799
v -4.956509 5.253294 -0.128799
v -4.956479 5.253584 -0.297357
v -5.320263 4.805130 -0.250251
v -4.956479 5.253584 -0.297357
v -5.302906 4.818028 -0.364420
v -5.320263 4.805130 -0.250251
v 5.307992 4.792168 0.305219
v 5.290465 4.805097 0.172350
v 4.926495 5.253384 0.312672
v 5.290465 4.805097 0.172350
v 4.926371 5.253471 0.120457
v 4.926495 5.253384 0.312672
v 4.926495 5.253384 0.312672
v 4.926371 5.253471 0.120457
v 4.401433 5.715344 0.285152
v 4.926371 5.253471 0.120457
v 4.401419 5.715241 0.024385
v 4.401433 5.715344 0.285152
v 5.290465 4.805097 0.172350
v 5.307992 4.792168 0.305219
v 4.774609 5.183991 0.062762
v 5.307992 4.792168 0.305219
v 4.800351 5.165924 0.291884
v 4.774609 5.183991 0.062762
v 4.774609 5.183991 0.062762
v 4.800351 5.165924 0.291884
v 4.250465 5.553128 0.017593
v 4.800351 5.165924 0.291884
v 4.234307 5.528017 0.328797
v 4.250465 5.553128 0.017593
v 4.250465 5.553128 0.017593
v 4.266947 5.578249 -0.293883
v 4.774545 5.183805 -0.130155
v 4.266947 5.578249 -0.293883
v 4.749036 5.201872 -0.352382
v 4.774545 5.183805 -0.130155
v 4.774545 5.183805 -0.130155
v 4.749036 5.201872 -0.352382
v 5.290483 4.805026 -0.250293
v 4.749036 5.201872 -0.352382
v 5.272783 4.817941 -0.364420
v 5.290483 4.805026 -0.250293
v 4.401531 5.715338 -0.236443
v 4.401419 5.715241 0.024385
v 4.926434 5.253519 -0.297218
v 4.401419 5.715241 0.024385
v 4.926606 5.253427 -0.128674
v 4.926434 5.253519 -0.297218
v 4.926434 5.253519 -0.297218
v 4.926606 5.253427 -0.128674
v 5.272783 4.817941 -0.364420
v 4.926606 5.253427 -0.128674
v 5.290483 4.805026 -0.250293
v 5.272783 4.817941 -0.364420
v -0.428955 10.779187 -0.156301
v -0.587158 10.418283 0.409975
v -0.014893 10.873689 -0.025418
v -0.587158 10.418283 0.409975
v -0.014893 10.425612 0.753303
v -0.014893 10.873689 -0.025418
v -0.014893 10.873689 -0.025418
v -0.014893 10.425612 0.753303
v 0.404785 10.801164 -0.163627
v -0.014893 10.425612 0.753303
v 0.557129 10.418283 0.409975
v 0.404785 10.801164 -0.163627
v -0.633057 9.630779 0.659055
v -0.455322 9.133615 0.910574
v -0.014893 9.536282 0.931082
v -0.455322 9.133615 0.910574
v -0.014893 9.047907 1.043902
v -0.014893 9.536282 0.931082
v -0.014893 9.536282 0.931082
v -0.014893 9.047907 1.043902
v 0.603027 9.630779 0.659055
v -0.014893 9.047907 1.043902
v 0.425293 9.133615 0.910574
v 0.603027 9.630779 0.659055
v 0.230957 10.813857 -0.543584
v 0.404785 10.801164 -0.163627
v 0.476807 10.472722 -0.961142
v 0.404785 10.801164 -0.163627
v 0.680420 10.509113 -0.329183
v 0.476807 10.472722 -0.961142
v 0.476807 10.472722 -0.961142
v 0.680420 10.509113 -0.329183
v 0.406250 9.970426 -1.162347
v 0.680420 10.509113 -0.329183
v 0.855225 9.808046 -0.564085
v 0.406250 9.970426 -1.162347
v -0.366699 8.601772 0.740625
v -0.240479 8.400558 0.478614
v -0.014893 8.508739 0.888360
v -0.240479 8.400558 0.478614
v -0.014893 8.376628 0.483009
v -0.014893 8.508739 0.888360
v -0.014893 8.508739 0.888360
v -0.014893 8.376628 0.483009
v 0.336670 8.601772 0.740625
v -0.014893 8.376628 0.483009
v 0.210449 8.400558 0.478614
v 0.336670 8.601772 0.740625
v 0.756758 0.564949 -0.433450
v 0.904950 0.535666 -0.110298
v 0.385859 2.845944 -0.036139
v 0.904950 0.535666 -0.110298
v 0.688095 2.662279 0.187308
v 0.385859 2.845944 -0.036139
v 0.385859 2.845944 -0.036139
v 0.688095 2.662279 0.187308
v 0.666125 2.944642 0.271881
v 0.688095 2.662279 0.187308
v 0.945494 2.918274 -0.034255
v 0.666125 2.944642 0.271881
v 0.666125 2.944642 0.271881
v 0.945494 2.918274 -0.034255
v 0.869385 5.341930 0.038643
v 0.945494 2.918274 -0.034255
v 0.665488 3.027153 -0.231453
v 0.869385 5.341930 0.038643
v 0.869385 5.341930 0.038643
v 0.665488 3.027153 -0.231453
v 0.508237 5.004320 -0.504812
v 0.665488 3.027153 -0.231453
v -0.014893 4.708176 0.338054
v 0.508237 5.004320 -0.504812
v 0.508237 5.004320 -0.504812
v -0.014893 4.708176 0.338054
v 0.484619 5.206409 -0.614085
v -0.014893 4.708176 0.338054
v -0.014893 5.245358 -0.568560
v 0.484619 5.206409 -0.614085
v 0.484619 5.206409 -0.614085
v -0.014893 5.245358 -0.568560
v -0.014893 6.060590 -0.495958
v -0.014893 5.245358 -0.568560
v -0.514648 5.206409 -0.614085
v -0.014893 6.060590 -0.495958
v -0.014893 6.060590 -0.495958
v -0.514648 5.206409 -0.614085
v -0.753418 6.057058 -0.311806
v -0.514648 5.206409 -0.614085
v -0.899414 5.341930 0.038643
v -0.753418 6.057058 -0.311806
v -0.753418 6.057058 -0.311806
v -0.899414 5.341930 0.038643
v -0.696777 6.054585 0.479982
v -0.899414 5.341930 0.038643
v -0.528320 5.242023 0.592299
v -0.696777 6.054585 0.479982
v -0.696777 6.054585 0.479982
v -0.528320 5.242023 0.592299
v -0.014893 6.058002 0.798661
v -0.528320 5.242023 0.592299
v -0.014893 5.146748 0.713721
v -0.014893 6.058002 0.798661
v -0.014893 6.058002 0.798661
v -0.014893 5.146748 0.713721
v 0.498291 5.242023 0.592299
v -0.014893 5.146748 0.713721
v -0.014893 4.708176 0.338054
v 0.498291 5.242023 0.592299
v 0.498291 5.242023 0.592299
v -0.014893 4.708176 0.338054
v 0.521645 5.054859 0.591642
v -0.014893 4.708176 0.338054
v 0.666125 2.944642 0.271881
v 0.521645 5.054859 0.591642
v 0.521645 5.054859 0.591642
v 0.666125 2.944642 0.271881
v 0.869385 5.341930 0.038643
v 0.521645 5.054859 0.591642
v 0.869385 5.341930 0.038643
v 0.498291 5.242023 0.592299
v 0.869385 5.341930 0.038643
v 0.666748 6.054585 0.479982
v 0.498291 5.242023 0.592299
v 0.498291 5.242023 0.592299
v 0.666748 6.054585 0.479982
v -0.014893 6.058002 0.798661
v 0.666748 6.054585 0.479982
v 0.591309 6.652913 0.514960
v -0.014893 6.058002 0.798661
v -0.014893 6.058002 0.798661
v 0.591309 6.652913 0.514960
v -0.014893 6.698434 0.739915
v 0.591309 6.652913 0.514960
v -0.014893 7.467372 0.562644
v -0.014893 6.698434 0.739915
v -0.014893 6.698434 0.739915
v -0.014893 7.467372 0.562644
v -0.621338 6.652913 0.514960
v -0.014893 7.467372 0.562644
v -0.922314 7.514038 0.174001
v -0.621338 6.652913 0.514960
v -0.621338 6.652913 0.514960
v -0.922314 7.514038 0.174001
v -0.976627 7.463580 -0.521478
v 1.377544 0.018197 0.458158
v 1.112376 0.018317 -0.583213
v 1.098479 0.273290 -0.580974
v 1.112376 0.018317 -0.583213
v 0.690830 0.288863 -0.463381
v 1.098479 0.273290 -0.580974
v 1.098479 0.273290 -0.580974
v 0.690830 0.288863 -0.463381
v 0.756758 0.564949 -0.433450
v 0.690830 0.288863 -0.463381
v 0.788055 0.249913 0.644288
v 0.756758 0.564949 -0.433450
v 0.756758 0.564949 -0.433450
v 0.788055 0.249913 0.644288
v 0.904950 0.535666 -0.110298
v 0.788055 0.249913 0.644288
v 1.211573 0.251161 0.544443
v 0.904950 0.535666 -0.110298
v 0.904950 0.535666 -0.110298
v 1.211573 0.251161 0.544443
v 1.089229 0.498727 -0.404104
v 1.211573 0.251161 0.544443
v 1.098479 0.273290 -0.580974
v 1.089229 0.498727 -0.404104
v 1.089229 0.498727 -0.404104
v 1.098479 0.273290 -0.580974
v 0.756758 0.564949 -0.433450
v -0.786783 0.564950 -0.433449
v -0.415876 2.845862 -0.036113
v -0.934975 0.535667 -0.110297
v -0.415876 2.845862 -0.036113
v -0.718112 2.662197 0.187333
v -0.934975 0.535667 -0.110297
v -0.934975 0.535667 -0.110297
v -0.718112 2.662197 0.187333
v -0.975512 2.918192 -0.034230
v -0.718112 2.662197 0.187333
v -0.696132 2.944634 0.271896
v -0.975512 2.918192 -0.034230
v -0.975512 2.918192 -0.034230
v -0.696132 2.944634 0.271896
v -0.899414 5.341930 0.038643
v -0.696132 2.944634 0.271896
v -0.551652 5.054850 0.591656
v -0.899414 5.341930 0.038643
v -0.899414 5.341930 0.038643
v -0.551652 5.054850 0.591656
v -0.528320 5.242023 0.592299
v -0.551652 5.054850 0.591656
v -0.014893 4.708176 0.338054
v -0.528320 5.242023 0.592299
v -0.528320 5.242023 0.592299
v -0.014893 4.708176 0.338054
v -0.014893 5.146748 0.713721
v -1.285059 0.017912 0.926970
v -1.241598 0.251162 0.544444
v -1.407570 0.018198 0.458159
v -1.241598 0.251162 0.544444
v -1.128260 0.273290 -0.580973
v -1.407570 0.018198 0.458159
v -1.407570 0.018198 0.458159
v -1.128260 0.273290 -0.580973
v -1.142401 0.018318 -0.583212
v -1.128260 0.273290 -0.580973
v -0.720855 0.288863 -0.463381
v -1.142401 0.018318 -0.583212
v -1.142401 0.018318 -0.583212
v -0.720855 0.288863 -0.463381
v -0.691787 0.018249 -0.494912
v -0.720855 0.288863 -0.463381
v -0.818080 0.249914 0.644288
v -0.691787 0.018249 -0.494912
v -0.691787 0.018249 -0.494912
v -0.818080 0.249914 0.644288
v -0.710411 0.018055 0.597665
v -0.818080 0.249914 0.644288
v -0.937460 0.017881 1.057577
v -0.710411 0.018055 0.597665
v 3.560755 5.933689 0.112512
v 2.284596 6.578271 -0.108703
v 3.560384 5.932746 -0.178699
v 2.284596 6.578271 -0.108703
v 2.431030 6.706733 -0.381741
v 3.560384 5.932746 -0.178699
v 3.560384 5.932746 -0.178699
v 2.431030 6.706733 -0.381741
v 3.645630 6.066473 -0.154172
v 2.431030 6.706733 -0.381741
v 2.475325 6.903977 -0.112867
v 3.645630 6.066473 -0.154172
v 3.645630 6.066473 -0.154172
v 2.475325 6.903977 -0.112867
v 3.644718 6.064393 0.113083
v 2.475325 6.903977 -0.112867
v 2.424526 6.692471 0.128920
v 3.644718 6.064393 0.113083
v 3.644718 6.064393 0.113083
v 2.424526 6.692471 0.128920
v 3.560755 5.933689 0.112512
v 2.424526 6.692471 0.128920
v 2.284596 6.578271 -0.108703
v 3.560755 5.933689 0.112512
v -0.973840 7.890729 0.111215
v -0.269287 8.212035 -0.285532
v -0.959286 7.959959 -0.403007
v -0.269287 8.212035 -0.285532
v -0.014893 8.213531 -0.500931
v -0.959286 7.959959 -0.403007
v -0.959286 7.959959 -0.403007
v -0.014893 8.213531 -0.500931
v -0.976627 7.463580 -0.521478
v -0.014893 8.213531 -0.500931
v -0.014893 7.278790 -0.710046
v -0.976627 7.463580 -0.521478
v -0.976627 7.463580 -0.521478
v -0.014893 7.278790 -0.710046
v -0.716064 6.624032 -0.203669
v -0.014893 7.278790 -0.710046
v -0.014893 6.509883 -0.309800
v -0.716064 6.624032 -0.203669
v -0.716064 6.624032 -0.203669
v -0.014893 6.509883 -0.309800
v -0.753418 6.057058 -0.311806
v -0.014893 6.509883 -0.309800
v -0.014893 6.060590 -0.495958
v -0.753418 6.057058 -0.311806
v -3.590586 5.933792 0.112283
v -3.590434 5.932790 -0.178669
v -2.314558 6.578372 -0.108671
v -3.590434 5.932790 -0.178669
v -2.461081 6.706777 -0.381711
v -2.314558 6.578372 -0.108671
v -2.314558 6.578372 -0.108671
v -2.461081 6.706777 -0.381711
v -2.351284 6.795743 -0.388363
v -2.461081 6.706777 -0.381711
v -2.505286 6.904078 -0.112835
v -2.351284 6.795743 -0.388363
v -2.351284 6.795743 -0.388363
v -2.505286 6.904078 -0.112835
v -1.184323 7.861220 -0.359121
v -2.505286 6.904078 -0.112835
v -1.211938 7.816714 0.088263
v -1.184323 7.861220 -0.359121
v -1.184323 7.861220 -0.359121
v -1.211938 7.816714 0.088263
v -0.973840 7.890729 0.111215
v -1.211938 7.816714 0.088263
v -0.922314 7.514038 0.174001
v -0.973840 7.890729 0.111215
v 0.946537 7.463464 -0.521452
v 2.284596 6.578271 -0.108703
v 0.892444 7.513825 0.174070
v 2.284596 6.578271 -0.108703
v 2.326317 6.765948 0.123075
v 0.892444 7.513825 0.174070
v 0.892444 7.513825 0.174070
v 2.326317 6.765948 0.123075
v 1.181808 7.816794 0.088472
v 2.326317 6.765948 0.123075
v 2.475325 6.903977 -0.112867
v 1.181808 7.816794 0.088472
v 1.181808 7.816794 0.088472
v 2.475325 6.903977 -0.112867
v 1.154156 7.861251 -0.359149
v 2.475325 6.903977 -0.112867
v 2.321116 6.795774 -0.388390
v 1.154156 7.861251 -0.359149
v 1.154156 7.861251 -0.359149
v 2.321116 6.795774 -0.388390
v 0.946537 7.463464 -0.521452
v 2.321116 6.795774 -0.388390
v 2.284596 6.578271 -0.108703
v 0.946537 7.463464 -0.521452
v 0.661762 0.018248 -0.494913
v 0.680386 0.018054 0.597664
v 0.788055 0.249913 0.644288
v 0.680386 0.018054 0.597664
v 0.907435 0.017881 1.057577
v 0.788055 0.249913 0.644288
v 0.788055 0.249913 0.644288
v 0.907435 0.017881 1.057577
v 1.069283 0.181737 0.976799
v 0.907435 0.017881 1.057577
v 1.255034 0.017911 0.926969
v 1.069283 0.181737 0.976799
v 1.069283 0.181737 0.976799
v 1.255034 0.017911 0.926969
v 1.211573 0.251161 0.544443
v 1.255034 0.017911 0.926969
v 1.377544 0.018197 0.458158
v 1.211573 0.251161 0.544443
v 1.211573 0.251161 0.544443
v 1.377544 0.018197 0.458158
v 1.098479 0.273290 -0.580974
v -0.296875 8.885996 -0.267386
v -0.014893 8.849122 -0.423422
v -0.014893 8.213531 -0.500931
v -0.014893 8.849122 -0.423422
v 0.266846 8.885996 -0.267386
v -0.014893 8.213531 -0.500931
v -0.014893 8.213531 -0.500931
v 0.266846 8.885996 -0.267386
v 0.239258 8.212035 -0.285532
v 0.266846 8.885996 -0.267386
v 0.365479 8.691138 0.132108
v 0.239258 8.212035 -0.285532
v 0.239258 8.212035 -0.285532
v 0.365479 8.691138 0.132108
v -0.014893 8.158601 0.044274
v 0.365479 8.691138 0.132108
v -0.014893 8.691138 0.132108
v -0.014893 8.158601 0.044274
v -0.014893 8.158601 0.044274
v -0.014893 8.691138 0.132108
v -0.395508 8.691138 0.132108
v 0.508237 5.004320 -0.504812
v 0.484619 5.206409 -0.614085
v 0.869385 5.341930 0.038643
v 0.484619 5.206409 -0.614085
v 0.723389 6.057058 -0.311806
v 0.869385 5.341930 0.038643
v 0.869385 5.341930 0.038643
v 0.723389 6.057058 -0.311806
v 0.666748 6.054585 0.479982
v 0.723389 6.057058 -0.311806
v 0.686035 6.624032 -0.203669
v 0.666748 6.054585 0.479982
v 0.666748 6.054585 0.479982
v 0.686035 6.624032 -0.203669
v 0.591309 6.652913 0.514960
v 0.686035 6.624032 -0.203669
v 0.946537 7.463464 -0.521452
v 0.591309 6.652913 0.514960
v 0.591309 6.652913 0.514960
v 0.946537 7.463464 -0.521452
v 0.892444 7.513825 0.174070
v -4.431472 5.715323 0.284947
v -3.674642 6.064237 0.113175
v -4.431469 5.715286 0.024416
v -3.674642 6.064237 0.113175
v -3.675681 6.066517 -0.154142
v -4.431469 5.715286 0.024416
v -4.431469 5.715286 0.024416
v -3.675681 6.066517 -0.154142
v -4.431246 5.715307 -0.236375
v -3.675681 6.066517 -0.154142
v -4.296998 5.578293 -0.293853
v -4.431246 5.715307 -0.236375
v -4.431246 5.715307 -0.236375
v -4.296998 5.578293 -0.293853
v -4.956479 5.253584 -0.297357
v -4.296998 5.578293 -0.293853
v -4.778939 5.201739 -0.352508
v -4.956479 5.253584 -0.297357
v -4.956479 5.253584 -0.297357
v -4.778939 5.201739 -0.352508
v -5.302906 4.818028 -0.364420
v -0.818080 0.249914 0.644288
v -0.720855 0.288863 -0.463381
v -0.786783 0.564950 -0.433449
v -0.720855 0.288863 -0.463381
v -1.128260 0.273290 -0.580973
v -0.786783 0.564950 -0.433449
v -0.786783 0.564950 -0.433449
v -1.128260 0.273290 -0.580973
v -1.119254 0.498728 -0.404103
v -1.128260 0.273290 -0.580973
v -1.241598 0.251162 0.544444
v -1.119254 0.498728 -0.404103
v -1.119254 0.498728 -0.404103
v -1.241598 0.251162 0.544444
v -0.934975 0.535667 -0.110297
v -1.241598 0.251162 0.544444
v -0.818080 0.249914 0.644288
v -0.934975 0.535667 -0.110297
v -0.934975 0.535667 -0.110297
v -0.818080 0.249914 0.644288
v -0.786783 0.564950 -0.433449
v -0.014893 5.245358 -0.568560
v -0.014893 4.708176 0.338054
v -0.514648 5.206409 -0.614085
v -0.014893 4.708176 0.338054
v -0.538244 5.004312 -0.504797
v -0.514648 5.206409 -0.614085
v -0.514648 5.206409 -0.614085
v -0.538244 5.004312 -0.504797
v -0.899414 5.341930 0.038643
v -0.538244 5.004312 -0.504797
v -0.695495 3.027144 -0.231439
v -0.899414 5.341930 0.038643
v -0.899414 5.341930 0.038643
v -0.695495 3.027144 -0.231439
v -0.975512 2.918192 -0.034230
v -0.695495 3.027144 -0.231439
v -0.705024 2.820543 -0.298679
v -0.975512 2.918192 -0.034230
v -3.675681 6.066517 -0.154142
v -3.674642 6.064237 0.113175
v -2.505286 6.904078 -0.112835
v -3.674642 6.064237 0.113175
v -2.454577 6.692515 0.128951
v -2.505286 6.904078 -0.112835
v -2.505286 6.904078 -0.112835
v -2.454577 6.692515 0.128951
v -2.356484 6.765917 0.123102
v -2.454577 6.692515 0.128951
v -2.314558 6.578372 -0.108671
v -2.356484 6.765917 0.123102
v -2.356484 6.765917 0.123102
v -2.314558 6.578372 -0.108671
v -0.922314 7.514038 0.174001
v -2.314558 6.578372 -0.108671
v -0.976627 7.463580 -0.521478
v -0.922314 7.514038 0.174001
v -5.338049 4.792166 0.305201
v -4.830321 5.165822 0.292005
v -4.956623 5.253467 0.312783
v -4.830321 5.165822 0.292005
v -4.264358 5.528061 0.328827
v -4.956623 5.253467 0.312783
v -4.956623 5.253467 0.312783
v -4.264358 5.528061 0.328827
v -4.431472 5.715323 0.284947
v -4.264358 5.528061 0.328827
v -3.795695 5.609550 0.427389
v -4.431472 5.715323 0.284947
v -4.431472 5.715323 0.284947
v -3.795695 5.609550 0.427389
v -3.674642 6.064237 0.113175
v -3.795695 5.609550 0.427389
v -3.590586 5.933792 0.112283
v -3.674642 6.064237 0.113175
v 3.644718 6.064393 0.113083
v 4.401419 5.715241 0.024385
v 3.645630 6.066473 -0.154172
v 4.401419 5.715241 0.024385
v 4.401531 5.715338 -0.236443
v 3.645630 6.066473 -0.154172
v 3.645630 6.066473 -0.154172
v 4.401531 5.715338 -0.236443
v 4.266947 5.578249 -0.293883
v 4.401531 5.715338 -0.236443
v 4.926434 5.253519 -0.297218
v 4.266947 5.578249 -0.293883
v 4.266947 5.578249 -0.293883
v 4.926434 5.253519 -0.297218
v 4.749036 5.201872 -0.352382
v 4.926434 5.253519 -0.297218
v 5.272783 4.817941 -0.364420
v 4.749036 5.201872 -0.352382
v -2.314558 6.578372 -0.108671
v -2.351284 6.795743 -0.388363
v -0.976627 7.463580 -0.521478
v -2.351284 6.795743 -0.388363
v -1.184323 7.861220 -0.359121
v -0.976627 7.463580 -0.521478
v -0.976627 7.463580 -0.521478
v -1.184323 7.861220 -0.359121
v -0.959286 7.959959 -0.403007
v -1.184323 7.861220 -0.359121
v -0.973840 7.890729 0.111215
v -0.959286 7.959959 -0.403007
v -0.825439 9.690845 0.210237
v -0.885254 9.808046 -0.564085
v -0.395508 8.691138 0.132108
v -0.885254 9.808046 -0.564085
v -0.296875 8.885996 -0.267386
v -0.395508 8.691138 0.132108
v -0.395508 8.691138 0.132108
v -0.296875 8.885996 -0.267386
v -0.269287 8.212035 -0.285532
v -0.296875 8.885996 -0.267386
v -0.014893 8.213531 -0.500931
v -0.269287 8.212035 -0.285532
v -0.934975 0.535667 -0.110297
v -0.975512 2.918192 -0.034230
v -1.119254 0.498728 -0.404103
v -0.975512 2.918192 -0.034230
v -0.705024 2.820543 -0.298679
v -1.119254 0.498728 -0.404103
v -1.119254 0.498728 -0.404103
v -0.705024 2.820543 -0.298679
v -0.786783 0.564950 -0.433449
v -0.705024 2.820543 -0.298679
v -0.415876 2.845862 -0.036113
v -0.786783 0.564950 -0.433449
v 0.946537 7.463464 -0.521452
v 0.929196 7.959843 -0.402981
v 1.154156 7.861251 -0.359149
v 0.929196 7.959843 -0.402981
v 0.943750 7.890613 0.111241
v 1.154156 7.861251 -0.359149
v 1.154156 7.861251 -0.359149
v 0.943750 7.890613 0.111241
v 1.181808 7.816794 0.088472
v 0.943750 7.890613 0.111241
v 0.892444 7.513825 0.174070
v 1.181808 7.816794 0.088472
v 0.591309 6.652913 0.514960
v 0.892444 7.513825 0.174070
v -0.014893 7.467372 0.562644
v 0.892444 7.513825 0.174070
v 0.943750 7.890613 0.111241
v -0.014893 7.467372 0.562644
v -0.014893 7.467372 0.562644
v 0.943750 7.890613 0.111241
v -0.014893 8.158601 0.044274
v 0.943750 7.890613 0.111241
v 0.239258 8.212035 -0.285532
v -0.014893 8.158601 0.044274
v 0.795410 9.690845 0.210237
v 0.365479 8.691138 0.132108
v 0.855225 9.808046 -0.564085
v 0.365479 8.691138 0.132108
v 0.266846 8.885996 -0.267386
v 0.855225 9.808046 -0.564085
v 0.855225 9.808046 -0.564085
v 0.266846 8.885996 -0.267386
v 0.335938 9.468132 -1.065643
v 0.266846 8.885996 -0.267386
v -0.014893 8.849122 -0.423422
v 0.335938 9.468132 -1.065643
v -0.014893 4.708176 0.338054
v 0.665488 3.027153 -0.231453
v 0.385859 2.845944 -0.036139
v 0.665488 3.027153 -0.231453
v 0.675030 2.820384 -0.298733
v 0.385859 2.845944 -0.036139
v 0.385859 2.845944 -0.036139
v 0.675030 2.820384 -0.298733
v 0.756758 0.564949 -0.433450
v 0.675030 2.820384 -0.298733
v 1.089229 0.498727 -0.404104
v 0.756758 0.564949 -0.433450
v -3.590586 5.933792 0.112283
v -3.795695 5.609550 0.427389
v -3.590434 5.932790 -0.178669
v -3.795695 5.609550 0.427389
v -4.264358 5.528061 0.328827
v -3.590434 5.932790 -0.178669
v -3.590434 5.932790 -0.178669
v -4.264358 5.528061 0.328827
v -4.280505 5.553107 0.017388
v 3.560755 5.933689 0.112512
v 3.765644 5.609506 0.427358
v 3.644718 6.064393 0.113083
v 3.765644 5.609506 0.427358
v 4.401433 5.715344 0.285152
v 3.644718 6.064393 0.113083
v 3.644718 6.064393 0.113083
v 4.401433 5.715344 0.285152
v 4.401419 5.715241 0.024385
v -0.922314 7.514038 0.174001
v -0.014893 7.467372 0.562644
v -0.973840 7.890729 0.111215
v -0.014893 7.467372 0.562644
v -0.014893 8.158601 0.044274
v -0.973840 7.890729 0.111215
v -0.973840 7.890729 0.111215
v -0.014893 8.158601 0.044274
v -0.269287 8.212035 -0.285532
v -0.976627 7.463580 -0.521478
v -0.716064 6.624032 -0.203669
v -0.621338 6.652913 0.514960
v -0.716064 6.624032 -0.203669
v -0.696777 6.054585 0.479982
v -0.621338 6.652913 0.514960
v -0.621338 6.652913 0.514960
v -0.696777 6.054585 0.479982
v -0.014893 6.058002 0.798661
v -0.538244 5.004312 -0.504797
v -0.014893 4.708176 0.338054
v -0.695495 3.027144 -0.231439
v -0.014893 4.708176 0.338054
v -0.415876 2.845862 -0.036113
v -0.695495 3.027144 -0.231439
v -0.695495 3.027144 -0.231439
v -0.415876 2.845862 -0.036113
v -0.705024 2.820543 -0.298679
v -1.241598 0.251162 0.544444
v -1.285059 0.017912 0.926970
v -1.099308 0.181738 0.976800
v -1.285059 0.017912 0.926970
v -0.937460 0.017881 1.057577
v -1.099308 0.181738 0.976800
v -1.099308 0.181738 0.976800
v -0.937460 0.017881 1.057577
v -0.818080 0.249914 0.644288
v -0.240479 8.400558 0.478614
v -0.395508 8.691138 0.132108
v -0.014893 8.376628 0.483009
v -0.395508 8.691138 0.132108
v -0.014893 8.691138 0.132108
v -0.014893 8.376628 0.483009
v -0.014893 8.376628 0.483009
v -0.014893 8.691138 0.132108
v 0.365479 8.691138 0.132108
v 0.335938 9.468132 -1.065643
v -0.014893 8.849122 -0.423422
v -0.366943 9.468132 -1.065643
v -0.014893 8.849122 -0.423422
v -0.296875 8.885996 -0.267386
v -0.366943 9.468132 -1.065643
v -0.366943 9.468132 -1.065643
v -0.296875 8.885996 -0.267386
v -0.885254 9.808046 -0.564085
v -4.280505 5.553107 0.017388
v -4.296998 5.578293 -0.293853
v -3.590434 5.932790 -0.178669
v -4.296998 5.578293 -0.293853
v -3.675681 6.066517 -0.154142
v -3.590434 5.932790 -0.178669
v 3.560755 5.933689 0.112512
v 3.560384 5.932746 -0.178699
v 3.765644 5.609506 0.427358
v 3.560384 5.932746 -0.178699
v 4.234307 5.528017 0.328797
v 3.765644 5.609506 0.427358
v -0.428955 10.779187 -0.156301
v -0.014893 10.873689 -0.025418
v -0.275146 10.802381 -0.570200
v -0.014893 10.873689 -0.025418
v 0.230957 10.813857 -0.543584
v -0.275146 10.802381 -0.570200
v 1.112376 0.018317 -0.583213
v 0.661762 0.018248 -0.494913
v 0.690830 0.288863 -0.463381
v 0.661762 0.018248 -0.494913
v 0.788055 0.249913 0.644288
v 0.690830 0.288863 -0.463381
v 0.946537 7.463464 -0.521452
v 0.686035 6.624032 -0.203669
v -0.014893 7.278790 -0.710046
v 0.686035 6.624032 -0.203669
v -0.014893 6.509883 -0.309800
v -0.014893 7.278790 -0.710046
v 0.686035 6.624032 -0.203669
v 0.723389 6.057058 -0.311806
v -0.014893 6.509883 -0.309800
v 0.723389 6.057058 -0.311806
v -0.014893 6.060590 -0.495958
v -0.014893 6.509883 -0.309800
v 1.255034 0.017911 0.926969
v 0.907435 0.017881 1.057577
v 1.377544 0.018197 0.458158
v 0.907435 0.017881 1.057577
v 0.680386 0.018054 0.597664
v 1.377544 0.018197 0.458158
v 0.688095 2.662279 0.187308
v 0.904950 0.535666 -0.110298
v 0.945494 2.918274 -0.034255
v 0.904950 0.535666 -0.110298
v 1.089229 0.498727 -0.404104
v 0.945494 2.918274 -0.034255
v 2.284596 6.578271 -0.108703
v 2.424526 6.692471 0.128920
v 2.326317 6.765948 0.123075
v 2.424526 6.692471 0.128920
v 2.475325 6.903977 -0.112867
v 2.326317 6.765948 0.123075
v 2.475325 6.903977 -0.112867
v 2.431030 6.706733 -0.381741
v 2.321116 6.795774 -0.388390
v 2.431030 6.706733 -0.381741
v 2.284596 6.578271 -0.108703
v 2.321116 6.795774 -0.388390
v -2.505286 6.904078 -0.112835
v -2.356484 6.765917 0.123102
v -1.211938 7.816714 0.088263
v -2.356484 6.765917 0.123102
v -0.922314 7.514038 0.174001
v -1.211938 7.816714 0.088263
v 1.112376 0.018317 -0.583213
v 1.377544 0.018197 0.458158
v 0.661762 0.018248 -0.494913
v 1.377544 0.018197 0.458158
v 0.680386 0.018054 0.597664
v 0.661762 0.018248 -0.494913
v -1.285059 0.017912 0.926970
v -1.407570 0.018198 0.458159
v -0.937460 0.017881 1.057577
v -1.407570 0.018198 0.458159
v -0.710411 0.018055 0.597665
v -0.937460 0.017881 1.057577
v 5.307992 4.792168 0.305219
v 4.926495 5.253384 0.312672
v 4.800351 5.165924 0.291884
v 4.926495 5.253384 0.312672
v 4.234307 5.528017 0.328797
v 4.800351 5.165924 0.291884
v 4.926495 5.253384 0.312672
v 4.401433 5.715344 0.285152
v 4.234307 5.528017 0.328797
v 4.401433 5.715344 0.285152
v 3.765644 5.609506 0.427358
v 4.234307 5.528017 0.328797
v -3.674642 6.064237 0.113175
v -3.590586 5.933792 0.112283
v -2.454577 6.692515 0.128951
v -3.590586 5.933792 0.112283
v -2.314558 6.578372 -0.108671
v -2.454577 6.692515 0.128951
v -3.590434 5.932790 -0.178669
v -3.675681 6.066517 -0.154142
v -2.461081 6.706777 -0.381711
v -3.675681 6.066517 -0.154142
v -2.505286 6.904078 -0.112835
v -2.461081 6.706777 -0.381711
v -1.142401 0.018318 -0.583212
v -0.691787 0.018249 -0.494912
v -1.407570 0.018198 0.458159
v -0.691787 0.018249 -0.494912
v -0.710411 0.018055 0.597665
v -1.407570 0.018198 0.458159
v -0.551652 5.054850 0.591656
v -0.696132 2.944634 0.271896
v -0.014893 4.708176 0.338054
v -0.696132 2.944634 0.271896
v -0.415876 2.845862 -0.036113
v -0.014893 4.708176 0.338054
v 0.943750 7.890613 0.111241
v 0.929196 7.959843 -0.402981
v 0.239258 8.212035 -0.285532
v 0.929196 7.959843 -0.402981
v -0.014893 8.213531 -0.500931
v 0.239258 8.212035 -0.285532
v 0.665488 3.027153 -0.231453
v 0.945494 2.918274 -0.034255
v 0.675030 2.820384 -0.298733
v 0.945494 2.918274 -0.034255
v 1.089229 0.498727 -0.404104
v 0.675030 2.820384 -0.298733
v 0.929196 7.959843 -0.402981
v 0.946537 7.463464 -0.521452
v -0.014893 8.213531 -0.500931
v 0.946537 7.463464 -0.521452
v -0.014893 7.278790 -0.710046
v -0.014893 8.213531 -0.500931
v 4.234307 5.528017 0.328797
v 3.560384 5.932746 -0.178699
v 4.250465 5.553128 0.017593
v 3.560384 5.932746 -0.178699
v 4.266947 5.578249 -0.293883
v 4.250465 5.553128 0.017593
v -4.956500 5.253540 0.120324
v -4.431469 5.715286 0.024416
v -4.804579 5.183888 0.062883
v -4.431469 5.715286 0.024416
v -4.280505 5.553107 0.017388
v -4.804579 5.183888 0.062883
v -4.431469 5.715286 0.024416
v -4.956509 5.253294 -0.128799
v -4.280505 5.553107 0.017388
v -4.956509 5.253294 -0.128799
v -4.804628 5.183858 -0.130053
v -4.280505 5.553107 0.017388
v 4.401419 5.715241 0.024385
v 4.250465 5.553128 0.017593
v 4.926606 5.253427 -0.128674
v 4.250465 5.553128 0.017593
v 4.774545 5.183805 -0.130155
v 4.926606 5.253427 -0.128674
v 4.926371 5.253471 0.120457
v 4.774609 5.183991 0.062762
v 4.401419 5.715241 0.024385
v 4.774609 5.183991 0.062762
v 4.250465 5.553128 0.017593
v 4.401419 5.715241 0.024385
v -0.366943 9.468132 -1.065643
v -0.437012 9.970426 -1.162347
v 0.335938 9.468132 -1.065643
v -0.437012 9.970426 -1.162347
v 0.406250 9.970426 -1.162347
v 0.335938 9.468132 -1.065643
v -0.587158 10.418283 0.409975
v -0.428955 10.779187 -0.156301
v -0.710449 10.509113 -0.329183
v -4.956500 5.253540 0.120324
v -4.804579 5.183888 0.062883
v -5.320522 4.805095 0.172332
v 4.926606 5.253427 -0.128674
v 4.774545 5.183805 -0.130155
v 5.290483 4.805026 -0.250293
v 4.926371 5.253471 0.120457
v 5.290465 4.805097 0.172350
v 4.774609 5.183991 0.062762
v -0.395508 8.691138 0.132108
v -0.269287 8.212035 -0.285532
v -0.014893 8.158601 0.044274
v 0.385859 2.845944 -0.036139
v 0.666125 2.944642 0.271881
v -0.014893 4.708176 0.338054
v -4.956509 5.253294 -0.128799
v -5.320263 4.805130 -0.250251
v -4.804628 5.183858 -0.130053
v -0.014893 8.376628 0.483009
v 0.365479 8.691138 0.132108
v 0.210449 8.400558 0.478614
v 0.603027 9.630779 0.659055
v 0.425293 9.133615 0.910574
v 0.795410 9.690845 0.210237
v -0.415876 2.845862 -0.036113
v -0.696132 2.944634 0.271896
v -0.718112 2.662197 0.187333
v 0.210449 8.400558 0.478614
v 0.365479 8.691138 0.132108
v 0.336670 8.601772 0.740625
v 0.855225 9.808046 -0.564085
v 0.335938 9.468132 -1.065643
v 0.406250 9.970426 -1.162347
v -0.240479 8.400558 0.478614
v -0.366699 8.601772 0.740625
v -0.395508 8.691138 0.132108
v -0.014893 6.060590 -0.495958
v 0.723389 6.057058 -0.311806
v 0.484619 5.206409 -0.614085
v -0.696777 6.054585 0.479982
v -0.716064 6.624032 -0.203669
v -0.753418 6.057058 -0.311806
v -0.014893 6.058002 0.798661
v -0.014893 6.698434 0.739915
v -0.621338 6.652913 0.514960
v -0.437012 9.970426 -1.162347
v -0.366943 9.468132 -1.065643
v -0.885254 9.808046 -0.564085
v 0.404785 10.801164 -0.163627
v 0.230957 10.813857 -0.543584
v -0.014893 10.873689 -0.025418
v 0.788055 0.249913 0.644288
v 1.069283 0.181737 0.976799
v 1.211573 0.251161 0.544443
v -0.633057 9.630779 0.659055
v -0.825439 9.690845 0.210237
v -0.455322 9.133615 0.910574
v 0.557129 10.418283 0.409975
v 0.680420 10.509113 -0.329183
v 0.404785 10.801164 -0.163627
v 3.560384 5.932746 -0.178699
v 3.645630 6.066473 -0.154172
v 4.266947 5.578249 -0.293883
v -0.818080 0.249914 0.644288
v -1.241598 0.251162 0.544444
v -1.099308 0.181738 0.976800
vn 0.9150 -0.2459 -0.3200
vn 0.8670 0.4902 -0.0898
vn 0.9706 -0.0957 0.2207
vn 0.7212 0.5220 0.4555
vn 0.9706 -0.0957 0.2208
vn 0.7212 0.5219 0.4555
vn 0.6916 0.0684 0.7190
vn 0.7212 0.5219 0.4554
vn 0.5822 0.2169 0.7836
vn 0.6916 0.0684 0.7191
vn -0.0000 0.1132 0.9936
vn -0.0000 0.2324 0.9726
vn -0.0001 0.1132 0.9936
vn -0.6915 0.0684 0.7191
vn -0.5822 0.2169 0.7836
vn -0.6916 0.0684 0.7191
vn -0.6916 0.0684 0.7190
vn -0.9706 -0.0957 0.2208
vn -0.7170 0.5295 0.4533
vn -0.9706 -0.0957 0.2207
vn -0.9155 -0.2460 -0.3183
vn -0.7170 0.5295 0.4534
vn -0.8617 0.5003 -0.0840
vn -0.9155 -0.2461 -0.3182
vn -0.8618 0.5003 -0.0841
vn -0.4781 0.0566 -0.8765
vn -0.8617 0.5004 -0.0840
vn -0.4352 0.6209 -0.6520
vn -0.4781 0.0567 -0.8765
vn -0.4353 0.6208 -0.6520
vn 0.4766 0.0567 -0.8773
vn 0.4352 0.6168 -0.6559
vn 0.4766 0.0566 -0.8773
vn -0.9706 -0.0958 0.2207
vn -0.7791 -0.6229 -0.0703
vn -0.7350 -0.1427 0.6629
vn -0.7791 -0.6230 -0.0703
vn -0.7122 -0.5835 0.3903
vn -0.7350 -0.1428 0.6629
vn -0.7121 -0.5836 0.3903
vn -0.0000 -0.0078 1.0000
vn -0.7121 -0.5835 0.3903
vn -0.0000 -0.6812 0.7321
vn -0.0001 -0.0078 1.0000
vn -0.0000 -0.0079 1.0000
vn 0.7350 -0.1427 0.6629
vn -0.0000 -0.6813 0.7320
vn 0.7122 -0.5835 0.3903
vn 0.7350 -0.1427 0.6628
vn 0.7351 -0.1427 0.6628
vn 0.7791 -0.6229 -0.0703
vn -0.0039 0.7168 0.6973
vn -0.0000 0.2325 0.9726
vn -0.0039 0.7168 0.6972
vn -0.7170 0.5296 0.4533
vn 0.2069 0.9371 -0.2812
vn -0.2284 0.9350 -0.2714
vn 0.4352 0.6168 -0.6558
vn -0.4352 0.6208 -0.6520
vn -0.2283 0.9350 -0.2714
vn -0.2283 0.9350 -0.2713
vn -0.5058 0.8555 0.1113
vn -0.4455 -0.0373 -0.8945
vn -0.0825 -0.2645 0.9608
vn -0.6065 0.4984 -0.6194
vn -0.0825 -0.2646 0.9608
vn -0.3947 0.3652 0.8431
vn -0.5765 0.8171 -0.0003
vn -0.3946 0.3653 0.8431
vn -0.3683 0.6140 0.6981
vn -0.0824 -0.2644 0.9609
vn 0.4311 -0.6346 0.6415
vn 0.2669 -0.5697 -0.7773
vn 0.4310 -0.6346 0.6415
vn 0.2668 -0.5698 -0.7773
vn 0.2726 -0.7040 0.6558
vn 0.4486 -0.8902 -0.0792
vn 0.2725 -0.7041 0.6557
vn 0.1870 -0.1211 -0.9749
vn 0.3591 -0.4114 -0.8377
vn 0.3374 -0.6828 0.6481
vn 0.3590 -0.4115 -0.8377
vn 0.3591 -0.4115 -0.8377
vn -0.3753 0.1212 -0.9189
vn 0.3374 -0.6828 0.6480
vn -0.2524 -0.3531 0.9009
vn -0.3753 0.1211 -0.9189
vn -0.3740 0.6949 -0.6142
vn -0.6043 0.3624 0.7096
vn -0.4698 0.5613 -0.6814
vn -0.6043 0.3623 0.7096
vn -0.3753 0.1212 -0.9190
vn 0.0825 -0.2645 0.9609
vn 0.4455 -0.0373 -0.8945
vn 0.3947 0.3652 0.8431
vn 0.4456 -0.0374 -0.8945
vn 0.6065 0.4985 -0.6194
vn 0.3946 0.3653 0.8431
vn 0.6065 0.4984 -0.6194
vn 0.3682 0.6141 0.6981
vn 0.5765 0.8171 -0.0003
vn 0.4455 -0.0374 -0.8945
vn 0.0824 -0.2645 0.9609
vn -0.2669 -0.5697 -0.7773
vn -0.4311 -0.6346 0.6415
vn -0.2669 -0.5698 -0.7773
vn -0.4310 -0.6346 0.6415
vn -0.4486 -0.8902 -0.0792
vn -0.2725 -0.7041 0.6557
vn -0.1871 -0.1211 -0.9749
vn -0.3374 -0.6827 0.6481
vn -0.1870 -0.1211 -0.9749
vn -0.3591 -0.4115 -0.8377
vn -0.3373 -0.6828 0.6481
vn -0.3374 -0.6828 0.6481
vn -0.3590 -0.4115 -0.8377
vn 0.2524 -0.3531 0.9009
vn 0.3753 0.1212 -0.9190
vn 0.3740 0.6949 -0.6142
vn 0.4698 0.5612 -0.6814
vn 0.6043 0.3624 0.7096
vn 0.4697 0.5613 -0.6814
vn 0.3753 0.1212 -0.9189
vn 0.6044 0.3623 0.7095
vn 0.2524 -0.3530 0.9009
vn -0.5057 0.8555 0.1114
vn -0.0176 0.9869 0.1602
vn -0.0176 0.9869 0.1603
vn 0.5000 0.8596 0.1055
vn -0.7351 -0.1427 0.6628
vn 0.6915 0.0684 0.7191
vn 0.7350 -0.1428 0.6628
vn 0.5001 0.8596 0.1054
vn 0.8670 0.4902 -0.0899
vn -0.4878 -0.8663 -0.1073
vn -0.4877 -0.8664 -0.1074
vn -0.0000 -0.9361 -0.3518
vn 0.0001 -0.9361 -0.3518
vn 0.4877 -0.8664 -0.1074
vn 0.7122 -0.5835 0.3902
vn -0.6738 0.4009 -0.6207
vn 0.0235 0.5699 0.8213
vn -0.9894 -0.1364 0.0492
vn 0.0235 0.5699 0.8214
vn 0.0254 -0.2093 0.9775
vn -0.9894 -0.1365 0.0491
vn 0.0255 -0.2093 0.9775
vn 0.1488 -0.2001 0.9684
vn 0.9961 0.0517 0.0713
vn 0.1487 -0.2002 0.9684
vn 0.1487 -0.2001 0.9684
vn 1.0000 0.0035 0.0061
vn -0.0016 0.0954 -0.9954
vn 1.0000 0.0036 0.0061
vn -0.0015 0.0953 -0.9954
vn 0.0749 -0.3092 -0.9481
vn -0.0001 -0.9624 0.2717
vn 0.0749 -0.3091 -0.9481
vn 0.0001 -0.9624 0.2716
vn 0.2480 -0.2619 -0.9327
vn -0.0000 -0.9624 0.2717
vn -0.0000 -0.4461 -0.8950
vn 0.2481 -0.2619 -0.9327
vn -0.0000 0.2485 -0.9686
vn -0.2480 -0.2619 -0.9327
vn -0.7148 0.2211 -0.6635
vn -0.2480 -0.2620 -0.9327
vn -1.0000 0.0035 0.0061
vn -0.7147 0.2212 -0.6635
vn -1.0000 0.0036 0.0061
vn -0.8687 0.0639 0.4913
vn -0.4276 -0.1408 0.8930
vn -0.8687 0.0638 0.4913
vn -0.4276 -0.1407 0.8930
vn -0.0000 0.0096 1.0000
vn -0.4275 -0.1407 0.8930
vn -0.0000 -0.3892 0.9211
vn -0.0000 0.0095 1.0000
vn 0.0001 0.0095 1.0000
vn -0.0000 -0.3893 0.9211
vn 0.4275 -0.1407 0.8930
vn 0.4276 -0.1407 0.8929
vn 0.4276 -0.1408 0.8929
vn 0.3034 -0.0455 0.9518
vn 0.1488 -0.2000 0.9684
vn 0.3033 -0.0455 0.9518
vn 0.3033 -0.0456 0.9518
vn 0.4276 -0.1407 0.8930
vn 0.8687 0.0638 0.4913
vn 0.8687 0.0639 0.4912
vn 0.8687 0.0639 0.4913
vn 0.7389 0.0173 0.6736
vn 0.0001 0.0096 1.0000
vn 0.0001 0.1579 0.9875
vn -0.0000 0.3067 0.9518
vn -0.0000 0.1579 0.9875
vn -0.0000 0.3066 0.9518
vn -0.7389 0.0173 0.6736
vn -0.2243 -0.2485 0.9423
vn -0.2244 -0.2485 0.9423
vn -0.3737 -0.2760 -0.8855
vn 0.6754 -0.7370 -0.0253
vn 0.2090 -0.3437 -0.9155
vn 0.5707 0.3661 -0.7350
vn 0.2090 -0.3436 -0.9156
vn -0.6980 0.1585 -0.6983
vn 0.5708 0.3661 -0.7350
vn -0.6737 0.4010 -0.6207
vn -0.6980 0.1585 -0.6984
vn -0.6700 0.6820 0.2932
vn -0.6737 0.4009 -0.6208
vn -0.6701 0.6819 0.2932
vn 0.6265 0.7593 0.1758
vn 0.0234 0.5700 0.8213
vn 0.6265 0.7594 0.1758
vn 0.7789 0.4308 -0.4558
vn 0.6265 0.7593 0.1759
vn 0.7789 0.4309 -0.4557
vn 0.7789 0.4308 -0.4557
vn -0.6737 0.4009 -0.6207
vn 0.6738 0.4009 -0.6207
vn 0.9894 -0.1365 0.0492
vn -0.0235 0.5700 0.8213
vn 0.9894 -0.1365 0.0491
vn -0.0254 -0.2093 0.9775
vn -0.0235 0.5699 0.8214
vn -0.0254 -0.2094 0.9775
vn -0.9961 0.0518 0.0713
vn -0.1487 -0.2001 0.9684
vn -0.9961 0.0517 0.0713
vn -0.3033 -0.0456 0.9518
vn -0.3033 -0.0455 0.9518
vn -0.4275 -0.1406 0.8930
vn -0.3034 -0.0455 0.9518
vn -0.7774 0.1210 0.6173
vn -0.6265 0.7593 0.1758
vn -0.6754 -0.7370 -0.0253
vn -0.5707 0.3661 -0.7350
vn -0.6754 -0.7370 -0.0252
vn -0.2090 -0.3436 -0.9156
vn -0.5708 0.3661 -0.7350
vn 0.6980 0.1585 -0.6984
vn 0.6980 0.1586 -0.6983
vn 0.7926 -0.5134 -0.3288
vn 0.6700 0.6820 0.2932
vn 0.7926 -0.5135 -0.3288
vn 0.6701 0.6819 0.2932
vn 0.7949 -0.5737 0.1975
vn 0.4203 -0.3776 0.8251
vn -0.6191 -0.4711 0.6283
vn -0.5123 -0.8587 0.0144
vn -0.4405 -0.7426 -0.5045
vn 0.0987 -0.0077 -0.9951
vn -0.4406 -0.7426 -0.5044
vn -0.4406 -0.7426 -0.5045
vn 0.0987 -0.0076 -0.9951
vn 0.3740 0.6949 -0.6141
vn 0.5940 0.8030 0.0491
vn 0.3741 0.6949 -0.6141
vn 0.5940 0.8029 0.0491
vn 0.2381 0.7724 0.5888
vn 0.5940 0.8029 0.0490
vn -0.0443 -0.0040 0.9990
vn 0.2382 0.7725 0.5887
vn -0.0443 -0.0039 0.9990
vn -0.5123 -0.8587 0.0143
vn -0.3208 0.7642 0.5595
vn -0.8234 0.5551 -0.1176
vn -0.3599 0.7937 -0.4904
vn -0.0000 0.3517 -0.9361
vn -0.3599 0.7938 -0.4903
vn -0.0000 -0.2326 -0.9726
vn -0.3737 -0.2759 -0.8856
vn -0.3737 -0.2760 -0.8856
vn -0.0000 -0.2327 -0.9726
vn -0.8151 -0.1729 -0.5530
vn -0.0000 -0.2327 -0.9725
vn -0.0000 0.0417 -0.9991
vn -0.8151 -0.1729 -0.5529
vn -0.0000 0.2486 -0.9686
vn 0.6191 -0.4710 0.6283
vn 0.4405 -0.7426 -0.5044
vn 0.5123 -0.8587 0.0144
vn 0.4406 -0.7426 -0.5045
vn -0.0986 -0.0077 -0.9951
vn -0.0986 -0.0076 -0.9951
vn -0.1599 0.0397 -0.9863
vn -0.0987 -0.0077 -0.9951
vn -0.5940 0.8029 0.0491
vn -0.1598 0.0397 -0.9863
vn -0.5940 0.8030 0.0491
vn -0.4682 0.7661 -0.4402
vn -0.3979 0.6378 0.6595
vn -0.4682 0.7662 -0.4402
vn -0.3980 0.6378 0.6594
vn -0.3979 0.6378 0.6594
vn 0.3737 -0.2759 -0.8856
vn 0.2244 -0.2485 0.9423
vn -0.5122 -0.8587 0.0143
vn 0.0589 0.0113 0.9982
vn 0.2243 -0.2485 0.9423
vn 0.3979 0.6378 0.6594
vn 0.0588 0.0113 0.9982
vn 0.3980 0.6378 0.6594
vn 0.3979 0.6378 0.6595
vn 0.4682 0.7662 -0.4402
vn 0.1599 0.0397 -0.9863
vn 0.4682 0.7662 -0.4401
vn 0.1599 0.0398 -0.9863
vn 0.3737 -0.2760 -0.8856
vn 0.3737 -0.2759 -0.8855
vn -0.7926 -0.5134 -0.3288
vn -0.7949 -0.5737 0.1975
vn -0.6701 0.6820 0.2931
vn -0.7948 -0.5738 0.1976
vn -0.4202 -0.3775 0.8251
vn -0.4203 -0.3775 0.8251
vn 0.1877 0.7700 0.6098
vn -0.4203 -0.3776 0.8251
vn 0.7774 0.1211 0.6173
vn 0.1876 0.7700 0.6098
vn 0.1877 0.7700 0.6099
vn 0.7774 0.1210 0.6173
vn -0.7226 -0.3438 -0.5997
vn 0.0001 -0.5018 -0.8650
vn -0.0000 0.3518 -0.9361
vn -0.0000 -0.5018 -0.8650
vn 0.7226 -0.3439 -0.5997
vn -0.0001 0.3517 -0.9361
vn 0.7226 -0.3438 -0.5997
vn 0.8234 0.5552 -0.1176
vn 0.7790 -0.6230 -0.0703
vn 0.8234 0.5551 -0.1176
vn 0.0001 0.2928 0.9562
vn 0.7790 -0.6230 -0.0704
vn -0.0000 -0.9433 0.3320
vn -0.0000 0.2927 0.9562
vn 0.0748 -0.3091 -0.9481
vn 0.7148 0.2211 -0.6635
vn 0.7147 0.2212 -0.6635
vn 0.8150 -0.1730 -0.5530
vn 0.8150 -0.1729 -0.5530
vn 0.3737 -0.2760 -0.8855
vn 0.7389 0.0172 0.6736
vn 0.2244 -0.2486 0.9423
vn -0.2381 0.7724 0.5888
vn -0.2381 0.7725 0.5887
vn -0.3740 0.6949 -0.6141
vn 0.1870 -0.1212 -0.9749
vn -0.4698 0.5612 -0.6814
vn -0.3752 0.1212 -0.9190
vn 0.6979 0.1586 -0.6984
vn 0.6737 0.4010 -0.6208
vn 0.6738 0.4008 -0.6208
vn -0.7790 0.4308 -0.4557
vn -0.5707 0.3660 -0.7351
vn -0.7789 0.4308 -0.4557
vn -0.6265 0.7594 0.1758
vn -0.0236 0.5700 0.8213
vn -0.2482 -0.2619 -0.9326
vn -0.0749 -0.3091 -0.9481
vn -0.2481 -0.2619 -0.9327
vn -0.0749 -0.3092 -0.9481
vn -0.0748 -0.3091 -0.9481
vn 0.0015 0.0954 -0.9954
vn 0.0016 0.0953 -0.9954
vn -0.0168 0.1785 -0.9838
vn -0.3741 0.6949 -0.6142
vn 0.0443 -0.0039 0.9990
vn -0.5940 0.8030 0.0490
vn -0.0589 0.0112 0.9982
vn 0.5122 -0.8587 0.0143
vn 0.5123 -0.8587 0.0143
vn -0.3736 -0.2759 -0.8856
vn -0.0824 -0.2645 0.9609
vn 0.4311 -0.6346 0.6414
vn -0.3948 0.3652 0.8431
vn 0.2725 -0.7042 0.6557
vn 0.2726 -0.7041 0.6557
vn -0.3683 0.6141 0.6981
vn 0.5275 -0.1715 0.8321
vn -0.3682 0.6141 0.6980
vn -0.3682 0.6141 0.6981
vn -0.2381 0.7725 0.5888
vn 0.5274 -0.1716 0.8321
vn 0.6191 -0.4711 0.6283
vn 0.3740 0.6950 -0.6141
vn 0.4698 0.5613 -0.6814
vn -0.3591 -0.4114 -0.8377
vn 0.3752 0.1212 -0.9190
vn 0.5122 -0.8587 0.0144
vn -0.1598 0.0398 -0.9863
vn -0.1599 0.0398 -0.9863
vn -0.4682 0.7662 -0.4401
vn -0.3598 0.7938 -0.4904
vn -0.9155 -0.2460 -0.3182
vn -0.7790 -0.6230 -0.0703
vn -0.8234 0.5552 -0.1176
vn -0.0236 0.5699 0.8213
vn -0.9961 0.0518 0.0714
vn -0.9961 0.0517 0.0714
vn -0.0168 0.1784 -0.9838
vn -0.7789 0.4309 -0.4557
vn -0.0169 0.1784 -0.9838
vn 0.6737 0.4009 -0.6208
vn -0.0169 0.1785 -0.9838
vn 0.3599 0.7938 -0.4903
vn 0.3599 0.7937 -0.4904
vn 0.3209 0.7642 0.5595
vn 0.3208 0.7642 0.5596
vn 0.3208 0.7642 0.5595
vn 0.3979 0.6379 0.6594
vn 0.0001 0.2927 0.9562
vn 0.7791 -0.6230 -0.0703
vn 0.4198 -0.5567 -0.7168
vn -0.9894 -0.1365 0.0492
vn 0.0169 0.1784 -0.9838
vn 0.0169 0.1785 -0.9838
vn 0.6191 -0.4710 0.6284
vn 0.4405 -0.7426 -0.5045
vn 0.4406 -0.7426 -0.5044
vn -0.5274 -0.1715 0.8321
vn 0.2381 0.7725 0.5887
vn 0.2381 0.7725 0.5888
vn 0.3683 0.6140 0.6981
vn -0.0000 0.2928 0.9562
vn -0.3209 0.7642 0.5596
vn -0.8234 0.5551 -0.1177
vn -0.8150 -0.1729 -0.5530
vn -0.8150 -0.1730 -0.5530
vn 0.0001 -0.9624 0.2717
vn 0.0015 0.0953 -0.9954
vn 0.0015 0.0953 -0.9955
vn 0.9894 -0.1364 0.0492
vn -0.1877 0.7700 0.6098
vn 0.4203 -0.3777 0.8251
vn -0.1877 0.7700 0.6099
vn 0.4204 -0.3775 0.8251
vn -0.4877 -0.8664 -0.1073
vn 0.4199 -0.5567 -0.7168
vn -0.0000 -0.5019 -0.8649
vn -0.4198 -0.5567 -0.7168
vn -0.4199 -0.5567 -0.7168
vn 0.1871 -0.1211 -0.9748
vn -0.3740 0.6950 -0.6141
vn -0.5274 -0.1716 0.8321
vn -0.4405 -0.7426 -0.5044
vn -0.2726 -0.7041 0.6557
vn -0.5275 -0.1715 0.8321
vn -0.5057 0.8555 0.1113
vn 0.2069 0.9371 -0.2811
vn 0.2089 -0.3437 -0.9156
vn -0.7927 -0.5134 -0.3288
vn -0.7926 -0.5135 -0.3288
vn 0.8151 -0.1729 -0.5530
vn 0.8151 -0.1729 -0.5529
vn 0.7148 0.2212 -0.6634
vn 0.6754 -0.7370 -0.0254
vn -0.7948 -0.5737 0.1976
vn 0.6755 -0.7370 -0.0253
vn 0.0253 -0.2093 0.9775
vn 0.9961 0.0518 0.0713
vn 0.0236 0.5700 0.8213
vn 0.0589 0.0112 0.9982
vn 0.5941 0.8029 0.0490
vn 0.1598 0.0397 -0.9863
vn 0.1598 0.0398 -0.9863
vn -0.5941 0.8029 0.0491
vn -0.0588 0.0113 0.9982
vn -0.0589 0.0113 0.9982
vn -0.3979 0.6379 0.6594
vn -0.7773 0.1210 0.6174
vn -0.6755 -0.7370 -0.0254
vn 0.7949 -0.5737 0.1976
vn 0.4204 -0.3776 0.8250
vn -0.4311 -0.6346 0.6414
vn -0.4312 -0.6346 0.6414
vn 0.3946 0.3652 0.8431
vn 0.3683 0.6141 0.6980
vn -0.2381 0.7724 0.5887
vn 0.6192 -0.4710 0.6283
vn -0.3741 0.6949 -0.6141
vn -0.0987 -0.0076 -0.9951
vn -0.2090 -0.3436 -0.9155
vn 0.7948 -0.5738 0.1976
vn -0.3034 -0.0456 0.9518
vn -0.1488 -0.2001 0.9684
vn -0.1488 -0.2000 0.9684
vn 0.0001 0.3517 -0.9361
vn -0.0016 0.0953 -0.9954
vn 0.9961 0.0518 0.0714
vn 0.0168 0.1785 -0.9838
vn 0.0168 0.1784 -0.9838
vn 0.3598 0.7938 -0.4903
vn 0.0001 -0.2327 -0.9726
vn -0.1869 -0.1212 -0.9749
vn -0.6065 0.4985 -0.6194
vn 0.2669 -0.5698 -0.7773
vn 0.4486 -0.8902 -0.0791
vn 0.2669 -0.5698 -0.7772
vn -0.5765 0.8171 -0.0002
vn -0.6044 0.3623 0.7095
vn -0.6044 0.3624 0.7095
vn 0.3374 -0.6829 0.6480
vn 0.5765 0.8171 -0.0002
vn 0.6043 0.3624 0.7095
vn -0.3374 -0.6828 0.6480
vn 0.6044 0.3624 0.7095
vn 0.6066 0.4984 -0.6194
vn -0.2669 -0.5698 -0.7772
vn -0.4486 -0.8902 -0.0791
vn -0.4782 0.0566 -0.8764
vn -0.5058 0.8554 0.1113
vn -0.6066 0.4985 -0.6194
vn -0.4454 -0.0373 -0.8945
vn -0.3375 -0.6828 0.6480
vn 0.2523 -0.3531 0.9009
vn -0.8234 0.5552 -0.1175
vn -0.0001 0.2927 0.9562
vn -0.9894 -0.1364 0.0491
vn -0.2523 -0.3531 0.9009
vn 0.4878 -0.8664 -0.1073
vn 0.9894 -0.1364 0.0491
vn -0.0255 -0.2093 0.9775
vn 0.4877 -0.8664 -0.1073
vn 0.9149 -0.2459 -0.3200
vn 0.4767 0.0566 -0.8773
vn 0.0001 0.2485 -0.9686
vn -0.7147 0.2211 -0.6635
vn 0.5000 0.8596 0.1054
vn -0.0175 0.9869 0.1602
vn -0.7351 -0.1428 0.6628
vn 0.8669 0.4902 -0.0898
vt 0.364258 0.742188
vt 0.259766 0.841797
vt 0.215820 0.694336
vt 0.124023 0.843750
vt 0.139648 0.687500
vt 0.116211 0.774414
vt 0.032227 0.673828
vt 0.032227 0.735352
vt 0.124023 0.842773
vt 0.363281 0.742188
vt 0.419922 0.753906
vt 0.415039 0.828125
vt 0.576172 0.765625
vt 0.567383 0.830078
vt 0.175781 0.523438
vt 0.099609 0.600586
vt 0.079102 0.509766
vt 0.032227 0.590820
vt 0.032227 0.499023
vt 0.033203 0.845703
vt 0.247070 0.962891
vt 0.405273 0.977539
vt 0.279297 0.896484
vt 0.186523 0.885742
vt 0.177734 0.053711
vt 0.151367 0.048828
vt 0.187500 0.124023
vt 0.149414 0.124023
vt 0.206055 0.225586
vt 0.156250 0.227539
vt 0.441406 0.060547
vt 0.415039 0.058594
vt 0.416992 0.156250
vt 0.373047 0.151367
vt 0.400391 0.263672
vt 0.342773 0.248047
vt 0.284180 0.231445
vt 0.293945 0.138672
vt 0.336914 0.142578
vt 0.313477 0.039062
vt 0.335938 0.041016
vt 0.256836 0.224609
vt 0.235352 0.124023
vt 0.269531 0.124023
vt 0.258789 0.053711
vt 0.280273 0.052734
vt 0.166992 0.952148
vt 0.186523 0.884766
vt 0.280273 0.896484
vt 0.419922 0.754883
vt 0.094727 0.428711
vt 0.045898 0.428711
vt 0.970703 0.035156
vt 0.916016 0.035156
vt 0.974609 0.317383
vt 0.916992 0.302734
vt 0.916992 0.326172
vt 0.849609 0.316406
vt 0.848633 0.566406
vt 0.791016 0.323242
vt 0.785156 0.544922
vt 0.733398 0.540039
vt 0.781250 0.565430
vt 0.733398 0.571289
vt 0.733398 0.641602
vt 0.815430 0.641602
vt 0.894531 0.641602
vt 0.916016 0.575195
vt 0.983398 0.642578
vt 0.983398 0.572266
vt 0.976562 0.541992
vt 0.916016 0.558594
vt 0.900391 0.705078
vt 0.982422 0.712891
vt 0.982422 0.834961
vt 0.901367 0.826172
vt 0.822266 0.809570
vt 0.604492 0.628906
vt 0.708984 0.553711
vt 0.668945 0.541992
vt 0.645508 0.496094
vt 0.641602 0.505859
vt 0.562500 0.545898
vt 0.613281 0.540039
vt 0.591797 0.596680
vt 0.656250 0.539062
vt 0.512695 0.644531
vt 0.656250 0.456055
vt 0.536133 0.516602
vt 0.472656 0.582031
vt 0.462891 0.027344
vt 0.456055 0.205078
vt 0.524414 0.038086
vt 0.521484 0.202148
vt 0.600586 0.051758
vt 0.580078 0.236328
vt 0.632812 0.057617
vt 0.639648 0.222656
vt 0.694336 0.069336
vt 0.688477 0.247070
vt 0.913086 0.918945
vt 0.875000 0.966797
vt 0.857422 0.926758
vt 0.734375 0.971680
vt 0.734375 0.803711
vt 0.828125 0.706055
vt 0.734375 0.707031
vt 0.513672 0.242188
vt 0.515625 0.424805
vt 0.568359 0.433594
vt 0.572266 0.472656
vt 0.632812 0.419922
vt 0.690430 0.393555
vt 0.631836 0.264648
vt 0.458984 0.351562
vt 0.526367 0.594727
vt 0.272461 0.558594
vt 0.356445 0.524414
vt 0.335938 0.442383
vt 0.299805 0.443359
vt 0.243164 0.434570
vt 0.157227 0.460938
vt 0.188477 0.371094
vt 0.240234 0.372070
vt 0.292969 0.141602
vt 0.791992 0.306641
vt 0.125000 0.131836
vt 0.119141 0.235352
vt 0.123047 0.313477
vt 0.164062 0.368164
vt 0.492188 0.457031
vt 0.825195 0.034180
vt 0.733398 0.035156
vt 0.733398 0.316406
vt 0.984375 0.978516
vt 0.426758 0.652344
vt 0.331055 0.381836
vt 0.399414 0.356445
vt 0.276367 0.370117
vt 0.112305 0.369141
vt 0.047852 0.369141
vt 0.491211 0.480469
vt 0.674805 0.944336
vt 0.679688 0.894531
vt 0.617188 0.964844
vt 0.617188 0.879883
vt 0.515625 0.949219
vt 0.515625 0.894531
vt 0.068359 0.143555
vt 0.063477 0.250977
vt 0.090820 0.155273
vt 0.097656 0.252930
vt 0.052734 0.250977
vt 0.050781 0.144531
vt 0.018555 0.252930
vt 0.027344 0.155273
vt 0.587891 0.674805
vt 0.085938 0.056641
vt 0.034180 0.056641
s 1
usemtl blinn1.001
f 1/1/1 2/2/2 3/3/3
f 4/2/2 5/4/4 6/3/5
f 7/3/5 8/4/6 9/5/7
f 10/4/8 11/6/9 12/5/7
f 13/5/10 14/6/9 15/7/11
f 16/6/9 17/8/12 18/7/11
f 19/7/13 20/8/12 21/5/14
f 22/8/12 23/6/15 24/5/16
f 25/5/17 26/6/15 27/3/18
f 28/6/15 29/9/19 30/3/20
f 31/3/20 32/9/19 33/10/21
f 34/9/22 35/2/23 36/10/21
f 37/10/24 38/2/25 39/11/26
f 40/2/27 41/12/28 42/11/29
f 43/11/26 44/12/30 45/13/31
f 46/12/30 47/14/32 48/13/33
f 49/3/34 50/15/35 51/16/36
f 52/15/37 53/17/38 54/16/39
f 55/16/36 56/17/40 57/18/41
f 58/17/42 59/19/43 60/18/44
f 61/18/45 62/19/43 63/16/46
f 64/19/47 65/17/48 66/16/49
f 67/16/50 68/17/48 69/3/3
f 70/17/48 71/15/51 72/3/3
f 73/6/9 74/4/8 75/8/12
f 76/4/4 77/20/52 78/8/53
f 79/8/12 80/20/52 81/6/15
f 82/20/54 83/9/55 84/6/15
f 85/21/56 86/22/32 87/23/57
f 88/22/58 89/12/59 90/23/60
f 91/23/61 92/12/30 93/24/62
f 94/12/30 95/2/27 96/24/62
f 97/25/63 98/26/64 99/27/65
f 100/26/66 101/28/67 102/27/65
f 103/27/65 104/28/67 105/29/68
f 106/28/69 107/30/70 108/29/68
f 109/31/71 110/32/63 111/33/72
f 112/32/63 113/34/73 114/33/72
f 115/33/74 116/34/75 117/35/76
f 118/34/73 119/36/77 120/35/78
f 121/37/79 122/36/77 123/38/80
f 124/36/77 125/39/81 126/38/82
f 127/38/83 128/39/81 129/40/84
f 130/39/85 131/41/86 132/40/87
f 133/29/68 134/42/88 135/43/89
f 136/42/88 137/44/90 138/43/91
f 139/43/89 140/44/90 141/45/86
f 142/44/90 143/46/92 144/45/86
f 145/26/93 146/25/94 147/28/95
f 148/25/96 149/27/97 150/28/98
f 151/28/95 152/27/99 153/30/100
f 154/27/97 155/29/101 156/30/100
f 157/32/102 158/31/103 159/34/104
f 160/31/103 161/33/105 162/34/106
f 163/34/104 164/33/107 165/36/108
f 166/33/107 167/35/109 168/36/108
f 169/36/108 170/37/110 171/39/111
f 172/37/112 173/38/113 174/39/114
f 175/39/115 176/38/116 177/41/117
f 178/38/116 179/40/118 180/41/117
f 181/42/119 182/29/101 183/44/120
f 184/29/101 185/43/121 186/44/120
f 187/44/122 188/43/121 189/46/123
f 190/43/124 191/45/125 192/46/118
f 193/24/126 194/9/22 195/47/127
f 196/9/19 197/20/52 198/47/128
f 199/47/128 200/20/54 201/48/129
f 202/20/54 203/4/6 204/48/129
f 205/5/16 206/16/130 207/7/11
f 208/16/130 209/18/41 210/7/11
f 211/7/11 212/18/41 213/5/131
f 214/18/41 215/16/132 216/5/7
f 217/49/56 218/48/129 219/12/58
f 220/48/133 221/2/134 222/12/32
f 223/12/58 224/2/134 225/50/33
f 226/2/134 227/1/1 228/50/33
f 229/17/42 230/51/135 231/19/47
f 232/51/136 233/52/137 234/19/47
f 235/19/43 236/52/137 237/17/48
f 238/52/138 239/51/139 240/17/140
f 241/53/141 242/54/142 243/55/143
f 244/54/144 245/56/145 246/55/146
f 247/55/146 248/56/147 249/57/148
f 250/56/145 251/58/149 252/57/150
f 253/57/151 254/58/149 255/59/152
f 256/58/149 257/60/153 258/59/154
f 259/59/152 260/60/155 261/61/156
f 262/60/155 263/62/157 264/61/158
f 265/61/158 266/62/159 267/63/160
f 268/62/161 269/64/162 270/63/163
f 271/63/163 272/64/162 273/65/164
f 274/64/162 275/63/165 276/65/164
f 277/65/164 278/63/165 279/66/166
f 280/63/167 281/59/168 282/66/166
f 283/66/169 284/59/170 285/67/171
f 286/59/168 287/68/172 288/67/173
f 289/67/171 290/68/174 291/69/175
f 292/68/176 293/70/177 294/69/178
f 295/69/179 296/70/180 297/68/181
f 298/70/180 299/71/161 300/68/182
f 301/68/183 302/71/157 303/72/184
f 304/71/161 305/57/185 306/72/184
f 307/72/186 308/57/151 309/59/154
f 310/72/187 311/59/152 312/68/188
f 313/59/152 314/67/189 315/68/188
f 316/68/188 317/67/190 318/69/175
f 319/67/191 320/73/192 321/69/175
f 322/69/193 323/73/192 324/74/194
f 325/73/192 326/75/195 327/74/196
f 328/74/196 329/75/197 330/73/198
f 331/75/197 332/76/199 333/73/198
f 334/73/198 335/76/200 336/77/201
f 337/78/202 338/79/203 339/80/204
f 340/79/205 341/81/206 342/80/204
f 343/80/207 344/81/206 345/82/208
f 346/81/209 347/83/210 348/82/211
f 349/82/141 350/83/210 351/84/142
f 352/83/212 353/85/213 354/84/144
f 355/84/214 356/85/215 357/86/216
f 358/85/217 359/80/204 360/86/218
f 361/86/219 362/80/204 363/82/220
f 364/53/221 365/55/222 366/54/223
f 367/55/224 368/56/225 369/54/223
f 370/54/226 371/56/227 372/58/228
f 373/56/225 374/57/229 375/58/228
f 376/58/230 377/57/229 378/59/168
f 379/57/229 380/72/231 381/59/168
f 382/59/168 383/72/232 384/68/233
f 385/72/234 386/71/161 387/68/174
f 388/68/174 389/71/161 390/70/180
f 391/87/235 392/85/236 393/78/237
f 394/85/236 395/80/238 396/78/237
f 397/78/239 398/80/238 399/79/240
f 400/80/241 401/81/242 402/79/240
f 403/79/240 404/81/243 405/88/244
f 406/81/242 407/83/245 408/88/246
f 409/88/246 410/83/247 411/89/248
f 412/83/247 413/90/249 414/89/248
f 415/91/250 416/92/251 417/93/252
f 418/92/251 419/94/253 420/93/254
f 421/93/255 422/94/256 423/95/257
f 424/94/253 425/96/258 426/95/259
f 427/95/119 428/96/260 429/97/261
f 430/96/262 431/98/263 432/97/261
f 433/97/264 434/98/265 435/99/250
f 436/98/265 437/100/266 438/99/250
f 439/101/267 440/102/268 441/103/269
f 442/102/268 443/104/270 444/103/271
f 445/103/271 446/104/270 447/77/201
f 448/104/270 449/105/272 450/77/273
f 451/77/274 452/105/275 453/106/276
f 454/105/277 455/107/278 456/106/279
f 457/106/276 458/107/278 459/66/166
f 460/107/278 461/65/280 462/66/166
f 463/91/281 464/93/282 465/92/283
f 466/93/284 467/94/285 468/92/283
f 469/92/283 470/94/286 471/108/287
f 472/94/288 473/96/289 474/108/287
f 475/108/290 476/96/291 477/109/292
f 478/96/289 479/110/293 480/109/294
f 481/109/294 482/110/295 483/111/267
f 484/110/296 485/112/199 486/111/267
f 487/113/297 488/100/251 489/112/298
f 490/100/299 491/114/300 492/112/298
f 493/112/301 494/114/300 495/110/302
f 496/114/303 497/96/260 498/110/304
f 499/110/305 500/96/260 501/109/306
f 502/96/260 503/108/307 504/109/306
f 505/109/308 506/108/309 507/115/310
f 508/108/309 509/92/251 510/115/311
f 511/88/312 512/89/313 513/83/314
f 514/89/315 515/90/316 516/83/212
f 517/83/212 518/90/317 519/116/318
f 520/90/319 521/87/320 522/116/321
f 523/116/322 524/87/323 525/85/217
f 526/87/323 527/78/202 528/85/213
f 529/85/213 530/78/202 531/80/204
f 532/117/324 533/118/325 534/119/326
f 535/118/327 536/117/328 537/119/326
f 538/119/329 539/117/330 540/120/331
f 541/117/330 542/15/332 543/120/331
f 544/120/333 545/15/51 546/121/334
f 547/15/335 548/122/336 549/121/337
f 550/121/337 551/122/336 552/15/35
f 553/61/338 554/63/160 555/59/154
f 556/63/160 557/66/339 558/59/154
f 559/59/154 560/66/340 561/67/191
f 562/66/340 563/106/341 564/67/191
f 565/67/189 566/106/341 567/73/192
f 568/106/342 569/77/343 570/73/192
f 571/73/344 572/77/343 573/76/345
f 574/30/70 575/123/346 576/29/68
f 577/123/347 578/124/88 579/29/68
f 580/29/68 581/124/88 582/42/88
f 583/124/348 584/37/79 585/42/348
f 586/42/88 587/37/79 588/44/90
f 589/37/349 590/125/83 591/44/350
f 592/44/90 593/125/82 594/46/351
f 595/83/245 596/81/352 597/82/353
f 598/81/242 599/80/241 600/82/221
f 601/82/354 602/80/238 603/86/355
f 604/80/356 605/85/236 606/86/357
f 607/86/357 608/85/358 609/84/226
f 610/85/236 611/83/247 612/84/226
f 613/84/359 614/83/245 615/82/353
f 616/64/162 617/62/157 618/63/360
f 619/62/161 620/61/361 621/63/362
f 622/63/165 623/61/363 624/59/168
f 625/61/364 626/60/365 627/59/170
f 628/59/168 629/60/366 630/58/228
f 631/60/366 632/126/367 633/58/228
f 634/95/368 635/97/347 636/96/289
f 637/97/346 638/98/369 639/96/291
f 640/96/370 641/98/369 642/114/371
f 643/98/369 644/100/372 645/114/371
f 646/114/371 647/100/373 648/112/200
f 649/100/283 650/113/374 651/112/200
f 652/26/375 653/127/376 654/28/377
f 655/127/376 656/128/378 657/28/377
f 658/28/67 659/128/379 660/30/380
f 661/128/379 662/129/381 663/30/382
f 664/30/383 665/129/381 666/123/384
f 667/129/385 668/130/386 669/123/347
f 670/123/261 671/29/101 672/124/119
f 673/29/101 674/42/119 675/124/119
f 676/124/387 677/42/257 678/37/112
f 679/42/119 680/44/388 681/37/112
f 682/37/112 683/44/388 684/125/389
f 685/44/120 686/46/390 687/125/113
f 688/92/391 689/108/392 690/115/273
f 691/108/393 692/109/294 693/115/201
f 694/115/201 695/109/394 696/131/395
f 697/109/294 698/111/267 699/131/269
f 700/3/20 701/10/396 702/15/37
f 703/10/21 704/117/324 705/15/397
f 706/15/397 707/117/324 708/120/398
f 709/117/324 710/119/326 711/120/398
f 712/54/399 713/58/400 714/132/357
f 715/58/401 716/126/402 717/132/357
f 718/132/403 719/126/404 720/133/405
f 721/126/406 722/134/222 723/133/405
f 724/115/297 725/131/407 726/109/306
f 727/131/408 728/111/409 729/109/306
f 730/109/306 731/111/410 732/110/305
f 733/111/411 734/112/301 735/110/412
f 736/73/192 737/76/298 738/75/197
f 739/76/298 740/101/409 741/75/197
f 742/75/195 743/101/410 744/135/337
f 745/101/411 746/102/333 747/135/413
f 748/3/3 749/15/414 750/1/1
f 751/15/332 752/117/330 753/1/1
f 754/1/1 755/117/328 756/136/415
f 757/117/330 758/118/327 759/136/415
f 760/62/161 761/60/155 762/134/416
f 763/60/155 764/126/417 765/134/143
f 766/134/143 767/126/418 768/133/211
f 769/126/417 770/132/219 771/133/211
f 772/137/419 773/138/385 774/139/420
f 775/138/385 776/35/379 777/139/282
f 778/139/421 779/35/78 780/36/77
f 781/130/250 782/129/422 783/123/423
f 784/129/422 785/30/100 786/123/261
f 787/123/424 788/30/425 789/29/101
f 790/76/199 791/75/195 792/101/267
f 793/75/195 794/135/426 795/101/427
f 796/101/267 797/135/413 798/102/428
f 799/77/201 800/106/429 801/73/198
f 802/106/430 803/67/171 804/73/198
f 805/73/198 806/67/173 807/69/175
f 808/61/361 809/62/431 810/60/432
f 811/62/161 812/134/222 813/60/432
f 814/60/433 815/134/434 816/126/406
f 817/85/236 818/87/235 819/116/435
f 820/87/235 821/90/436 822/116/435
f 823/116/437 824/90/438 825/83/245
f 826/51/439 827/140/37 828/52/137
f 829/140/397 830/141/336 831/52/137
f 832/52/137 833/141/336 834/140/332
f 835/142/440 836/118/441 837/136/442
f 838/118/327 839/117/324 840/136/443
f 841/136/443 842/117/324 843/10/21
f 844/36/77 845/37/444 846/139/421
f 847/37/79 848/124/445 849/139/420
f 850/137/250 851/139/255 852/138/446
f 853/139/447 854/35/448 855/138/449
f 856/24/450 857/47/127 858/23/61
f 859/47/127 860/21/451 861/23/61
f 862/79/452 863/88/453 864/81/206
f 865/88/454 866/83/210 867/81/209
f 868/77/310 869/106/455 870/105/275
f 871/106/456 872/107/278 873/105/277
f 874/106/456 875/66/457 876/107/278
f 877/66/457 878/65/164 879/107/278
f 880/143/323 881/144/319 882/145/458
f 883/144/319 884/146/459 885/145/460
f 886/56/461 887/54/144 888/58/462
f 889/54/463 890/132/219 891/58/149
f 892/100/266 893/98/265 894/114/464
f 895/98/263 896/96/465 897/114/464
f 898/96/258 899/94/253 900/108/466
f 901/94/256 902/92/251 903/108/467
f 904/96/468 905/114/469 906/110/296
f 907/114/470 908/112/199 909/110/471
f 910/147/205 911/145/202 912/148/454
f 913/145/458 914/146/315 915/148/454
f 916/143/472 917/145/239 918/144/249
f 919/145/473 920/146/474 921/144/475
f 922/26/103 923/28/95 924/127/476
f 925/28/95 926/128/448 927/127/477
f 928/28/478 929/30/479 930/128/109
f 931/30/479 932/129/449 933/128/448
f 934/97/480 935/99/481 936/98/369
f 937/99/386 938/100/373 939/98/369
f 940/93/420 941/95/482 942/94/483
f 943/95/482 944/96/289 945/94/288
f 946/147/484 947/148/246 948/145/237
f 949/148/246 950/146/485 951/145/237
f 952/72/486 953/57/487 954/71/161
f 955/57/488 956/55/224 957/71/161
f 958/101/411 959/103/408 960/102/333
f 961/103/407 962/104/489 963/102/333
f 964/60/490 965/58/491 966/126/492
f 967/58/462 968/132/219 969/126/493
f 970/103/494 971/77/343 972/104/270
f 973/77/297 974/105/495 975/104/270
f 976/35/448 977/139/254 978/36/108
f 979/139/254 980/37/496 981/36/108
f 982/149/497 983/150/68 984/151/498
f 985/150/68 986/152/499 987/151/500
f 988/153/501 989/154/502 990/155/77
f 991/154/503 992/156/504 993/155/77
f 994/153/505 995/155/108 996/154/506
f 997/155/108 998/156/507 999/154/508
f 1000/149/509 1001/151/106 1002/150/101
f 1003/151/510 1004/152/511 1005/150/101
f 1006/136/443 1007/11/512 1008/157/415
f 1009/11/512 1010/13/33 1011/157/440
f 1012/9/55 1013/24/513 1014/2/27
f 1015/149/514 1016/151/498 1017/158/515
f 1018/154/508 1019/156/516 1020/159/517
f 1021/149/97 1022/158/94 1023/151/104
f 1024/15/37 1025/120/518 1026/121/519
f 1027/55/520 1028/57/148 1029/71/161
f 1030/154/503 1031/159/521 1032/156/85
f 1033/52/137 1034/140/414 1035/51/522
f 1036/5/7 1037/16/50 1038/3/5
f 1039/55/523 1040/57/487 1041/56/524
f 1042/51/525 1043/15/414 1044/17/48
f 1045/1/526 1046/136/440 1047/50/527
f 1048/51/439 1049/17/38 1050/15/37
f 1051/65/528 1052/66/339 1053/63/163
f 1054/67/171 1055/106/430 1056/66/529
f 1057/69/175 1058/74/196 1059/73/198
f 1060/11/512 1061/136/443 1062/10/21
f 1063/48/530 1064/49/451 1065/47/531
f 1066/83/212 1067/116/322 1068/85/213
f 1069/5/17 1070/3/18 1071/16/532
f 1072/4/8 1073/2/533 1074/48/129
f 1075/139/255 1076/124/257 1077/37/112
f 1078/83/247 1079/85/236 1080/116/437
