# WaveFront *.obj file (generated by CINEMA 4D)

mtllib ./Chest.mtl

v -28.64999961853027 0 -22.54999923706055
v -28.64999961853027 24.60000038146973 26.60000038146973
v -28.64999961853027 24.60000038146973 -22.54999923706055
v -28.64999961853027 0 26.60000038146973
v -8.19999980926514 14.35000038146973 -22.54999923706055
v -8.19999980926514 24.60000038146973 -22.54999923706055
v 28.64999961853027 0 26.60000038146973
v 28.64999961853027 24.60000038146973 -22.54999923706055
v 28.64999961853027 24.60000038146973 26.60000038146973
v 28.64999961853027 0 -22.54999923706055
v 8.19999980926514 14.35000038146973 -26.60000038146973
v 8.19999980926514 14.35000038146973 -22.54999923706055
v -8.19999980926514 14.35000038146973 -26.60000038146973
v -22.54999923706055 24.60000038146973 20.5
v 22.54999923706055 24.60000038146973 20.5
v 8.19999980926514 24.60000038146973 -26.60000038146973
v -8.19999980926514 24.60000038146973 -26.60000038146973
v 8.19999980926514 24.60000038146973 -22.54999923706055
v -22.54999923706055 6.15000009536743 -16.39999961853027
v 22.54999923706055 6.15000009536743 20.5
v 22.54999923706055 6.15000009536743 -16.39999961853027
v -22.54999923706055 6.15000009536743 20.5
v -22.54999923706055 24.60000038146973 -16.39999961853027
v 22.54999923706055 24.60000038146973 -16.39999961853027
v 28.64999961853027 23.54999923706055 26.60000038146973
v 28.64999961853027 23.54999923706055 -26.64999961853027
v 28.64999961853027 49.15000152587891 -0.05000000074506
v -28.64999961853027 23.54999923706055 26.60000038146973
v -28.64999961853027 49.15000152587891 -0.05000000074506
v -28.64999961853027 23.54999923706055 -26.64999961853027
v -22.54999923706055 23.54999923706055 -20.5
v -22.54999923706055 43 -0.05000000074506
v -22.54999923706055 23.54999923706055 20.45000076293945
v 22.54999923706055 23.54999923706055 20.45000076293945
v 22.54999923706055 43 -0.05000000074506
v 22.54999923706055 23.54999923706055 -20.5
v 28.64999961853027 45.04999923706055 -16.39999961853027
v 28.64999961853027 36.84999847412109 -26.64999961853027
v -28.64999961853027 36.84999847412109 -26.64999961853027
v -28.64999961853027 45.04999923706055 16.35000038146973
v -28.64999961853027 36.84999847412109 26.60000038146973
v 28.64999961853027 36.84999847412109 26.60000038146973
v -28.64999961853027 45.04999923706055 -16.39999961853027
v 28.64999961853027 45.04999923706055 16.35000038146973
v -22.54999923706055 38.90000152587891 14.30000019073486
v 22.54999923706055 38.90000152587891 14.30000019073486
v -22.54999923706055 34.79999923706055 -20.5
v 22.54999923706055 34.79999923706055 -20.5
v 22.54999923706055 34.79999923706055 20.45000076293945
v -22.54999923706055 34.79999923706055 20.45000076293945
v -22.54999923706055 38.90000152587891 -14.35000038146973
v 22.54999923706055 38.90000152587891 -14.35000038146973
# 52 vertices

vn -1 0 0
vn 0 0 -1
vn 0 0 -1
vn 1 0 0
vn 0 0 1
vn 0 -1 0
vn 0 1 0
vn 1 0 0
vn -1 0 0
vn 0 1 0
vn 0 0.78086268901825 -0.62470269203186
vn 0 0.96996945142746 -0.2432267665863
vn 0 0.78086268901825 0.62470269203186
vn 0 0.97014248371124 0.24253562092781
vn 0 -0.96152275800705 -0.27472525835037
vn 0 -0.83205032348633 0.55470019578934
vn 0 -0.83205032348633 -0.55470019578934
vn 0 -0.96127235889435 0.27560016512871
# 18 normals

vt 0.52755904197693 0.56692916154861 0
vt 0.98425197601318 0.77165353298187 0
vt 0.52755904197693 0.77165353298187 0
vt 0.98425197601318 0.56692916154861 0
vt 0.48818898200989 0.27559053897858 0
vt 0.32283464074135 0.19685041904449 0
vt 0.48818898200989 0.08661425113678 0
vt 0.32283464074135 0.27559053897858 0
vt 0.13385826349258 0.07874023914337 0
vt 0.11023622006178 0.01574802398682 0
vt 0.13385826349258 0.01574802398682 0
vt 0.11023622006178 0.07874023914337 0
vt 0.82677167654037 0.51968502998352 0
vt 0.51968502998352 0.56692916154861 0
vt 0.55118107795715 0.51968502998352 0
vt 0.86614173650742 0.56692916154861 0
vt 0 0.07874023914337 0
vt 0.10236220806837 0.01574802398682 0
vt 0.10236220806837 0.07874023914337 0
vt 0 0.01574802398682 0
vt 0.18110236525536 0.19685041904449 0
vt 0.0157480314374 0.27559053897858 0
vt 0.0157480314374 0.08661425113678 0
vt 0.18110236525536 0.27559053897858 0
vt 0.62992125749588 0.25196850299835 0
vt 0.74015748500824 0.23622047901154 0
vt 0.74015748500824 0.25196850299835 0
vt 0.62992125749588 0.23622047901154 0
vt 0.77165353298187 0.58267718553543 0
vt 0.66929131746292 0.40944886207581 0
vt 0.66141730546951 0.41732287406921 0
vt 0.66141730546951 0.40944886207581 0
vt 0.66929131746292 0.41732287406921 0
vt 0.81889766454697 0.24409449100494 0
vt 0.73228347301483 0.21259844303131 0
vt 0.85826772451401 0.21259844303131 0
vt 0.63779526948929 0.21259844303131 0
vt 0.82677167654037 0.25984251499176 0
vt 0.86614173650742 0.21259844303131 0
vt 0.51968502998352 0.21259844303131 0
vt 0.55118107795715 0.25984251499176 0
vt 0.55118107795715 0.24409449100494 0
vt 0.51181101799011 0.21259844303131 0
vt 0.54330706596375 0.18897640705109 0
vt 0.85826772451401 0.06299221515656 0
vt 0.85826772451401 0.18897640705109 0
vt 0.54330706596375 0.06299221515656 0
vt 0.99212598800659 0.78740155696869 0
vt 0.51968502998352 0.78740155696869 0
vt 0.75590550899506 1 0
vt 0.62992125749588 0.77165353298187 0
vt 0.62992125749588 0.77952754497528 0
vt 0.61417323350906 0.96850395202637 0
vt 0.51968502998352 0.89763778448105 0
vt 0.0236220471561 0.28346455097198 0
vt 0.47244095802307 0.41732287406921 0
vt 0.0236220471561 0.41732287406921 0
vt 0.47244095802307 0.28346455097198 0
vt 0.89763778448105 0.96850395202637 0
vt 0.99212598800659 0.89763778448105 0
vt 0.47244095802307 0.92913389205933 0
vt 0.0236220471561 0.7952755689621 0
vt 0.47244095802307 0.7952755689621 0
vt 0.0236220471561 0.92913389205933 0
vt 0.47244095802307 0.51181101799011 0
vt 0.0236220471561 0.51181101799011 0
vt 0.0236220471561 0.51968502998352 0
vt 0.47244095802307 0.7007874250412 0
vt 0.0236220471561 0.7007874250412 0
vt 0.47244095802307 0.51968502998352 0
vt 0.0236220471561 0.6456692814827 0
vt 0.47244095802307 0.78740155696869 0
vt 0.0236220471561 0.78740155696869 0
vt 0.47244095802307 0.6456692814827 0
vt 0.47244095802307 0.76377952098846 0
vt 0.0236220471561 0.62204724550247 0
vt 0.47244095802307 0.62204724550247 0
vt 0.0236220471561 0.76377952098846 0
vt 0.3464567065239 0.07086622714996 0
vt 0.17322835326195 0.07086622714996 0
vt 0.55118107795715 0.25196850299835 0
vt 0.82677167654037 0.25196850299835 0
vt 0.51181101799011 0.55905514955521 0
vt 0.86614173650742 0.55905514955521 0
vt 0.86614173650742 0.22047245502472 0
vt 0.51181101799011 0.22047245502472 0
# 86 texture coordinates

o Mesh
usemtl material
f 1/1/1 2/2/1 3/3/1
f 1/1/1 4/4/1 2/2/1
f 3/5/2 5/6/2 1/7/2
f 3/5/3 6/8/3 5/6/3
f 7/4/4 8/3/4 9/2/4
f 7/4/4 10/1/4 8/3/4
f 4/4/5 9/2/5 2/2/5
f 4/4/5 7/4/5 9/2/5
f 5/9/6 11/10/6 12/11/6
f 5/9/6 13/12/6 11/10/6
f 14/13/7 9/14/7 15/15/7
f 14/13/7 2/16/7 9/14/7
f 16/17/2 13/18/2 17/19/2
f 16/17/2 11/20/2 13/18/2
f 12/21/3 8/22/3 10/23/3
f 12/21/3 18/24/3 8/22/3
f 1/7/3 12/21/3 10/23/3
f 1/7/3 5/6/3 12/21/3
f 18/25/7 17/26/7 6/27/7
f 18/25/7 16/28/7 17/26/7
f 12/11/8 16/12/8 18/9/8
f 12/11/8 11/10/8 16/12/8
f 6/9/9 13/10/9 5/11/9
f 6/9/9 17/12/9 13/10/9
f 4/29/6 10/29/6 7/29/6
f 4/29/6 1/29/6 10/29/6
f 19/30/7 20/31/7 21/32/7
f 19/30/7 22/33/7 20/31/7
f 23/34/10 6/35/10 3/36/10
f 23/34/10 18/37/10 6/35/10
f 2/16/7 23/38/7 3/39/7
f 2/16/7 14/13/7 23/38/7
f 15/15/7 8/40/7 24/41/7
f 15/15/7 9/14/7 8/40/7
f 18/37/10 24/42/10 8/43/10
f 18/37/7 23/34/7 24/42/7
f 14/44/4 19/45/4 23/46/4
f 14/44/4 22/47/4 19/45/4
f 23/44/5 21/45/5 24/46/5
f 23/44/5 19/47/5 21/45/5
f 24/44/1 20/45/1 15/46/1
f 24/44/1 21/47/1 20/45/1
f 15/44/3 22/45/3 14/46/3
f 15/44/3 20/47/3 22/45/3
f 25/48/4 26/49/4 27/50/4
f 28/48/1 29/50/1 30/49/1
f 31/51/4 32/52/4 33/52/4
f 34/51/1 35/52/1 36/52/1
f 37/53/4 26/49/4 38/54/4
f 37/53/4 27/50/4 26/49/4
f 26/55/3 39/56/3 38/57/3
f 26/55/3 30/58/3 39/56/3
f 40/59/1 28/48/1 41/60/1
f 40/59/1 29/50/1 28/48/1
f 28/61/5 42/62/5 41/63/5
f 28/61/5 25/64/5 42/62/5
f 43/65/11 38/57/11 39/56/11
f 43/65/11 37/66/11 38/57/11
f 37/67/12 29/68/12 27/69/12
f 37/67/12 43/70/12 29/68/12
f 44/71/13 41/72/13 42/73/13
f 44/71/13 40/74/13 41/72/13
f 30/49/1 43/53/1 39/54/1
f 30/49/1 29/50/1 43/53/1
f 40/75/14 27/76/14 29/77/14
f 40/75/14 44/78/14 27/76/14
f 25/48/4 44/59/4 42/60/4
f 25/48/4 27/50/4 44/59/4
f 45/79/15 35/80/15 46/80/15
f 45/79/15 32/79/15 35/80/15
f 26/39/6 31/81/6 30/43/6
f 26/39/6 36/82/6 31/81/6
f 28/83/6 34/13/6 25/84/6
f 28/83/6 33/15/6 34/13/6
f 25/84/6 36/38/6 26/85/6
f 25/84/6 34/13/6 36/38/6
f 30/86/6 33/15/6 28/83/6
f 30/86/6 31/41/6 33/15/6
f 36/79/5 47/80/5 31/80/5
f 36/79/5 48/79/5 47/80/5
f 33/79/3 49/80/3 34/80/3
f 33/79/3 50/79/3 49/80/3
f 48/79/16 51/80/16 47/80/16
f 48/79/16 52/79/16 51/80/16
f 50/79/17 46/80/17 49/80/17
f 50/79/17 45/79/17 46/80/17
f 31/52/4 51/52/4 32/52/4
f 31/52/4 47/51/4 51/52/4
f 52/79/18 32/80/18 51/80/18
f 52/79/18 35/79/18 32/80/18
f 34/51/1 46/51/1 35/52/1
f 34/51/1 49/51/1 46/51/1
f 45/51/4 33/52/4 32/52/4
f 45/51/4 50/52/4 33/52/4
f 52/52/1 36/52/1 35/52/1
f 52/52/1 48/52/1 36/52/1

