mtllib Horseshoe Island.mtl
o mesh-4_no_texture_mirroring
v -21987.484375 886.662598 477.497253
v -22016.142578 886.662598 468.556824
v -21994.072266 886.662598 448.207458
v -22022.732422 886.662598 439.268555
v -22000.660156 886.662598 418.917755
v -21972.001953 886.662598 427.858215
v -21965.412109 886.662598 457.146423
v -17999.671875 406.146179 145.150269
v -18025.437500 406.146179 128.930252
v -17998.507812 406.146179 114.726303
v -18024.277344 406.146179 98.507355
v -17997.345703 406.146179 84.302338
v -17971.582031 406.146179 100.522354
v -17972.742188 406.146179 130.945175
v -20775.197266 697.419922 -1756.104614
v -20800.359375 697.419922 -1771.945068
v -20774.062500 697.419922 -1785.817017
v -20799.226562 697.419922 -1801.656494
v -20772.925781 697.419922 -1815.529541
v -20747.763672 697.419922 -1799.688843
v -20748.898438 697.419922 -1769.977417
v -22016.142578 886.662598 468.556824
v -22060.285156 886.662598 509.256897
v -22022.732422 886.662598 439.268555
v -22080.048828 886.662598 421.389038
v -22016.142578 886.662598 468.556824
v -21987.484375 886.662598 477.497253
v -22060.285156 886.662598 509.256897
v -21974.308594 886.662598 536.075317
v -21965.412109 886.662598 457.146423
v -21908.095703 886.662598 475.025879
v -21987.484375 886.662598 477.497253
v -21974.308594 886.662598 536.075317
v -21972.001953 886.662598 427.858215
v -21927.859375 886.662537 387.158081
v -21965.412109 886.662598 457.146423
v -21908.095703 886.662598 475.025879
v -21972.001953 886.662598 427.858215
v -22000.660156 886.662598 418.917755
v -21927.859375 886.662537 387.158081
v -22013.835938 886.662537 360.339752
v -22022.732422 886.662598 439.268555
v -22080.048828 886.662598 421.389038
v -22000.660156 886.662598 418.917755
v -22013.835938 886.662537 360.339752
v -18025.437500 406.146179 128.930252
v -18079.296875 406.146179 157.339218
v -18024.277344 406.146179 98.507355
v -18075.808594 406.146179 66.068542
v -18025.437500 406.146179 128.930252
v -17999.671875 406.146179 145.150269
v -18079.296875 406.146179 157.339218
v -18002.000000 406.146210 205.997131
v -17972.742188 406.146179 130.945175
v -17921.210938 406.146179 163.384140
v -17999.671875 406.146179 145.150269
v -18002.000000 406.146210 205.997131
v -17971.582031 406.146179 100.522354
v -17917.722656 406.146179 72.113235
v -17972.742188 406.146179 130.945175
v -17921.210938 406.146179 163.384140
v -17971.582031 406.146179 100.522354
v -17997.345703 406.146179 84.302338
v -17917.722656 406.146179 72.113235
v -17995.021484 406.146179 23.455551
v -18024.277344 406.146179 98.507355
v -18075.808594 406.146179 66.068542
v -17997.345703 406.146179 84.302338
v -17995.021484 406.146179 23.455551
v -20800.359375 697.419922 -1771.945068
v -20852.960938 697.419922 -1744.200562
v -20799.226562 697.419922 -1801.656494
v -20849.550781 697.419922 -1833.336792
v -20800.359375 697.419922 -1771.945068
v -20775.197266 697.419922 -1756.104614
v -20852.960938 697.419922 -1744.200562
v -20777.470703 697.419922 -1696.680786
v -20748.898438 697.419922 -1769.977417
v -20698.570312 697.419922 -1738.297241
v -20775.197266 697.419922 -1756.104614
v -20777.470703 697.419922 -1696.680786
v -20747.763672 697.419922 -1799.688843
v -20695.164062 697.419922 -1827.433472
v -20748.898438 697.419922 -1769.977417
v -20698.570312 697.419922 -1738.297241
v -20747.763672 697.419922 -1799.688843
v -20772.925781 697.419922 -1815.529541
v -20695.164062 697.419922 -1827.433472
v -20770.654297 697.419922 -1874.953125
v -20799.226562 697.419922 -1801.656494
v -20849.550781 697.419922 -1833.336792
v -20772.925781 697.419922 -1815.529541
v -20770.654297 697.419922 -1874.953125
vt 0.121094 0.845703
vt 0.003906 0.744141
vt 0.107422 0.703125
vt 0.000000 0.896484
vt 0.107422 0.986328
vt 0.226562 0.929688
vt 0.222656 0.769531
vt 0.121094 0.845703
vt 0.003906 0.744141
vt 0.107422 0.703125
vt 0.000000 0.896484
vt 0.107422 0.986328
vt 0.226562 0.929688
vt 0.222656 0.769531
vt 0.121094 0.845703
vt 0.003906 0.744141
vt 0.107422 0.703125
vt 0.000000 0.896484
vt 0.107422 0.986328
vt 0.226562 0.929688
vt 0.222656 0.769531
vt 0.376953 0.875000
vt 0.992188 0.474609
vt 0.617188 0.875000
vt 0.005859 0.474609
vt 0.005859 0.474609
vt 0.617188 0.875000
vt 0.376953 0.875000
vt 0.992188 0.474609
vt 0.376953 0.875000
vt 0.992188 0.474609
vt 0.617188 0.875000
vt 0.005859 0.474609
vt 0.376953 0.875000
vt 0.992188 0.474609
vt 0.617188 0.875000
vt 0.005859 0.474609
vt 0.005859 0.474609
vt 0.617188 0.875000
vt 0.376953 0.875000
vt 0.992188 0.474609
vt 0.376953 0.875000
vt 0.992188 0.474609
vt 0.617188 0.875000
vt 0.005859 0.474609
vt 0.376953 0.875000
vt 0.992188 0.474609
vt 0.617188 0.875000
vt 0.005859 0.474609
vt 0.005859 0.474609
vt 0.617188 0.875000
vt 0.376953 0.875000
vt 0.992188 0.474609
vt 0.376953 0.875000
vt 0.992188 0.474609
vt 0.617188 0.875000
vt 0.005859 0.474609
vt 0.376953 0.875000
vt 0.992188 0.474609
vt 0.617188 0.875000
vt 0.005859 0.474609
vt 0.005859 0.474609
vt 0.617188 0.875000
vt 0.376953 0.875000
vt 0.992188 0.474609
vt 0.376953 0.875000
vt 0.992188 0.474609
vt 0.617188 0.875000
vt 0.005859 0.474609
vt 0.376953 0.875000
vt 0.992188 0.474609
vt 0.617188 0.875000
vt 0.005859 0.474609
vt 0.005859 0.474609
vt 0.617188 0.875000
vt 0.376953 0.875000
vt 0.992188 0.474609
vt 0.376953 0.875000
vt 0.992188 0.474609
vt 0.617188 0.875000
vt 0.005859 0.474609
vt 0.376953 0.875000
vt 0.992188 0.474609
vt 0.617188 0.875000
vt 0.005859 0.474609
vt 0.005859 0.474609
vt 0.617188 0.875000
vt 0.376953 0.875000
vt 0.992188 0.474609
vt 0.376953 0.875000
vt 0.992188 0.474609
vt 0.617188 0.875000
vt 0.005859 0.474609
vn 0.0000 1.0000 0.0000
usemtl Q_ami_v
s off
f 3/1/1 2/2/1 1/3/1
f 3/1/1 4/4/1 2/2/1
f 5/5/1 4/4/1 3/1/1
f 3/1/1 6/6/1 5/5/1
f 3/1/1 7/7/1 6/6/1
f 1/3/1 7/7/1 3/1/1
f 10/8/1 9/9/1 8/10/1
f 10/8/1 11/11/1 9/9/1
f 12/12/1 11/11/1 10/8/1
f 10/8/1 13/13/1 12/12/1
f 10/8/1 14/14/1 13/13/1
f 8/10/1 14/14/1 10/8/1
f 17/15/1 16/16/1 15/17/1
f 17/15/1 18/18/1 16/16/1
f 19/19/1 18/18/1 17/15/1
f 17/15/1 20/20/1 19/19/1
f 17/15/1 21/21/1 20/20/1
f 15/17/1 21/21/1 17/15/1
f 24/22/1 23/23/1 22/24/1
f 24/22/1 25/25/1 23/23/1
f 28/26/1 27/27/1 26/28/1
f 28/26/1 29/29/1 27/27/1
f 32/30/1 31/31/1 30/32/1
f 32/30/1 33/33/1 31/31/1
f 36/34/1 35/35/1 34/36/1
f 36/34/1 37/37/1 35/35/1
f 40/38/1 39/39/1 38/40/1
f 40/38/1 41/41/1 39/39/1
f 44/42/1 43/43/1 42/44/1
f 44/42/1 45/45/1 43/43/1
f 48/46/1 47/47/1 46/48/1
f 48/46/1 49/49/1 47/47/1
f 52/50/1 51/51/1 50/52/1
f 52/50/1 53/53/1 51/51/1
f 56/54/1 55/55/1 54/56/1
f 56/54/1 57/57/1 55/55/1
f 60/58/1 59/59/1 58/60/1
f 60/58/1 61/61/1 59/59/1
f 64/62/1 63/63/1 62/64/1
f 64/62/1 65/65/1 63/63/1
f 68/66/1 67/67/1 66/68/1
f 68/66/1 69/69/1 67/67/1
f 72/70/1 71/71/1 70/72/1
f 72/70/1 73/73/1 71/71/1
f 76/74/1 75/75/1 74/76/1
f 76/74/1 77/77/1 75/75/1
f 80/78/1 79/79/1 78/80/1
f 80/78/1 81/81/1 79/79/1
f 84/82/1 83/83/1 82/84/1
f 84/82/1 85/85/1 83/83/1
f 88/86/1 87/87/1 86/88/1
f 88/86/1 89/89/1 87/87/1
f 92/90/1 91/91/1 90/92/1
f 92/90/1 93/93/1 91/91/1
o mesh-4
v -21987.484375 886.662598 477.497253
v -22016.142578 886.662598 468.556824
v -21994.072266 886.662598 448.207458
v -22022.732422 886.662598 439.268555
v -22000.660156 886.662598 418.917755
v -21972.001953 886.662598 427.858215
v -21965.412109 886.662598 457.146423
v -17999.671875 406.146179 145.150269
v -18025.437500 406.146179 128.930252
v -17998.507812 406.146179 114.726303
v -18024.277344 406.146179 98.507355
v -17997.345703 406.146179 84.302338
v -17971.582031 406.146179 100.522354
v -17972.742188 406.146179 130.945175
v -20775.197266 697.419922 -1756.104614
v -20800.359375 697.419922 -1771.945068
v -20774.062500 697.419922 -1785.817017
v -20799.226562 697.419922 -1801.656494
v -20772.925781 697.419922 -1815.529541
v -20747.763672 697.419922 -1799.688843
v -20748.898438 697.419922 -1769.977417
v -22016.142578 886.662598 468.556824
v -22060.285156 886.662598 509.256897
v -22022.732422 886.662598 439.268555
v -22080.048828 886.662598 421.389038
v -22016.142578 886.662598 468.556824
v -21987.484375 886.662598 477.497253
v -22060.285156 886.662598 509.256897
v -21974.308594 886.662598 536.075317
v -21965.412109 886.662598 457.146423
v -21908.095703 886.662598 475.025879
v -21987.484375 886.662598 477.497253
v -21974.308594 886.662598 536.075317
v -21972.001953 886.662598 427.858215
v -21927.859375 886.662537 387.158081
v -21965.412109 886.662598 457.146423
v -21908.095703 886.662598 475.025879
v -21972.001953 886.662598 427.858215
v -22000.660156 886.662598 418.917755
v -21927.859375 886.662537 387.158081
v -22013.835938 886.662537 360.339752
v -22022.732422 886.662598 439.268555
v -22080.048828 886.662598 421.389038
v -22000.660156 886.662598 418.917755
v -22013.835938 886.662537 360.339752
v -18025.437500 406.146179 128.930252
v -18079.296875 406.146179 157.339218
v -18024.277344 406.146179 98.507355
v -18075.808594 406.146179 66.068542
v -18025.437500 406.146179 128.930252
v -17999.671875 406.146179 145.150269
v -18079.296875 406.146179 157.339218
v -18002.000000 406.146210 205.997131
v -17972.742188 406.146179 130.945175
v -17921.210938 406.146179 163.384140
v -17999.671875 406.146179 145.150269
v -18002.000000 406.146210 205.997131
v -17971.582031 406.146179 100.522354
v -17917.722656 406.146179 72.113235
v -17972.742188 406.146179 130.945175
v -17921.210938 406.146179 163.384140
v -17971.582031 406.146179 100.522354
v -17997.345703 406.146179 84.302338
v -17917.722656 406.146179 72.113235
v -17995.021484 406.146179 23.455551
v -18024.277344 406.146179 98.507355
v -18075.808594 406.146179 66.068542
v -17997.345703 406.146179 84.302338
v -17995.021484 406.146179 23.455551
v -20800.359375 697.419922 -1771.945068
v -20852.960938 697.419922 -1744.200562
v -20799.226562 697.419922 -1801.656494
v -20849.550781 697.419922 -1833.336792
v -20800.359375 697.419922 -1771.945068
v -20775.197266 697.419922 -1756.104614
v -20852.960938 697.419922 -1744.200562
v -20777.470703 697.419922 -1696.680786
v -20748.898438 697.419922 -1769.977417
v -20698.570312 697.419922 -1738.297241
v -20775.197266 697.419922 -1756.104614
v -20777.470703 697.419922 -1696.680786
v -20747.763672 697.419922 -1799.688843
v -20695.164062 697.419922 -1827.433472
v -20748.898438 697.419922 -1769.977417
v -20698.570312 697.419922 -1738.297241
v -20747.763672 697.419922 -1799.688843
v -20772.925781 697.419922 -1815.529541
v -20695.164062 697.419922 -1827.433472
v -20770.654297 697.419922 -1874.953125
v -20799.226562 697.419922 -1801.656494
v -20849.550781 697.419922 -1833.336792
v -20772.925781 697.419922 -1815.529541
v -20770.654297 697.419922 -1874.953125
vt 0.242188 0.691406
vt 0.007812 0.488281
vt 0.214844 0.406250
vt 0.000000 0.792969
vt 0.214844 0.972656
vt 0.453125 0.859375
vt 0.445312 0.539062
vt 0.242188 0.691406
vt 0.007812 0.488281
vt 0.214844 0.406250
vt 0.000000 0.792969
vt 0.214844 0.972656
vt 0.453125 0.859375
vt 0.445312 0.539062
vt 0.242188 0.691406
vt 0.007812 0.488281
vt 0.214844 0.406250
vt 0.000000 0.792969
vt 0.214844 0.972656
vt 0.453125 0.859375
vt 0.445312 0.539062
vt 0.753906 0.750000
vt 1.984375 -0.050781
vt 1.234375 0.750000
vt 0.011719 -0.050781
vt 0.011719 -0.050781
vt 1.234375 0.750000
vt 0.753906 0.750000
vt 1.984375 -0.050781
vt 0.753906 0.750000
vt 1.984375 -0.050781
vt 1.234375 0.750000
vt 0.011719 -0.050781
vt 0.753906 0.750000
vt 1.984375 -0.050781
vt 1.234375 0.750000
vt 0.011719 -0.050781
vt 0.011719 -0.050781
vt 1.234375 0.750000
vt 0.753906 0.750000
vt 1.984375 -0.050781
vt 0.753906 0.750000
vt 1.984375 -0.050781
vt 1.234375 0.750000
vt 0.011719 -0.050781
vt 0.753906 0.750000
vt 1.984375 -0.050781
vt 1.234375 0.750000
vt 0.011719 -0.050781
vt 0.011719 -0.050781
vt 1.234375 0.750000
vt 0.753906 0.750000
vt 1.984375 -0.050781
vt 0.753906 0.750000
vt 1.984375 -0.050781
vt 1.234375 0.750000
vt 0.011719 -0.050781
vt 0.753906 0.750000
vt 1.984375 -0.050781
vt 1.234375 0.750000
vt 0.011719 -0.050781
vt 0.011719 -0.050781
vt 1.234375 0.750000
vt 0.753906 0.750000
vt 1.984375 -0.050781
vt 0.753906 0.750000
vt 1.984375 -0.050781
vt 1.234375 0.750000
vt 0.011719 -0.050781
vt 0.753906 0.750000
vt 1.984375 -0.050781
vt 1.234375 0.750000
vt 0.011719 -0.050781
vt 0.011719 -0.050781
vt 1.234375 0.750000
vt 0.753906 0.750000
vt 1.984375 -0.050781
vt 0.753906 0.750000
vt 1.984375 -0.050781
vt 1.234375 0.750000
vt 0.011719 -0.050781
vt 0.753906 0.750000
vt 1.984375 -0.050781
vt 1.234375 0.750000
vt 0.011719 -0.050781
vt 0.011719 -0.050781
vt 1.234375 0.750000
vt 0.753906 0.750000
vt 1.984375 -0.050781
vt 0.753906 0.750000
vt 1.984375 -0.050781
vt 1.234375 0.750000
vt 0.011719 -0.050781
vn 0.0000 1.0000 0.0000
usemtl Q_ami_v_Txq_ami_mahou.png
s off
f 96/94/2 95/95/2 94/96/2
f 96/94/2 97/97/2 95/95/2
f 98/98/2 97/97/2 96/94/2
f 96/94/2 99/99/2 98/98/2
f 96/94/2 100/100/2 99/99/2
f 94/96/2 100/100/2 96/94/2
f 103/101/2 102/102/2 101/103/2
f 103/101/2 104/104/2 102/102/2
f 105/105/2 104/104/2 103/101/2
f 103/101/2 106/106/2 105/105/2
f 103/101/2 107/107/2 106/106/2
f 101/103/2 107/107/2 103/101/2
f 110/108/2 109/109/2 108/110/2
f 110/108/2 111/111/2 109/109/2
f 112/112/2 111/111/2 110/108/2
f 110/108/2 113/113/2 112/112/2
f 110/108/2 114/114/2 113/113/2
f 108/110/2 114/114/2 110/108/2
f 117/115/2 116/116/2 115/117/2
f 117/115/2 118/118/2 116/116/2
f 121/119/2 120/120/2 119/121/2
f 121/119/2 122/122/2 120/120/2
f 125/123/2 124/124/2 123/125/2
f 125/123/2 126/126/2 124/124/2
f 129/127/2 128/128/2 127/129/2
f 129/127/2 130/130/2 128/128/2
f 133/131/2 132/132/2 131/133/2
f 133/131/2 134/134/2 132/132/2
f 137/135/2 136/136/2 135/137/2
f 137/135/2 138/138/2 136/136/2
f 141/139/2 140/140/2 139/141/2
f 141/139/2 142/142/2 140/140/2
f 145/143/2 144/144/2 143/145/2
f 145/143/2 146/146/2 144/144/2
f 149/147/2 148/148/2 147/149/2
f 149/147/2 150/150/2 148/148/2
f 153/151/2 152/152/2 151/153/2
f 153/151/2 154/154/2 152/152/2
f 157/155/2 156/156/2 155/157/2
f 157/155/2 158/158/2 156/156/2
f 161/159/2 160/160/2 159/161/2
f 161/159/2 162/162/2 160/160/2
f 165/163/2 164/164/2 163/165/2
f 165/163/2 166/166/2 164/164/2
f 169/167/2 168/168/2 167/169/2
f 169/167/2 170/170/2 168/168/2
f 173/171/2 172/172/2 171/173/2
f 173/171/2 174/174/2 172/172/2
f 177/175/2 176/176/2 175/177/2
f 177/175/2 178/178/2 176/176/2
f 181/179/2 180/180/2 179/181/2
f 181/179/2 182/182/2 180/180/2
f 185/183/2 184/184/2 183/185/2
f 185/183/2 186/186/2 184/184/2
o mesh-3
v -18967.121094 0.000149 1969.324341
v -18849.773438 200.000122 1709.730225
v -18342.027344 0.000164 2177.357178
v -18360.771484 200.000122 1683.435059
v -18973.615234 -1199.999878 2310.006836
v -18973.615234 -199.999832 2310.006836
v -18207.322266 -1199.999756 2563.296875
v -18207.322266 -199.999802 2563.296875
v -18967.121094 0.000149 1969.324341
v -18342.027344 0.000164 2177.357178
v -18973.615234 -199.999832 2310.006836
v -18207.322266 -199.999802 2563.296875
vt 0.000000 1.000000
vt 1.000000 0.000000
vt 1.000000 1.000000
vt 0.000000 0.000000
vt 0.000000 1.000000
vt 1.000000 0.000000
vt 1.000000 1.000000
vt 0.000000 0.000000
vt 1.000000 1.000000
vt 0.000000 0.000000
vt 1.000000 0.000000
vt 0.000000 1.000000
vn -0.1821 0.8170 0.5471
vn 0.0201 0.9270 0.3746
vn -0.3138 0.0000 0.9495
vn -0.1654 0.8519 0.4969
vn -0.1648 0.8511 0.4985
usemtl Q_aruki_v
s off
f 189/187/3 188/188/3 187/189/3
f 189/187/4 190/190/4 188/188/4
f 193/191/5 192/192/5 191/193/5
f 193/191/5 194/194/5 192/192/5
f 197/195/6 196/196/6 195/197/6
f 197/195/7 198/198/7 196/196/7
o mesh-2
v -19796.208984 858.753113 507.987671
v -19800.388672 1023.118042 515.541016
v -19876.466797 858.589478 804.415710
v -19876.466797 1023.118042 804.415710
v -19733.486328 863.652588 1038.151489
v -19733.484375 1023.118042 1038.151489
v -19521.363281 871.723450 1120.068604
v -19521.363281 1023.118042 1120.068604
v -18107.632812 450.180695 -1268.980835
v -18107.632812 560.493896 -1268.980835
v -18687.177734 575.104492 -1514.913452
v -18687.177734 666.399658 -1514.913452
v -19266.718750 519.383911 -1760.846069
v -19266.718750 666.399658 -1760.846069
v -20201.962891 593.039368 -2494.547119
v -20201.962891 790.719177 -2494.547363
v -18181.175781 560.493958 -1191.603027
v -18107.632812 560.493896 -1268.980835
v -17593.880859 488.969971 -314.903320
v -17435.666016 488.969971 -328.284241
v -17620.128906 488.965210 766.601807
v -17435.666016 377.278137 -328.284241
v -17620.128906 366.723938 766.601868
v -21145.347656 790.719299 -1161.452759
v -21104.597656 790.719299 -1060.858032
v -21557.632812 838.871277 -561.394287
v -21466.941406 838.871277 -518.859009
v -21842.998047 967.161987 208.949066
v -21466.941406 743.178345 -518.859009
v -21842.998047 753.742981 208.949081
v -18534.210938 560.493896 -994.185120
v -18630.316406 560.493958 -935.981750
v -18985.978516 666.399719 -1182.033325
v -19021.207031 666.399719 -1129.247070
v -19412.095703 666.399658 -1322.512817
v -19412.095703 556.505249 -1322.512817
v -20090.937500 614.938721 -1393.701416
v -20647.968750 876.269775 1769.829590
v -20647.968750 1041.620605 1769.829590
v -20881.898438 899.054749 1162.013306
v -20881.898438 1041.620605 1162.013184
v -21639.064453 967.162048 974.309631
v -20961.287109 1041.620605 1232.643677
v -21697.070312 967.162048 1032.637695
v -18181.175781 560.493958 -1191.603027
v -18738.585938 666.399658 -1424.262329
v -19295.998047 666.399658 -1656.921509
v -20282.345703 790.719177 -2386.352295
v -19393.218750 666.399658 -1398.130371
v -20090.937500 790.719238 -1393.701416
v -20105.035156 790.719299 -1503.785034
v -20592.156250 790.719299 -1211.677246
v -21942.187500 842.368774 1214.386963
v -22237.812500 791.649780 286.483398
v -21942.187500 967.162109 1214.386963
v -22237.812500 967.161987 286.483337
v -21876.298828 967.162048 1167.045654
v -22083.843750 967.162048 517.621094
v -17736.990234 488.965210 726.302368
v -17810.556641 350.000092 1362.641113
v -17938.785156 350.000092 1340.646240
v -18360.771484 350.000122 1683.435059
v -18405.820312 350.000122 1570.477295
v -18726.966797 350.000122 1604.324951
v -22119.169922 782.962524 -758.548401
v -22119.169922 838.871277 -758.548401
v -22163.908203 967.161987 267.099884
v -22023.804688 838.871460 -721.661316
v -21876.298828 967.162048 1167.045654
v -21552.468750 1041.617432 1643.894165
v -21942.187500 967.162109 1214.386963
v -21616.242188 1041.620605 1725.890015
v -21942.187500 842.368774 1214.386963
v -21616.242188 927.528564 1725.890015
v -18730.998047 350.000092 1141.104980
v -18453.880859 488.965179 400.762543
v -18357.960938 488.965179 440.681122
v -18358.851562 488.969971 -210.098679
v -18228.587891 488.969971 -226.774933
v -18534.210938 560.493896 -994.185120
v -21214.048828 1041.620605 1883.231323
v -21242.294922 1041.620605 1990.232666
v -21242.294922 923.335327 1990.232666
v -20769.839844 1041.620605 1730.364258
v -20647.968750 1041.620605 1769.829590
v -20647.968750 876.269775 1769.829590
v -21589.412109 593.039368 -2175.225342
v -20916.236328 593.039368 -2495.398193
v -21589.412109 790.719177 -2175.225342
v -20916.236328 790.719177 -2495.398193
v -21490.021484 790.719177 -2074.952148
v -20847.824219 790.719177 -2387.561768
v -19336.724609 862.029419 987.358337
v -19521.363281 871.723450 1120.068604
v -19336.724609 1023.118042 987.358337
v -19521.363281 1023.118042 1120.068604
v -19530.767578 1023.118042 1037.554565
v -21697.070312 967.162048 1032.637695
v -21905.957031 967.161987 227.292923
v -21639.064453 967.162048 974.309631
v -18849.773438 350.000122 1709.730225
v -18849.773438 200.000122 1709.730225
v -18897.000000 350.000092 1120.768555
v -18897.000000 217.132584 1120.768555
v -18453.878906 301.233459 400.762543
v -19506.951172 1023.118042 543.603088
v -19734.068359 1023.118042 569.409790
v -19502.892578 1023.118042 476.864746
v -19800.388672 1023.118042 515.541016
v -19796.208984 858.753113 507.987671
v -19672.089844 1023.118042 978.146057
v -19782.486328 1023.118042 787.592102
v -17620.128906 488.965210 766.601807
v -17620.128906 366.723938 766.601868
v -17810.556641 262.500092 1362.641113
v -18849.773438 200.000122 1709.730225
v -18360.771484 200.000122 1683.435059
v -18358.851562 331.865326 -210.098679
v -22014.318359 945.910461 361.462769
v -22025.818359 967.160034 326.963287
v -21929.458984 945.910461 387.222931
v -21908.816406 967.160034 364.750305
v -17993.126953 488.968170 -26.708378
v -17878.292969 488.968170 21.298349
v -17993.791016 461.572021 25.516661
v -17918.562500 461.572021 72.476929
v -17878.292969 488.968170 21.298349
v -17872.925781 488.967590 200.799515
v -17918.562500 461.572021 72.476929
v -17921.617188 461.572021 161.107468
v -22083.843750 967.162048 517.621094
v -22115.945312 967.162048 417.171936
v -22058.937500 945.910461 508.442627
v -22079.056641 945.910522 422.072083
v -22079.056641 945.910522 422.072083
v -22115.945312 967.162048 417.171936
v -22014.318359 945.910461 361.462769
v -22025.818359 967.160034 326.963287
v -17872.925781 488.967590 200.799515
v -18004.376953 488.967010 259.189117
v -17921.617188 461.572021 161.107468
v -17999.898438 461.572052 202.777145
v -17999.898438 461.572052 202.777145
v -18004.376953 488.967010 259.189117
v -18075.128906 461.572021 155.816864
v -18116.906250 488.967010 202.202484
v -21909.335938 945.910522 473.593506
v -21872.144531 967.160095 473.593506
v -21974.080078 945.910522 534.203918
v -21965.548828 967.159973 571.512024
v -18072.074219 461.572021 67.186531
v -18075.128906 461.572021 155.816864
v -18113.705078 488.967590 24.315092
v -18116.906250 488.967010 202.202484
v -17993.126953 488.968170 -26.708378
v -17993.791016 461.572021 25.516661
v -18113.705078 488.967590 24.315092
v -18072.074219 461.572021 67.186531
v -21929.458984 945.910461 387.222931
v -21908.816406 967.160034 364.750305
v -21909.335938 945.910522 473.593506
v -21872.144531 967.160095 473.593506
v -19292.751953 864.313354 578.464661
v -19292.751953 1023.118042 578.464722
v -19372.582031 1023.118042 624.451721
v -19408.003906 1023.118042 951.997131
v -18726.966797 350.000122 1604.324951
v -19372.582031 1023.118042 624.451721
v -19292.751953 1023.118042 578.464722
v -19292.751953 864.313354 578.464661
v -19502.892578 853.119202 476.864777
v -18849.773438 350.000122 1709.730225
v -18630.316406 560.493958 -935.981750
v -18630.316406 438.068268 -935.981750
v -20771.070312 775.375854 -1874.771118
v -20849.351562 775.375854 -1833.101318
v -20785.490234 790.719238 -1931.970825
v -20901.576172 790.719238 -1868.415039
v -20695.839844 775.375916 -1827.810791
v -20771.070312 775.375854 -1874.771118
v -20655.808594 790.719238 -1853.875366
v -20785.490234 790.719238 -1931.970825
v -20695.839844 775.375916 -1827.810791
v -20655.808594 790.719238 -1853.875366
v -20698.894531 775.375854 -1739.180298
v -20645.707031 790.719238 -1707.674561
v -20777.175781 775.375916 -1697.510498
v -20698.894531 775.375854 -1739.180298
v -20774.734375 790.719238 -1636.032227
v -20645.707031 790.719238 -1707.674561
v -20852.408203 775.375916 -1744.470947
v -20777.175781 775.375916 -1697.510498
v -20898.865234 790.719238 -1716.316406
v -20774.734375 790.719238 -1636.032227
v -20852.408203 775.375916 -1744.470947
v -20898.865234 790.719238 -1716.316406
v -20849.351562 775.375854 -1833.101318
v -20901.576172 790.719238 -1868.415039
v -19530.767578 1023.118042 1037.554565
v -21104.597656 598.195862 -1060.858032
v -20564.734375 648.441345 -1106.338257
v -20564.734375 790.719299 -1106.338257
v -18630.316406 438.068268 -935.981750
v -19021.207031 530.558228 -1129.247070
v -18107.632812 450.180695 -1268.980835
v -20564.734375 790.719299 -1106.338257
v -20564.734375 648.441345 -1106.338257
v -20592.156250 790.719299 -1211.677246
v -21974.080078 945.910522 534.203918
v -21965.548828 967.159973 571.512024
v -22058.937500 945.910461 508.442627
v -22083.843750 967.162048 517.621094
v -21589.412109 790.719177 -2175.225342
v -21589.412109 593.039368 -2175.225342
v -21490.021484 790.719177 -2074.952148
v -22115.945312 967.162048 417.171936
v -21104.597656 598.195862 -1060.858032
v -20201.962891 593.039368 -2494.547119
v -20201.962891 790.719177 -2494.547363
v -20282.345703 790.719177 -2386.352295
v -20769.839844 1041.620605 1730.364258
v -19734.068359 1023.118042 569.409790
v -17736.990234 488.965210 726.302368
v -21639.064453 754.920776 974.309631
v -21639.064453 754.920776 974.309631
vt 0.593750 0.023438
vt 0.000000 0.750000
vt 0.000000 0.023438
vt 0.593750 0.750000
vt 1.394531 0.023438
vt 1.394531 0.750000
vt 1.972656 0.023438
vt 1.972656 0.750000
vt 1.000000 0.019531
vt 0.000000 0.750000
vt 0.000000 0.019531
vt 1.000000 0.750000
vt 2.000000 0.019531
vt 2.000000 0.750000
vt 3.000000 0.019531
vt 3.000000 0.750000
vt 1.000000 0.988281
vt 2.000000 0.750000
vt 2.000000 0.988281
vt 1.000000 0.750000
vt 0.000000 0.750000
vt 1.000000 0.039062
vt 0.000000 0.039062
vt 0.000000 0.988281
vt 1.000000 0.750000
vt 1.000000 0.988281
vt 0.000000 0.750000
vt -1.000000 0.750000
vt 0.000000 0.019531
vt -1.000000 0.019531
vt 1.000000 0.988281
vt 2.000000 0.750000
vt 2.000000 0.988281
vt 1.000000 0.750000
vt 0.000000 0.750000
vt 0.000000 0.000000
vt -1.000000 0.000000
vt 1.000000 0.023438
vt 0.000000 0.750000
vt 0.000000 0.023438
vt 1.000000 0.750000
vt 2.000000 0.750000
vt 1.015625 0.988281
vt 2.000000 0.988281
vt 0.000000 0.988281
vt 1.000000 0.988281
vt 2.000000 0.988281
vt 3.000000 0.988281
vt 0.000000 0.988281
vt -1.000000 0.750000
vt -1.000000 0.988281
vt -2.000000 0.988281
vt 4.011719 0.750000
vt 3.011719 0.019531
vt 4.011719 0.019531
vt 3.011719 0.750000
vt 4.011719 0.988281
vt 3.292969 0.988281
vt 1.863281 0.988281
vt 2.000000 0.726562
vt 3.000000 0.988281
vt 1.000000 0.726562
vt 1.000000 0.988281
vt 0.191406 0.988281
vt 2.011719 0.113281
vt 2.011719 0.750000
vt 3.011719 0.988281
vt 2.011719 0.988281
vt 0.000000 0.750000
vt 1.000000 0.988281
vt 0.000000 0.988281
vt 1.000000 0.750000
vt 0.000000 0.019531
vt 1.000000 0.019531
vt 2.000000 0.988281
vt 2.000000 0.750000
vt 2.988281 0.988281
vt 1.000000 0.750000
vt 1.000000 0.988281
vt 0.000000 0.988281
vt 2.066406 0.988281
vt 2.000000 0.750000
vt 2.000000 0.019531
vt 2.878906 0.988281
vt 3.000000 0.750000
vt 3.000000 0.019531
vt 2.000000 0.750000
vt 1.000000 0.011719
vt 2.000000 0.011719
vt 1.000000 0.750000
vt 2.000000 0.988281
vt 1.000000 0.988281
vt 0.500000 0.750000
vt 0.000000 0.023438
vt 0.500000 0.023438
vt 0.000000 0.750000
vt 0.054688 0.988281
vt -1.949219 0.750000
vt -1.000000 0.988281
vt -2.000000 0.988281
vt 3.000000 0.750000
vt 4.000000 0.023438
vt 4.000000 0.750000
vt 3.000000 0.023438
vt 2.000000 0.023438
vt 0.519531 0.750000
vt 0.964844 0.988281
vt 0.519531 0.988281
vt 1.000000 0.750000
vt 1.000000 0.015625
vt 0.585938 0.988281
vt 1.394531 0.988281
vt 3.000000 0.726562
vt 3.000000 0.015625
vt 2.000000 0.015625
vt 1.000000 0.015625
vt 0.000000 0.015625
vt 1.000000 0.023438
vt 1.023438 0.750000
vt 0.144531 0.984375
vt 0.312500 0.750000
vt 1.144531 0.984375
vt 0.339844 0.750000
vt 0.937500 0.976562
vt 0.191406 0.976562
vt 0.800781 0.750000
vt 0.339844 0.750000
vt 0.937500 0.976562
vt 0.191406 0.976562
vt 0.800781 0.750000
vt 0.312500 0.750000
vt 1.144531 0.984375
vt 0.144531 0.984375
vt 1.023438 0.750000
vt 1.023438 0.750000
vt 0.144531 0.984375
vt 0.312500 0.750000
vt 1.144531 0.984375
vt 0.339844 0.750000
vt 0.937500 0.976562
vt 0.191406 0.976562
vt 0.800781 0.750000
vt 0.800781 0.750000
vt 0.191406 0.976562
vt 0.339844 0.750000
vt 0.937500 0.976562
vt 1.023438 0.750000
vt 0.144531 0.984375
vt 0.312500 0.750000
vt 1.144531 0.984375
vt 0.937500 0.976562
vt 0.339844 0.750000
vt 0.800781 0.750000
vt 0.191406 0.976562
vt 0.191406 0.976562
vt 0.800781 0.750000
vt 0.937500 0.976562
vt 0.339844 0.750000
vt 1.023438 0.750000
vt 0.144531 0.984375
vt 0.312500 0.750000
vt 1.144531 0.984375
vt 1.000000 0.023438
vt 1.000000 0.750000
vt 0.941406 0.988281
vt 0.500000 0.988281
vt 3.917969 0.988281
vt 0.042969 0.988281
vt 0.000000 0.750000
vt 0.000000 0.015625
vt 0.519531 0.015625
vt 0.000000 0.726562
vt 0.000000 0.750000
vt 0.000000 0.023438
vt 1.000000 0.988281
vt 0.214844 0.699219
vt 0.757812 0.699219
vt 0.000000 0.988281
vt 1.000000 0.988281
vt 0.214844 0.699219
vt 0.757812 0.699219
vt 0.000000 0.988281
vt 0.757812 0.699219
vt 0.000000 0.988281
vt 0.214844 0.699219
vt 1.000000 0.988281
vt 1.000000 0.988281
vt 0.214844 0.699219
vt 0.757812 0.699219
vt 0.000000 0.988281
vt 1.000000 0.988281
vt 0.214844 0.699219
vt 0.757812 0.699219
vt 0.000000 0.988281
vt 0.757812 0.699219
vt 0.000000 0.988281
vt 0.214844 0.699219
vt 1.000000 0.988281
vt 1.847656 0.988281
vt 2.000000 0.019531
vt 1.000000 0.019531
vt 2.000000 0.750000
vt 1.000000 0.000000
vt 2.000000 0.000000
vt 2.000000 0.039062
vt -2.000000 0.750000
vt -2.000000 0.000000
vt 2.000000 0.988281
vt 1.023438 0.750000
vt 0.144531 0.984375
vt 0.312500 0.750000
vt 1.144531 0.984375
vt 0.000000 0.750000
vt 0.000000 0.019531
vt 0.000000 0.988281
vt 3.179688 0.988281
vt 1.000000 0.019531
vt 0.000000 0.011719
vt 0.000000 0.750000
vt 0.000000 0.988281
vt 0.117188 0.988281
vt 0.042969 0.988281
vt 0.000000 0.988281
vt -2.000000 0.019531
vt 2.000000 0.023438
vn -0.9652 -0.0125 -0.2613
vn -0.9670 0.0000 -0.2547
vn -0.8531 0.0000 0.5218
vn -0.8530 0.0000 0.5218
vn -0.3602 0.0000 0.9329
vn -0.3603 0.0000 0.9329
vn 0.3906 0.0000 -0.9205
vn 0.6172 0.0000 -0.7868
vn 0.0502 0.9976 0.0477
vn 0.0060 0.9974 0.0715
vn 0.0000 1.0000 0.0000
vn 0.9861 0.0000 0.1661
vn 0.0732 0.9969 -0.0297
vn 0.0316 0.9972 -0.0674
vn 0.0657 0.9879 -0.1402
vn 0.8884 0.0000 0.4590
vn 0.1342 0.9658 0.2217
vn 0.1979 0.9713 0.1321
vn -0.4432 0.0000 0.8964
vn -0.1043 0.0000 0.9945
vn 0.9333 0.0000 -0.3592
vn 0.2406 0.0000 -0.9706
vn -0.0764 0.9934 -0.0859
vn -0.0792 0.9937 -0.0787
vn 0.1282 0.9842 0.1218
vn 0.1513 0.9848 0.0858
vn 0.1037 0.9942 0.0292
vn 0.1755 0.9835 0.0438
vn 0.1752 0.9843 -0.0224
vn -0.9528 0.0000 0.3036
vn -0.0359 0.9772 0.2093
vn -0.9936 -0.0000 -0.1128
vn -0.0329 0.9916 -0.1255
vn 0.0472 0.9914 -0.1220
vn -0.0748 0.9918 -0.1041
vn -0.1020 0.9916 -0.0794
vn -0.8433 0.0000 0.5374
vn -0.0666 0.9849 0.1600
vn 0.0113 0.9960 0.0883
vn -0.5772 0.0000 0.8166
vn 0.3477 0.0000 0.9376
vn -0.4295 0.0000 -0.9031
vn 0.5836 0.0000 0.8120
vn 0.9663 0.0000 -0.2575
vn -0.9968 0.0000 0.0799
vn -0.8516 0.0000 -0.5241
vn -0.1288 0.0423 -0.9908
vn -0.0707 0.9762 0.2050
vn 0.9526 -0.0000 0.3043
vn 0.0537 0.0000 0.9986
vn 0.5037 0.0000 0.8639
vn -0.0216 0.9840 0.1766
vn -0.9881 -0.0000 -0.1537
vn -0.1691 0.8130 0.5571
vn -0.1869 0.7937 0.5788
vn -0.1899 0.8704 0.4542
vn -0.2064 0.9209 0.3306
vn -0.5480 0.8363 0.0164
vn -0.4800 0.8771 -0.0165
vn 0.5957 0.7803 -0.1904
vn 0.5074 0.8535 -0.1182
vn 0.4059 0.8045 0.4336
vn 0.3870 0.8371 0.3866
vn -0.1783 0.8984 -0.4014
vn -0.2340 0.8671 -0.4397
vn 0.2535 0.8779 -0.4062
vn 0.1870 0.9103 -0.3692
vn -0.4384 0.7671 -0.4683
vn -0.4009 0.8324 -0.3825
vn 0.5363 0.8438 0.0185
vn 0.5561 0.8310 0.0100
vn 0.1937 0.8678 0.4577
vn 0.2024 0.9025 0.3802
vn -0.6278 0.7645 0.1463
vn -0.4893 0.8564 0.1649
vn 0.9943 0.0000 0.1069
vn 0.4353 0.0000 -0.9003
vn 0.0484 0.9956 0.0800
vn -0.9366 0.0000 0.3503
vn 0.1216 0.9659 0.2284
vn 0.1268 0.9645 0.2316
vn -0.1768 0.9426 0.2833
vn -0.1787 0.9381 0.2967
vn -0.3650 0.9309 -0.0126
vn -0.2880 0.9574 0.0199
vn -0.1254 0.9637 -0.2356
vn -0.1341 0.9611 -0.2416
vn 0.1598 0.9534 -0.2560
vn 0.1585 0.9565 -0.2450
vn 0.3196 0.9475 0.0110
vn 0.2850 0.9585 -0.0051
vn 0.0839 0.0000 0.9965
vn 0.8137 0.0000 -0.5813
vn 0.5186 0.0000 0.8550
vn 0.1565 0.8424 -0.5156
vn 0.3114 0.6602 -0.6835
vn -0.9367 0.0000 -0.3503
vn 0.0119 0.9995 -0.0309
vn 0.0249 0.9994 -0.0247
vn 0.8313 0.0000 0.5558
vn 0.0012 0.0000 -1.0000
vn 0.0835 0.9946 0.0621
vn -0.1055 0.0000 -0.9944
vn -0.0534 0.9816 -0.1833
usemtl A_iwa2_a_v
s off
f 201/199/8 200/200/8 199/201/8
f 201/199/9 202/202/9 200/200/9
f 203/203/10 202/202/10 201/199/10
f 203/203/11 204/204/11 202/202/11
f 205/205/12 204/204/12 203/203/12
f 205/205/13 206/206/13 204/204/13
f 209/207/14 208/208/14 207/209/14
f 209/207/14 210/210/14 208/208/14
f 211/211/14 210/210/14 209/207/14
f 211/211/14 212/212/14 210/210/14
f 213/213/15 212/212/15 211/211/15
f 213/213/15 214/214/15 212/212/15
f 217/215/16 216/216/16 215/217/16
f 217/215/17 218/218/17 216/216/17
f 219/219/18 218/218/18 217/215/18
f 219/219/19 220/220/19 218/218/19
f 221/221/19 220/220/19 219/219/19
f 224/222/20 223/223/20 222/224/20
f 224/222/21 225/225/21 223/223/21
f 226/226/22 225/225/22 224/222/22
f 226/226/23 227/227/23 225/225/23
f 228/228/23 227/227/23 226/226/23
f 231/229/24 230/230/24 229/231/24
f 231/229/25 232/232/25 230/230/25
f 233/233/18 232/232/18 231/229/18
f 233/233/26 234/234/26 232/232/26
f 235/235/27 234/234/27 233/233/27
f 238/236/28 237/237/28 236/238/28
f 238/236/28 239/239/28 237/237/28
f 240/240/29 239/239/29 238/236/29
f 240/240/30 241/241/30 239/239/30
f 242/242/31 241/241/31 240/240/31
f 210/210/32 243/243/32 208/208/32
f 210/210/33 244/244/33 243/243/33
f 212/212/18 244/244/18 210/210/18
f 212/212/18 245/245/18 244/244/18
f 246/246/34 245/245/34 212/212/34
f 247/247/18 233/233/18 231/229/18
f 247/247/35 248/248/35 233/233/35
f 249/249/36 248/248/36 247/247/36
f 249/249/18 250/250/18 248/248/18
f 253/251/37 252/252/37 251/253/37
f 253/251/37 254/254/37 252/252/37
f 255/255/18 254/254/18 253/251/18
f 255/255/18 256/256/18 254/254/18
f 259/257/38 258/258/38 257/259/38
f 259/257/18 260/260/18 258/258/18
f 261/261/18 260/260/18 259/257/18
f 261/261/18 262/262/18 260/260/18
f 254/254/39 263/263/39 252/252/39
f 254/254/39 264/264/39 263/263/39
f 265/265/40 264/264/40 254/254/40
f 265/265/41 266/266/41 264/264/41
f 269/267/42 268/268/42 267/269/42
f 269/267/43 270/270/43 268/268/43
f 271/271/44 270/270/44 269/267/44
f 271/271/44 272/272/44 270/270/44
f 275/273/45 274/274/45 273/275/45
f 275/273/18 276/276/18 274/274/18
f 277/277/18 276/276/18 275/273/18
f 277/277/46 278/278/46 276/276/46
f 270/270/18 279/279/18 268/268/18
f 270/270/18 280/280/18 279/279/18
f 272/272/47 280/280/47 270/270/47
f 272/272/47 281/281/47 280/280/47
f 280/280/18 282/282/18 279/279/18
f 280/280/18 283/283/18 282/282/18
f 281/281/48 283/283/48 280/280/48
f 281/281/48 284/284/48 283/283/48
f 287/285/49 286/286/49 285/287/49
f 287/285/49 288/288/49 286/286/49
f 289/289/18 288/288/18 287/285/18
f 289/289/18 290/290/18 288/288/18
f 293/291/50 292/292/50 291/293/50
f 293/291/50 294/294/50 292/292/50
f 295/295/18 294/294/18 293/291/18
f 298/296/18 297/297/18 296/298/18
f 298/296/18 226/226/18 297/297/18
f 228/228/51 226/226/51 298/296/51
f 301/299/52 300/300/52 299/301/52
f 301/299/52 302/302/52 300/300/52
f 303/303/53 302/302/53 301/299/53
f 306/304/18 305/305/18 304/306/18
f 306/304/18 307/307/18 305/305/18
f 308/308/54 307/307/54 306/304/54
f 310/309/18 204/204/18 309/310/18
f 310/309/18 202/202/18 204/204/18
f 200/200/18 202/202/18 310/309/18
f 258/258/55 311/311/55 257/259/55
f 258/258/56 312/312/56 311/311/56
f 313/313/56 312/312/56 258/258/56
f 315/314/57 260/260/57 314/315/57
f 315/314/58 258/258/58 260/260/58
f 313/313/58 258/258/58 315/314/58
f 274/274/59 301/299/59 273/275/59
f 274/274/53 303/303/53 301/299/53
f 316/316/60 303/303/60 274/274/60
f 319/317/61 318/318/61 317/319/61
f 319/317/62 320/320/62 318/318/62
f 323/321/63 322/322/63 321/323/63
f 323/321/64 324/324/64 322/322/64
f 327/325/65 326/326/65 325/327/65
f 327/325/66 328/328/66 326/326/66
f 331/329/67 330/330/67 329/331/67
f 331/329/68 332/332/68 330/330/68
f 335/333/69 334/334/69 333/335/69
f 335/333/70 336/336/70 334/334/70
f 339/337/71 338/338/71 337/339/71
f 339/337/72 340/340/72 338/338/72
f 343/341/73 342/342/73 341/343/73
f 343/341/74 344/344/74 342/342/74
f 347/345/75 346/346/75 345/347/75
f 347/345/76 348/348/76 346/346/76
f 351/349/77 350/350/77 349/351/77
f 351/349/78 352/352/78 350/350/78
f 355/353/79 354/354/79 353/355/79
f 355/353/80 356/356/80 354/354/80
f 359/357/81 358/358/81 357/359/81
f 359/357/82 360/360/82 358/358/82
f 361/361/83 293/291/83 291/293/83
f 361/361/83 362/362/83 293/291/83
f 363/363/18 293/291/18 362/362/18
f 363/363/18 364/364/18 293/291/18
f 365/365/18 301/299/18 299/301/18
f 365/365/18 273/275/18 301/299/18
f 366/366/18 306/304/18 304/306/18
f 366/366/18 367/367/18 306/304/18
f 368/368/84 306/304/84 367/367/84
f 368/368/84 369/369/84 306/304/84
f 370/370/18 260/260/18 262/262/18
f 370/370/57 314/315/57 260/260/57
f 371/371/85 276/276/85 278/278/85
f 371/371/86 372/372/86 276/276/86
f 316/316/86 276/276/86 372/372/86
f 316/316/60 274/274/60 276/276/60
f 375/373/87 374/374/87 373/375/87
f 375/373/88 376/376/88 374/374/88
f 379/377/89 378/378/89 377/379/89
f 379/377/90 380/380/90 378/378/90
f 383/381/91 382/382/91 381/383/91
f 383/381/92 384/384/92 382/382/92
f 387/385/93 386/386/93 385/387/93
f 387/385/94 388/388/94 386/386/94
f 391/389/95 390/390/95 389/391/95
f 391/389/96 392/392/96 390/390/96
f 395/393/97 394/394/97 393/395/97
f 395/393/98 396/396/98 394/394/98
f 397/397/18 204/204/18 206/206/18
f 397/397/18 309/310/18 204/204/18
f 399/398/99 223/223/99 398/399/99
f 399/398/99 400/400/99 223/223/99
f 230/230/26 402/401/26 401/402/26
f 230/230/26 232/232/26 402/401/26
f 218/218/100 403/403/100 216/216/100
f 218/218/100 220/220/100 403/403/100
f 404/404/18 248/248/18 250/250/18
f 404/404/101 405/405/101 248/248/101
f 406/406/18 223/223/18 400/400/18
f 406/406/18 222/224/18 223/223/18
f 409/407/102 408/408/102 407/409/102
f 409/407/103 410/410/103 408/408/103
f 411/411/104 263/263/104 264/264/104
f 411/411/104 412/412/104 263/263/104
f 413/413/105 264/264/105 266/266/105
f 413/413/106 411/411/106 264/264/106
f 414/414/18 254/254/18 256/256/18
f 414/414/18 265/265/18 254/254/18
f 235/235/101 248/248/101 405/405/101
f 235/235/27 233/233/27 248/248/27
f 227/227/107 223/223/107 225/225/107
f 227/227/107 415/415/107 223/223/107
f 288/288/108 416/416/108 286/286/108
f 288/288/108 417/417/108 416/416/108
f 418/418/18 288/288/18 290/290/18
f 418/418/18 417/417/18 288/288/18
f 419/419/18 239/239/18 241/241/18
f 419/419/18 237/237/18 239/239/18
f 310/309/18 420/420/18 200/200/18
f 212/212/109 214/214/109 246/246/109
f 306/304/110 369/369/110 308/308/110
f 219/219/18 217/215/18 421/421/18
f 234/234/26 402/401/26 232/232/26
f 297/297/111 226/226/111 224/222/111
f 295/295/18 293/291/18 364/364/18
f 298/296/51 422/422/51 228/228/51
f 423/423/29 240/240/29 238/236/29
o mesh-1
v -20769.839844 1041.620605 1730.364258
v -21214.048828 1041.620605 1883.231323
v -20961.287109 1041.620605 1232.643677
v -21552.468750 1041.617432 1643.894165
v -21697.070312 967.162048 1032.637695
v -21876.298828 967.162048 1167.045654
v -19393.218750 666.399658 -1398.130371
v -19295.998047 666.399658 -1656.921509
v -18985.978516 666.399719 -1182.033325
v -18738.585938 666.399658 -1424.262329
v -18534.210938 560.493896 -994.185120
v -18181.175781 560.493958 -1191.603027
v -21872.144531 967.160095 473.593506
v -21908.816406 967.160034 364.750305
v -21905.957031 967.161987 227.292923
v -22025.818359 967.160034 326.963287
v -22163.908203 967.161987 267.099884
v -22115.945312 967.162048 417.171936
v -17872.925781 488.967590 200.799515
v -17736.990234 488.965210 726.302368
v -18004.376953 488.967010 259.189117
v -18357.960938 488.965179 440.681122
v -18116.906250 488.967010 202.202484
v -18113.705078 488.967590 24.315092
v -21557.632812 838.871277 -561.394287
v -22023.804688 838.871460 -721.661316
v -21145.347656 790.719299 -1161.452759
v -21490.021484 790.719177 -2074.952148
v -20898.865234 790.719238 -1716.316406
v -20901.576172 790.719238 -1868.415039
v -20785.490234 790.719238 -1931.970825
v -20847.824219 790.719177 -2387.561768
v -20655.808594 790.719238 -1853.875366
v -20105.035156 790.719299 -1503.785034
v -20645.707031 790.719238 -1707.674561
v -20592.156250 790.719299 -1211.677246
v -21872.144531 967.160095 473.593506
v -21697.070312 967.162048 1032.637695
v -21965.548828 967.159973 571.512024
v -21876.298828 967.162048 1167.045654
v -22083.843750 967.162048 517.621094
v -17736.990234 488.965210 726.302368
v -17593.880859 488.969971 -314.903320
v -17878.292969 488.968170 21.298349
v -17993.126953 488.968170 -26.708378
v -19372.582031 1023.118042 624.451721
v -19408.003906 1023.118042 951.997131
v -19506.951172 1023.118042 543.603088
v -19672.089844 1023.118042 978.146057
v -19782.486328 1023.118042 787.592102
v -18726.966797 350.000122 1604.324951
v -18730.998047 350.000092 1141.104980
v -18405.820312 350.000122 1570.477295
v -17938.785156 350.000092 1340.646240
v -19393.218750 666.399658 -1398.130371
v -19295.998047 666.399658 -1656.921509
v -20282.345703 790.719177 -2386.352295
v -20847.824219 790.719177 -2387.561768
v -20785.490234 790.719238 -1931.970825
v -18181.175781 560.493958 -1191.603027
v -18534.210938 560.493896 -994.185120
v -18228.587891 488.969971 -226.774933
v -21557.632812 838.871277 -561.394287
v -21905.957031 967.161987 227.292923
v -22023.804688 838.871460 -721.661316
v -22163.908203 967.161987 267.099884
v -20774.734375 790.719238 -1636.032227
v -20592.156250 790.719299 -1211.677246
v -18113.705078 488.967590 24.315092
v -18228.587891 488.969971 -226.774933
v -20645.707031 790.719238 -1707.674561
v -19530.767578 1023.118042 1037.554565
v -19734.068359 1023.118042 569.409790
v -18357.960938 488.965179 440.681122
v -18113.705078 488.967590 24.315092
v -21697.070312 967.162048 1032.637695
v -21872.144531 967.160095 473.593506
v -21905.957031 967.161987 227.292923
vt 0.000000 1.000000
vt 1.000000 0.265625
vt 1.000000 1.000000
vt 1.000000 0.000000
vt 0.000000 0.281250
vt 0.000000 0.000000
vt 0.000000 0.726562
vt 1.000000 0.000000
vt 1.000000 1.000000
vt 1.000000 0.726562
vt 0.000000 0.000000
vt 1.000000 0.000000
vt 0.003906 0.996094
vt 0.003906 0.992188
vt 0.007812 0.992188
vt 0.007812 0.968750
vt 0.007812 0.960938
vt 0.007812 0.960938
vt 1.000000 0.500000
vt 0.652344 0.000000
vt 1.000000 0.000000
vt 0.707031 1.000000
vt 1.000000 0.750000
vt 1.000000 1.000000
vt 0.457031 1.000000
vt 1.000000 0.000000
vt 1.000000 1.000000
vt 0.250000 0.000000
vt 0.078125 0.601562
vt 0.042969 0.460938
vt 1.000000 0.578125
vt 1.000000 0.000000
vt 1.000000 0.500000
vt 0.500000 1.000000
vt 1.000000 0.675781
vt 1.000000 1.000000
vt 0.000000 0.613281
vt 1.000000 1.000000
vt 0.000000 1.000000
vt 1.000000 0.000000
vt 0.000000 0.000000
vt 0.000000 1.000000
vt 1.000000 1.000000
vt 0.812500 0.000000
vt 0.613281 0.000000
vt 1.000000 0.335938
vt 0.250000 0.000000
vt 1.000000 0.000000
vt 0.000000 1.000000
vt 0.492188 1.000000
vt 0.000000 0.500000
vt 0.246094 1.000000
vt 0.000000 1.000000
vt 0.000000 0.000000
vt 0.000000 0.000000
vt 0.000000 1.000000
vt 0.500000 0.000000
vt 0.000000 0.246094
vt 0.000000 0.000000
vt 1.000000 0.000000
vt 0.000000 0.000000
vt 1.000000 1.000000
vt 0.000000 0.000000
vt 1.000000 1.000000
vt 0.000000 1.000000
vt 1.000000 0.000000
vt 0.046875 0.714844
vt 0.000000 1.000000
vt 0.000000 0.000000
vt 0.542969 -0.085938
vt 0.000000 0.750000
vt 0.000000 0.367188
vt 1.000000 1.000000
vt 0.031250 0.160156
vt 0.160156 0.070312
vt 0.015625 0.929688
vt 0.070312 0.964844
vt 0.023438 1.023438
vn 0.0000 1.0000 0.0000
vn -0.0722 0.9920 -0.1038
vn -0.0769 0.9917 -0.1026
vn 0.1602 0.9734 0.1636
vn 0.1062 0.9760 0.1899
vn 0.0223 0.9977 -0.0648
vn 0.0460 0.9988 -0.0174
vn -0.0883 0.9774 0.1921
vn -0.0434 0.9841 0.1722
vn 0.1629 0.9847 0.0612
vn 0.1464 0.9888 -0.0294
vn 0.0331 0.9977 0.0592
vn 0.0122 0.9960 0.0880
vn 0.0480 0.9890 -0.1397
vn -0.0203 0.9911 -0.1315
vn -0.0001 1.0000 0.0000
usemtl A_jimen_midori_v
s off
f 426/424/112 425/425/112 424/426/112
f 426/424/112 427/427/112 425/425/112
f 428/428/113 427/427/113 426/424/113
f 428/428/114 429/429/114 427/427/114
f 432/430/112 431/431/112 430/432/112
f 432/430/112 433/433/112 431/431/112
f 434/434/115 433/433/115 432/430/115
f 434/434/116 435/435/116 433/433/116
f 438/436/112 437/437/112 436/438/112
f 438/436/112 439/439/112 437/437/112
f 440/440/112 439/439/112 438/436/112
f 440/440/112 441/441/112 439/439/112
f 444/442/112 443/443/112 442/444/112
f 444/442/112 445/445/112 443/443/112
f 446/446/112 445/445/112 444/442/112
f 446/446/112 447/447/112 445/445/112
f 450/448/117 449/449/117 448/450/117
f 450/448/118 451/451/118 449/449/118
f 452/452/112 451/451/112 450/448/112
f 452/452/112 453/453/112 451/451/112
f 456/454/112 455/455/112 454/456/112
f 456/454/112 457/457/112 455/455/112
f 458/458/112 457/457/112 456/454/112
f 458/458/112 459/459/112 457/457/112
f 462/460/112 461/461/112 460/462/112
f 462/460/112 463/463/112 461/461/112
f 464/464/112 463/463/112 462/460/112
f 466/465/112 442/444/112 465/466/112
f 466/465/112 467/467/112 442/444/112
f 468/468/112 467/467/112 466/465/112
f 471/469/112 470/470/112 469/471/112
f 471/469/112 472/472/112 470/470/112
f 473/473/112 472/472/112 471/469/112
f 476/474/112 475/475/112 474/476/112
f 476/474/112 477/477/112 475/475/112
f 445/445/119 477/477/119 443/443/119
f 445/445/120 475/475/120 477/477/120
f 479/478/121 457/457/121 478/479/121
f 479/478/122 480/480/122 457/457/122
f 451/451/112 482/481/112 481/482/112
f 451/451/112 453/453/112 482/481/112
f 484/483/123 466/465/123 483/484/123
f 484/483/124 485/485/124 466/465/124
f 488/486/125 487/487/125 486/488/125
f 488/486/126 489/489/126 487/487/126
f 450/448/112 490/490/112 452/452/112
f 450/448/112 491/491/112 490/490/112
f 468/468/112 493/492/112 492/493/112
f 468/468/112 466/465/112 493/492/112
f 491/491/112 494/494/112 490/490/112
f 472/472/112 495/495/112 470/470/112
f 473/473/112 471/469/112 496/496/112
f 480/480/112 455/455/112 457/457/112
f 498/497/112 493/492/112 497/498/112
f 501/499/127 500/500/127 499/501/127
o mesh-0
v -18207.322266 -1199.999756 2563.296875
v -18207.322266 -199.999802 2563.296875
v -17749.550781 -1199.999878 1847.546631
v -17749.550781 -199.999863 1847.546509
v -17810.556641 -1199.999878 1362.641235
v -17810.556641 -199.999893 1362.641113
v -17620.128906 -1200.000000 766.601929
v -17620.128906 -199.999939 766.601868
v -17435.666016 -1200.000000 -328.284119
v -17435.666016 -200.000031 -328.284210
v -17406.378906 -1200.000122 -1737.925415
v -17406.378906 -200.000137 -1737.925537
v -17406.378906 -1200.000122 -1737.925415
v -17406.378906 -200.000137 -1737.925537
v -18265.244141 -1200.000122 -2375.063965
v -18265.244141 -200.000183 -2375.063965
v -18910.742188 -1200.000244 -2558.332764
v -18910.742188 -200.000198 -2558.332764
v -20201.962891 -1200.000244 -2494.547363
v -20201.962891 -200.000183 -2494.547363
v -20916.236328 -1200.000244 -2495.398193
v -20916.236328 -200.000183 -2495.398193
v -21589.412109 -1200.000122 -2175.225342
v -21589.412109 -200.000183 -2175.225342
v -21589.412109 -1200.000122 -2175.225342
v -21589.412109 -200.000183 -2175.225342
v -22770.503906 -1200.000122 -1072.935181
v -22770.503906 -200.000076 -1072.935303
v -22879.931641 -1200.000000 368.686707
v -22879.931641 -199.999969 368.686615
v -22426.589844 -1199.999878 1487.545898
v -22426.589844 -199.999893 1487.545776
v -22046.744141 -1199.999878 2196.595947
v -22046.744141 -199.999832 2196.595947
v -21309.578125 -1199.999756 2643.728271
v -21309.578125 -199.999802 2643.728271
v -21589.412109 -0.000164 -2175.225342
v -22520.410156 -0.000075 -987.763916
v -22652.937500 0.000026 339.627136
v -22220.541016 0.000103 1370.676636
v -21833.908203 0.000151 2003.441406
v -21616.242188 205.035141 1725.890137
v -21242.294922 188.262009 1990.232788
v -18630.316406 -1200.000122 -935.981628
v -18630.316406 -200.000076 -935.981689
v -18358.851562 -1200.000000 -210.098557
v -18358.851562 -200.000015 -210.098633
v -18453.880859 -1200.000000 400.762665
v -18453.880859 -199.999969 400.762573
v -18897.000000 -1199.999878 1120.768677
v -18897.000000 -199.999908 1120.768555
v -18849.773438 -1199.999878 1709.730347
v -18849.773438 -199.999878 1709.730225
v -20881.898438 -1199.999878 1162.013428
v -20881.898438 -199.999908 1162.013306
v -21023.125000 -1200.000000 729.675354
v -21023.125000 -199.999939 729.675293
v -21114.857422 -1200.000000 115.733353
v -21114.857422 -199.999985 115.733276
v -21466.941406 -1200.000000 -518.858887
v -21466.941406 -200.000046 -518.858948
v -21104.597656 -1200.000122 -1060.857910
v -21104.597656 -200.000076 -1060.858032
v -17743.900391 -0.000117 -1549.025391
v -17435.666016 -0.000025 -328.284210
v -17620.128906 0.000058 766.601868
v -17810.556641 0.000103 1362.641113
v -20201.962891 593.039368 -2494.547119
v -20201.962891 -0.000188 -2494.547363
v -19266.718750 299.999878 -1760.846069
v -19082.925781 -0.000174 -2300.135986
v -18687.177734 299.999878 -1514.913452
v -18332.048828 -0.000155 -2048.964600
v -18107.632812 299.999908 -1268.980835
v -17743.900391 -0.000117 -1549.025391
v -17435.666016 -0.000025 -328.284210
v -20881.898438 0.000088 1162.013306
v -21360.896484 0.000058 772.916504
v -21464.216797 0.000012 160.457855
v -21466.941406 -0.000039 -518.858948
v -21842.998047 184.312088 208.949127
v -18630.316406 438.068268 -935.981750
v -19021.207031 -200.000092 -1129.247070
v -19021.207031 530.558228 -1129.247070
v -19412.095703 -200.000107 -1322.512817
v -19412.095703 556.505249 -1322.512817
v -20090.937500 -200.000107 -1393.701416
v -20090.937500 614.938721 -1393.701416
v -20564.734375 648.441345 -1106.338257
v -19521.363281 871.723450 1120.068604
v -19521.363281 0.000085 1120.068726
v -19733.486328 863.652588 1038.151489
v -19733.484375 0.000078 1038.151611
v -19876.466797 858.589478 804.415710
v -19876.466797 0.000061 804.415771
v -19796.208984 858.753113 507.987671
v -19787.646484 0.000037 492.518005
v -21104.597656 598.195862 -1060.858032
v -21466.941406 743.178345 -518.859009
v -21655.191406 377.316040 -154.525681
v -21842.998047 753.742981 208.949081
v -21639.064453 754.920776 974.309631
v -19913.121094 -1000.000000 373.507172
v -20026.414062 -999.999939 803.704041
v -19813.486328 -999.999939 1151.788086
v -19292.751953 864.313354 578.464661
v -19292.751953 0.000044 578.464783
v -19336.724609 862.029419 987.358337
v -19336.724609 0.000075 987.358398
v -19521.363281 0.000085 1120.068726
v -19222.621094 -999.999939 1076.145996
v -19497.593750 -999.999878 1273.780151
v -18453.878906 301.233459 400.762543
v -18897.000000 217.132584 1120.768555
v -18897.000000 0.000085 1120.768555
v -18849.773438 200.000122 1709.730225
v -18849.773438 0.000129 1709.730225
v -19021.207031 -1200.000122 -1129.246948
v -19412.095703 -1200.000122 -1322.512695
v -20090.937500 -1200.000122 -1393.701294
v -21104.597656 598.195862 -1060.858032
v -21104.597656 -200.000076 -1060.858032
v -20564.734375 -200.000076 -1106.338257
v -20564.734375 -1200.000122 -1106.338135
v -19796.208984 858.753113 507.987671
v -19787.646484 0.000037 492.518005
v -19502.892578 853.119202 476.864777
v -19502.892578 0.000036 476.864838
v -19292.751953 864.313354 578.464661
v -19292.751953 0.000044 578.464783
v -21639.064453 184.312149 974.309692
v -20881.898438 899.054749 1162.013306
v -20431.658203 -1199.999878 2169.184814
v -20431.658203 -199.999832 2169.184814
v -20647.968750 -1199.999878 1769.829834
v -20647.968750 -199.999863 1769.829712
v -20881.898438 -1199.999878 1162.013428
v -20881.898438 -199.999908 1162.013306
v -21589.412109 593.039368 -2175.225342
v -21589.412109 -0.000164 -2175.225342
v -20916.236328 593.039368 -2495.398193
v -20916.236328 -0.000188 -2495.398193
v -20201.962891 593.039368 -2494.547119
v -20201.962891 -0.000188 -2494.547363
v -18849.773438 -1199.999878 1709.730347
v -18849.773438 -199.999878 1709.730225
v -18967.121094 -1199.999878 1969.324463
v -18967.121094 -199.999847 1969.324341
v -18973.615234 -1199.999878 2310.006836
v -18973.615234 -199.999832 2310.006836
v -20916.236328 -0.000188 -2495.398193
v -20201.962891 -0.000188 -2494.547363
v -19082.925781 -0.000174 -2300.135986
v -18332.048828 -0.000155 -2048.964600
v -18630.316406 438.068268 -935.981750
v -18358.851562 331.865326 -210.098679
v -18849.773438 0.000129 1709.730225
v -18967.121094 0.000149 1969.324341
v -20777.175781 575.851257 -1697.509888
v -20852.408203 575.851257 -1744.471069
v -20774.121094 575.851257 -1786.140015
v -20849.351562 575.851257 -1833.101440
v -20771.070312 575.851257 -1874.771240
v -20695.837891 575.851257 -1827.810059
v -20698.894531 575.851257 -1739.180054
v -17918.562500 262.047424 72.477356
v -17921.617188 262.047424 161.107544
v -17996.843750 262.047424 114.146851
v -17999.898438 262.047455 202.777618
v -18075.126953 262.047424 155.816818
v -21348.017578 0.000177 2343.462402
v -18630.316406 -200.000076 -935.981689
v -18630.316406 -1200.000122 -935.981628
v -18057.058594 -96.195915 2018.724487
v -18342.027344 0.000164 2177.357178
v -21974.076172 746.385864 534.204285
v -22058.937500 746.385864 508.442444
v -21994.197266 746.385864 447.833374
v -22079.056641 746.385864 422.072510
v -22014.316406 746.385803 361.462372
v -21929.455078 746.385803 387.223267
v -21909.335938 746.385864 473.593201
v -17435.666016 377.278137 -328.284241
v -17435.666016 -0.000025 -328.284210
v -17620.128906 366.723938 766.601868
v -17620.128906 0.000058 766.601868
v -17810.556641 0.000103 1362.641113
v -21589.412109 -0.000164 -2175.225342
v -19157.136719 -999.999939 467.214111
v -19470.083984 -1000.000000 315.909943
v -20852.408203 575.851257 -1744.471069
v -20777.175781 575.851257 -1697.509888
v -20852.408203 775.375854 -1744.471069
v -20777.175781 775.375854 -1697.509888
v -20647.968750 0.000134 1769.829712
v -20431.658203 -199.999832 2169.184814
v -21348.017578 0.000177 2343.462402
v -21309.578125 -199.999802 2643.728271
v -20849.351562 575.851257 -1833.101440
v -20849.351562 775.375854 -1833.101440
v -22237.812500 300.000061 286.483368
v -22119.169922 299.999939 -758.548340
v -20698.894531 575.851257 -1739.180054
v -20698.894531 775.375854 -1739.180054
v -20695.837891 575.851257 -1827.810059
v -20695.837891 775.375854 -1827.810059
v -20771.070312 575.851257 -1874.771240
v -20771.070312 775.375854 -1874.771240
v -20849.351562 775.375854 -1833.101440
v -20849.351562 575.851257 -1833.101440
v -18072.074219 262.047424 67.186630
v -18075.126953 262.047424 155.816818
v -18072.074219 461.572083 67.186615
v -18075.126953 461.572083 155.816803
v -17999.898438 262.047455 202.777618
v -17999.898438 461.572113 202.777603
v -17921.617188 262.047424 161.107544
v -17921.617188 461.572083 161.107529
v -17918.562500 262.047424 72.477356
v -17918.562500 461.572083 72.477341
v -17993.791016 262.047424 25.516621
v -17993.791016 461.572083 25.516605
v -18072.074219 461.572083 67.186615
v -18072.074219 262.047424 67.186630
v -19266.718750 519.383911 -1760.846069
v -18687.177734 575.104492 -1514.913452
v -18107.632812 450.180695 -1268.980835
v -17435.666016 377.278137 -328.284241
v -17993.791016 262.047424 25.516621
v -18072.074219 262.047424 67.186630
v -22079.056641 746.385864 422.072510
v -22058.937500 746.385864 508.442444
v -22079.056641 945.910522 422.072510
v -22058.937500 945.910522 508.442444
v -21974.076172 746.385864 534.204285
v -21974.076172 945.910522 534.204285
v -21909.335938 746.385864 473.593201
v -21909.335938 945.910522 473.593201
v -21929.455078 746.385803 387.223267
v -21929.455078 945.910461 387.223267
v -22014.316406 746.385803 361.462372
v -22014.316406 945.910461 361.462372
v -22079.056641 945.910522 422.072510
v -22079.056641 746.385864 422.072510
v -20881.898438 899.054749 1162.013306
v -20881.898438 0.000088 1162.013306
v -20647.968750 876.269775 1769.829590
v -20647.968750 0.000134 1769.829712
v -20647.968750 0.000134 1769.829712
v -21242.294922 188.262009 1990.232788
v -20647.968750 876.269775 1769.829590
v -21242.294922 923.335327 1990.232666
v -21242.294922 188.262009 1990.232788
v -21616.242188 205.035141 1725.890137
v -21242.294922 923.335327 1990.232666
v -21616.242188 927.528564 1725.890015
v -21942.187500 300.000122 1214.387085
v -21942.187500 842.368774 1214.386963
v -22237.812500 791.649780 286.483398
v -22237.812500 300.000061 286.483368
v -22237.812500 300.000061 286.483368
v -22119.169922 299.999939 -758.548340
v -22237.812500 791.649780 286.483398
v -22119.169922 782.962524 -758.548401
v -21589.412109 593.039368 -2175.225342
v -21589.412109 -0.000164 -2175.225342
v -17810.556641 262.500092 1362.641113
v -18360.771484 200.000122 1683.435059
v -19157.136719 -999.999939 467.214111
v -21942.187500 300.000122 1214.387085
v -21309.578125 -1199.999756 2643.728271
v -20431.658203 -1199.999878 2169.184814
v -17743.900391 -0.000117 -1549.025391
v -21348.017578 0.000177 2343.462402
v -21242.294922 188.262009 1990.232788
v -20647.968750 0.000134 1769.829712
v -19521.363281 871.723450 1120.068604
v -18849.773438 200.000122 1709.730225
v -18342.027344 0.000164 2177.357178
v -21104.597656 -1200.000122 -1060.857910
v -19497.593750 -999.999878 1273.780151
v -19913.121094 -1000.000000 373.507172
vt -0.902344 -0.246094
vt -2.000000 0.503906
vt -2.000000 -0.246094
vt -0.906250 0.503906
vt 0.000000 -0.246094
vt 0.000000 0.503906
vt 1.000000 -0.246094
vt 1.000000 0.503906
vt 2.000000 -0.246094
vt 2.000000 0.503906
vt 3.000000 -0.246094
vt 3.000000 0.503906
vt 0.000000 -0.250000
vt -1.000000 0.500000
vt -1.000000 -0.250000
vt 0.000000 0.500000
vt 1.023438 -0.250000
vt 1.023438 0.500000
vt 1.996094 -0.250000
vt 1.996094 0.500000
vt 2.875000 -0.250000
vt 2.875000 0.500000
vt 4.000000 -0.250000
vt 4.000000 0.500000
vt -1.000000 -0.261719
vt -2.000000 0.500000
vt -2.000000 -0.261719
vt -1.000000 0.500000
vt 0.000000 -0.261719
vt 0.000000 0.500000
vt 1.000000 -0.261719
vt 1.000000 0.500000
vt 2.000000 -0.261719
vt 2.000000 0.500000
vt 3.000000 -0.261719
vt 3.000000 0.500000
vt -2.000000 1.000000
vt -1.000000 1.000000
vt 0.000000 1.000000
vt 1.000000 1.000000
vt 2.000000 1.000000
vt 2.000000 1.769531
vt 3.000000 1.792969
vt -1.000000 0.000000
vt -2.000000 1.000000
vt -2.000000 0.000000
vt -1.000000 1.000000
vt 0.000000 0.000000
vt 0.000000 1.000000
vt 1.000000 0.000000
vt 1.000000 1.000000
vt 2.000000 0.000000
vt 2.000000 1.000000
vt -1.000000 -1.000000
vt -2.031250 0.000000
vt -2.031250 -1.000000
vt -1.000000 0.000000
vt 0.000000 -1.000000
vt 0.000000 0.000000
vt 1.000000 -1.000000
vt 1.000000 0.000000
vt 2.000000 -1.000000
vt 2.000000 0.000000
vt 2.000000 1.000000
vt 3.000000 1.000000
vt 1.000000 1.000000
vt 0.000000 1.000000
vt 2.000000 0.648438
vt 3.000000 0.000000
vt 3.000000 1.000000
vt 2.000000 0.000000
vt 1.000000 0.628906
vt 1.000000 0.000000
vt 0.000000 0.621094
vt 0.000000 0.000000
vt -1.000000 0.000000
vt -2.031250 0.500000
vt -1.000000 0.500000
vt 0.000000 0.500000
vt 1.000000 0.488281
vt 0.000000 1.218750
vt 1.000000 2.000000
vt 1.000000 0.542969
vt 2.000000 2.000000
vt 0.000000 0.433594
vt 0.000000 2.000000
vt -1.000000 0.046875
vt -1.000000 2.000000
vt -2.000000 2.000000
vt 0.312500 1.000000
vt 1.000000 -0.734375
vt 1.000000 1.000000
vt 0.312500 -0.734375
vt -0.375000 1.000000
vt -0.375000 -0.734375
vt -1.000000 1.000000
vt -1.000000 -0.734375
vt 1.000000 2.000000
vt 2.000000 2.000000
vt 0.496094 1.386719
vt 0.000000 2.000000
vt -0.937500 2.000000
vt -0.375000 -1.734375
vt -1.000000 -1.734375
vt 0.312500 -1.734375
vt 0.500000 1.000000
vt 1.000000 -0.734375
vt 1.000000 1.000000
vt 0.500000 -0.734375
vt 0.000000 -0.734375
vt 0.500000 -1.699219
vt 0.000000 -1.699219
vt 0.000000 2.000000
vt 1.000000 2.000000
vt 1.000000 1.507812
vt 2.000000 2.000000
vt 2.000000 1.300781
vt 1.000000 -0.515625
vt 0.000000 -0.660156
vt -1.000000 -0.953125
vt -3.000000 0.046875
vt -3.000000 2.000000
vt -2.000000 0.046875
vt -2.000000 -0.953125
vt 0.500000 1.000000
vt 1.000000 -0.734375
vt 1.000000 1.000000
vt 0.500000 -0.734375
vt 0.000000 1.000000
vt 0.000000 -0.734375
vt -1.000000 1.218750
vt -2.031250 2.000000
vt 0.011719 -1.000000
vt -1.000000 0.000000
vt -1.000000 -1.000000
vt 0.011719 0.000000
vt 1.000000 -1.000000
vt 1.000000 0.000000
vt 1.000000 1.000000
vt 2.000000 0.000000
vt 2.000000 1.000000
vt 1.000000 0.000000
vt 0.000000 1.000000
vt 0.000000 0.000000
vt 0.445312 -0.230469
vt 0.000000 1.000000
vt 0.000000 -0.214844
vt 0.445312 1.000000
vt 0.984375 -0.195312
vt 0.984375 1.000000
vt 1.996094 1.000000
vt 2.875000 1.000000
vt 1.007812 1.000000
vt 0.000000 1.000000
vt -2.000000 2.000000
vt -1.000000 2.000000
vt 0.000000 1.300781
vt 0.445312 1.246094
vt 0.496094 0.503906
vt 0.347656 1.000000
vt 0.000000 0.621094
vt 0.847656 0.882812
vt 0.996094 0.382812
vt 0.648438 0.000000
vt 0.148438 0.121094
vt 0.496094 0.500000
vt 0.140625 0.125000
vt 0.640625 0.000000
vt 0.000000 0.625000
vt 0.355469 1.000000
vt 3.000000 1.000000
vt 2.000000 1.000000
vt 2.000000 0.000000
vt -1.363281 0.816406
vt -2.000000 1.000000
vt 0.496094 0.500000
vt 0.769531 0.031250
vt 1.000000 0.531250
vt 0.269531 0.000000
vt 0.000000 0.472656
vt 0.226562 0.972656
vt 0.726562 1.000000
vt 1.000000 1.000000
vt 2.000000 0.000000
vt 2.000000 1.000000
vt 1.000000 0.000000
vt 0.000000 0.000000
vt 4.000000 1.000000
vt 0.500000 -1.734375
vt 0.000000 -1.734375
vt 0.000000 1.000000
vt 0.332031 0.000000
vt 0.000000 0.000000
vt 0.332031 1.000000
vt 0.000000 1.000000
vt 0.984375 0.699219
vt 0.996094 1.753906
vt 0.000000 0.515625
vt -0.332031 1.000000
vt -0.332031 0.000000
vt 0.000000 2.000000
vt -1.000000 2.000000
vt 0.664062 0.000000
vt 0.664062 1.000000
vt 1.000000 0.000000
vt 1.000000 1.000000
vt 1.332031 0.000000
vt 1.332031 1.000000
vt 1.664062 0.000000
vt 1.664062 1.000000
vt -0.332031 1.000000
vt 0.000000 0.000000
vt -0.332031 0.000000
vt 0.000000 1.000000
vt 0.332031 0.000000
vt 0.332031 1.000000
vt 0.664062 0.000000
vt 0.664062 1.000000
vt 1.000000 0.000000
vt 1.000000 1.000000
vt 1.332031 0.000000
vt 1.332031 1.000000
vt 1.664062 0.000000
vt 1.664062 1.000000
vt 2.000000 1.000000
vt 1.000000 1.000000
vt 0.000000 1.000000
vt -1.000000 1.000000
vt 0.996094 0.378906
vt 0.855469 0.878906
vt -0.332031 1.000000
vt 0.000000 0.000000
vt -0.332031 0.000000
vt 0.000000 1.000000
vt 0.332031 0.000000
vt 0.332031 1.000000
vt 0.664062 0.000000
vt 0.664062 1.000000
vt 1.000000 0.000000
vt 1.000000 1.000000
vt 1.332031 0.000000
vt 1.332031 1.000000
vt 1.664062 0.000000
vt 1.664062 1.000000
vt 0.011719 2.000000
vt 1.000000 0.550781
vt 1.000000 2.000000
vt 0.011719 0.550781
vt 1.000000 1.000000
vt 0.000000 -0.292969
vt 1.000000 -0.468750
vt 0.000000 1.000000
vt 2.000000 1.000000
vt 1.000000 -0.226562
vt 2.000000 -0.203125
vt 1.000000 1.000000
vt 0.000000 0.000000
vt 0.000000 1.000000
vt -1.000000 1.000000
vt -1.000000 0.000000
vt 2.000000 1.000000
vt 1.000000 0.000000
vt 2.000000 0.000000
vt 1.000000 1.164062
vt -1.000000 1.000000
vt -1.000000 0.000000
vt 0.000000 1.000000
vt -1.000000 1.000000
vt 1.000000 -1.699219
vt 1.000000 2.000000
vt 0.984375 -0.281250
vt 0.000000 -0.281250
vt -1.000000 1.000000
vt 1.000000 0.687500
vt 0.000000 0.671875
vt 0.000000 0.066406
vt 0.000000 1.000000
vt 0.000000 1.957031
vt -2.000000 0.000000
vt -3.000000 -0.953125
vt 1.000000 -1.734375
vt 1.000000 -1.734375
vn 0.8424 0.0000 0.5388
vn 0.9922 0.0000 -0.1248
vn 0.9526 0.0000 0.3043
vn 0.9861 0.0000 0.1661
vn 0.9998 -0.0000 0.0208
vn 0.5958 0.0000 -0.8031
vn 0.2731 0.0000 -0.9620
vn -0.0493 0.0000 -0.9988
vn 0.0012 0.0000 -1.0000
vn -0.4295 0.0000 -0.9031
vn -0.6823 0.0000 -0.7311
vn -0.9971 -0.0000 -0.0757
vn -0.9268 -0.0000 0.3755
vn -0.8815 0.0000 0.4722
vn -0.5186 0.0000 0.8550
vn -0.4924 0.7801 -0.3860
vn -0.6141 0.7878 -0.0466
vn -0.6644 0.7444 -0.0663
vn -0.6214 0.7419 0.2518
vn -0.5974 0.7618 0.2505
vn -0.5507 0.7639 0.3365
vn -0.4499 0.8497 0.2749
vn -0.2651 0.8632 0.4298
vn -0.9366 0.0000 0.3503
vn -0.9881 -0.0000 -0.1537
vn -0.8516 -0.0000 -0.5241
vn -0.9968 -0.0000 0.0799
vn 0.9506 -0.0000 -0.3105
vn 0.9890 -0.0000 -0.1478
vn 0.8744 -0.0000 -0.4852
vn 0.8313 0.0000 0.5558
vn 0.4577 0.8816 -0.1156
vn 0.6172 -0.0000 -0.7868
vn 0.0805 0.8825 -0.4635
vn 0.1824 0.8843 -0.4298
vn 0.1383 0.8999 -0.4135
vn 0.1679 0.9030 -0.3956
vn 0.3598 0.8314 -0.4233
vn 0.5625 0.8145 -0.1420
vn 0.3972 0.7766 -0.4890
vn 0.5010 0.8622 -0.0749
vn 0.4872 0.8694 -0.0822
vn 0.4966 0.8680 -0.0020
vn 0.4374 0.8993 -0.0018
vn -0.4432 0.0000 0.8964
vn -0.1043 0.0000 0.9945
vn 0.5186 0.0000 0.8550
vn -0.3602 -0.0000 0.9329
vn -0.3603 -0.0000 0.9329
vn -0.8531 0.0000 0.5218
vn -0.8530 0.0000 0.5218
vn -0.9652 -0.0000 -0.2613
vn -0.9618 -0.0047 -0.2739
vn 0.8884 0.0000 0.4590
vn 0.9663 0.0000 -0.2575
vn -0.9561 0.1499 -0.2518
vn -0.9519 0.1429 -0.2711
vn -0.8462 0.1265 0.5176
vn -0.3570 0.1336 0.9245
vn 0.9943 0.0000 0.1069
vn 0.5836 -0.0000 0.8120
vn 0.5781 0.1374 0.8043
vn 0.0839 0.0000 0.9965
vn -0.1052 0.0169 -0.9943
vn -0.0549 -0.0000 -0.9985
vn 0.4353 0.0000 -0.9003
vn 0.4289 0.9005 -0.0724
vn 0.4816 0.8670 -0.1283
vn 0.2406 0.0000 -0.9706
vn 0.8793 0.0000 -0.4763
vn 0.9333 0.0000 -0.3592
vn -0.9112 -0.0000 -0.4119
vn -0.9998 -0.0000 -0.0191
vn 0.0986 0.8175 -0.5675
vn 0.1762 0.8316 -0.5267
vn 0.0000 1.0000 0.0000
vn -0.3346 0.7640 0.5517
vn -0.3330 0.8140 0.4759
vn -0.2716 0.8807 0.3881
vn 0.4479 0.8450 0.2922
vn 0.4451 0.8491 0.2846
vn 0.4299 0.1572 -0.8891
vn -0.0542 0.1569 -0.9861
vn 0.5295 0.0000 -0.8483
vn 0.2593 0.9125 0.3165
vn 0.2748 0.8161 0.5084
vn 0.9994 0.0000 0.0345
vn -0.5503 0.8024 0.2308
vn -0.5900 0.8046 -0.0670
vn -0.4699 0.0000 -0.8827
vn -0.9994 0.0000 -0.0345
vn -0.5295 0.0000 0.8483
vn 0.4699 0.0000 0.8827
vn 0.9994 0.0000 0.0344
vn -0.9994 0.0000 -0.0344
vn 0.3906 0.0000 -0.9205
vn 0.8137 0.0000 -0.5813
vn 0.9739 0.0000 -0.2269
vn 0.2905 0.0000 -0.9569
vn -0.6834 0.0000 -0.7300
vn -0.9739 0.0000 0.2269
vn -0.2905 0.0000 0.9569
vn 0.6834 0.0000 0.7300
vn 0.3477 0.0000 0.9376
vn -0.5772 0.0000 0.8166
vn -0.8433 0.0000 0.5374
vn -0.9528 -0.0000 0.3036
vn -0.9936 0.0000 -0.1128
vn -0.9367 -0.0000 -0.3503
vn 0.5037 0.0000 0.8639
vn 0.9868 0.1220 0.1061
vn -0.5165 0.7204 0.4629
vn -0.6597 0.7216 0.2102
vn 0.4755 0.0000 0.8797
vn 0.3062 0.8741 -0.3770
vn 0.3129 0.8756 -0.3681
vn 0.3292 0.8335 -0.4438
vn -0.4317 0.8361 -0.3385
vn -0.5765 0.8151 -0.0576
vn -0.5138 0.8126 0.2752
vn 0.4273 0.7385 0.5215
vn 0.1410 0.8565 -0.4965
vn 0.4805 0.8191 0.3134
vn -0.1278 0.1330 -0.9828
usemtl A_iwakabe_a_v
s off
f 504/502/128 503/503/128 502/504/128
f 504/502/128 505/505/128 503/503/128
f 506/506/129 505/505/129 504/502/129
f 506/506/129 507/507/129 505/505/129
f 508/508/130 507/507/130 506/506/130
f 508/508/130 509/509/130 507/507/130
f 510/510/131 509/509/131 508/508/131
f 510/510/131 511/511/131 509/509/131
f 512/512/132 511/511/132 510/510/132
f 512/512/132 513/513/132 511/511/132
f 516/514/133 515/515/133 514/516/133
f 516/514/133 517/517/133 515/515/133
f 518/518/134 517/517/134 516/514/134
f 518/518/134 519/519/134 517/517/134
f 520/520/135 519/519/135 518/518/135
f 520/520/135 521/521/135 519/519/135
f 522/522/136 521/521/136 520/520/136
f 522/522/136 523/523/136 521/521/136
f 524/524/137 523/523/137 522/522/137
f 524/524/137 525/525/137 523/523/137
f 528/526/138 527/527/138 526/528/138
f 528/526/138 529/529/138 527/527/138
f 530/530/139 529/529/139 528/526/139
f 530/530/139 531/531/139 529/529/139
f 532/532/140 531/531/140 530/530/140
f 532/532/140 533/533/140 531/531/140
f 534/534/141 533/533/141 532/532/141
f 534/534/141 535/535/141 533/533/141
f 536/536/142 535/535/142 534/534/142
f 536/536/142 537/537/142 535/535/142
f 529/529/138 538/538/138 527/527/138
f 529/529/143 539/539/143 538/538/143
f 531/531/144 539/539/144 529/529/144
f 531/531/145 540/540/145 539/539/145
f 533/533/146 540/540/146 531/531/146
f 533/533/147 541/541/147 540/540/147
f 542/542/148 541/541/148 533/533/148
f 542/542/149 543/543/149 541/541/149
f 544/544/150 543/543/150 542/542/150
f 547/545/151 546/546/151 545/547/151
f 547/545/151 548/548/151 546/546/151
f 549/549/152 548/548/152 547/545/152
f 549/549/152 550/550/152 548/548/152
f 551/551/153 550/550/153 549/549/153
f 551/551/153 552/552/153 550/550/153
f 553/553/154 552/552/154 551/551/154
f 553/553/154 554/554/154 552/552/154
f 557/555/155 556/556/155 555/557/155
f 557/555/155 558/558/155 556/556/155
f 559/559/156 558/558/156 557/555/156
f 559/559/156 560/560/156 558/558/156
f 561/561/157 560/560/157 559/559/157
f 561/561/157 562/562/157 560/560/157
f 563/563/158 562/562/158 561/561/158
f 563/563/158 564/564/158 562/562/158
f 566/565/159 513/513/159 565/566/159
f 566/565/132 511/511/132 513/513/132
f 567/567/131 511/511/131 566/565/131
f 567/567/131 509/509/131 511/511/131
f 568/568/130 509/509/130 567/567/130
f 568/568/130 507/507/130 509/509/130
f 505/505/129 507/507/129 568/568/129
f 571/569/160 570/570/160 569/571/160
f 571/569/161 572/572/161 570/570/161
f 573/573/162 572/572/162 571/569/162
f 573/573/163 574/574/163 572/572/163
f 575/575/164 574/574/164 573/573/164
f 575/575/165 576/576/165 574/574/165
f 577/577/166 576/576/166 575/575/166
f 558/558/155 578/578/155 556/556/155
f 558/558/167 579/579/167 578/578/167
f 560/560/168 579/579/168 558/558/168
f 560/560/169 580/580/169 579/579/169
f 581/581/170 580/580/170 560/560/170
f 581/581/171 582/582/171 580/580/171
f 585/583/172 584/584/172 583/585/172
f 585/583/172 586/586/172 584/584/172
f 587/587/172 586/586/172 585/583/172
f 587/587/173 588/588/173 586/586/173
f 589/589/173 588/588/173 587/587/173
f 589/589/174 590/590/174 588/588/174
f 593/591/175 592/592/175 591/593/175
f 593/591/176 594/594/176 592/592/176
f 595/595/177 594/594/177 593/591/177
f 595/595/178 596/596/178 594/594/178
f 597/597/179 596/596/179 595/595/179
f 597/597/180 598/598/180 596/596/180
f 600/599/158 564/564/158 599/600/158
f 600/599/158 581/581/158 564/564/158
f 601/601/181 581/581/181 600/599/181
f 601/601/181 582/582/181 581/581/181
f 602/602/181 582/582/181 601/601/181
f 602/602/182 603/603/182 582/582/182
f 605/604/183 598/598/183 604/605/183
f 605/604/184 596/596/184 598/598/184
f 606/606/185 596/596/185 605/604/185
f 606/606/185 594/594/185 596/596/185
f 592/592/186 594/594/186 606/606/186
f 609/607/187 608/608/187 607/609/187
f 609/607/187 610/610/187 608/608/187
f 611/611/188 610/610/188 609/607/188
f 611/611/189 612/612/189 610/610/189
f 613/613/189 612/612/189 611/611/189
f 550/550/152 614/614/152 548/548/152
f 550/550/153 615/615/153 614/614/153
f 616/616/153 615/615/153 550/550/153
f 616/616/154 617/617/154 615/615/154
f 618/618/154 617/617/154 616/616/154
f 586/586/172 619/619/172 584/584/172
f 586/586/172 620/620/172 619/619/172
f 588/588/173 620/620/173 586/586/173
f 588/588/173 621/621/173 620/620/173
f 623/622/190 590/590/190 622/623/190
f 623/622/190 624/624/190 590/590/190
f 625/625/190 624/624/190 623/622/190
f 625/625/174 621/621/174 624/624/174
f 628/626/191 627/627/191 626/628/191
f 628/626/192 629/629/192 627/627/192
f 630/630/193 629/629/193 628/626/193
f 630/630/193 631/631/193 629/629/193
f 582/582/194 579/579/194 580/580/194
f 582/582/195 632/632/195 579/579/195
f 603/603/182 632/632/182 582/582/182
f 603/603/196 633/633/196 632/632/196
f 636/634/197 635/635/197 634/636/197
f 636/634/197 637/637/197 635/635/197
f 638/638/198 637/637/198 636/634/198
f 638/638/198 639/639/198 637/637/198
f 642/640/137 641/641/137 640/642/137
f 642/640/137 643/643/137 641/641/137
f 644/644/136 643/643/136 642/640/136
f 644/644/136 645/645/136 643/643/136
f 648/646/199 647/647/199 646/648/199
f 648/646/199 649/649/199 647/647/199
f 650/650/200 649/649/200 648/646/200
f 650/650/200 651/651/200 649/649/200
f 653/652/136 521/521/136 652/653/136
f 653/652/135 519/519/135 521/521/135
f 654/654/201 519/519/201 653/652/201
f 654/654/202 655/655/202 519/519/202
f 548/548/151 656/656/151 546/546/151
f 548/548/151 657/657/151 656/656/151
f 614/614/152 657/657/152 548/548/152
f 649/649/199 658/658/199 647/647/199
f 649/649/199 659/659/199 658/658/199
f 651/651/200 659/659/200 649/649/200
f 662/660/203 661/661/203 660/662/203
f 662/660/203 663/663/203 661/661/203
f 664/664/203 663/663/203 662/660/203
f 662/660/203 665/665/203 664/664/203
f 662/660/203 666/666/203 665/665/203
f 660/662/203 666/666/203 662/660/203
f 669/667/203 668/668/203 667/669/203
f 669/667/203 670/670/203 668/668/203
f 671/671/203 670/670/203 669/667/203
f 672/672/204 535/535/204 537/537/204
f 672/672/205 542/542/205 535/535/205
f 544/544/206 542/542/206 672/672/206
f 584/584/172 673/673/172 583/585/172
f 584/584/172 674/674/172 673/673/172
f 619/619/172 674/674/172 584/584/172
f 675/675/207 505/505/207 568/568/207
f 675/675/208 503/503/208 505/505/208
f 676/676/208 503/503/208 675/675/208
f 679/677/203 678/678/203 677/679/203
f 679/677/203 680/680/203 678/678/203
f 681/681/203 680/680/203 679/677/203
f 679/677/203 682/682/203 681/681/203
f 679/677/203 683/683/203 682/682/203
f 677/679/203 683/683/203 679/677/203
f 686/684/131 685/685/131 684/686/131
f 686/684/131 687/687/131 685/685/131
f 688/688/130 687/687/130 686/684/130
f 652/653/137 525/525/137 689/689/137
f 652/653/137 523/523/137 525/525/137
f 521/521/136 523/523/136 652/653/136
f 691/690/209 631/631/209 690/691/209
f 691/690/209 629/629/209 631/631/209
f 627/627/210 629/629/210 691/690/210
f 694/692/211 693/693/211 692/694/211
f 694/692/211 695/695/211 693/693/211
f 698/696/212 697/697/212 696/698/212
f 698/696/213 699/699/213 697/697/213
f 701/700/214 692/694/214 700/701/214
f 701/700/214 694/692/214 692/694/214
f 702/702/215 540/540/215 541/541/215
f 702/702/216 703/703/216 540/540/216
f 695/695/217 704/704/217 693/693/217
f 695/695/217 705/705/217 704/704/217
f 705/705/218 706/706/218 704/704/218
f 705/705/218 707/707/218 706/706/218
f 707/707/219 708/708/219 706/706/219
f 707/707/219 709/709/219 708/708/219
f 711/710/220 709/709/220 710/711/220
f 711/710/220 708/708/220 709/709/220
f 714/712/221 713/713/221 712/714/221
f 714/712/221 715/715/221 713/713/221
f 715/715/211 716/716/211 713/713/211
f 715/715/211 717/717/211 716/716/211
f 717/717/217 718/718/217 716/716/217
f 717/717/217 719/719/217 718/718/217
f 719/719/222 720/720/222 718/718/222
f 719/719/222 721/721/222 720/720/222
f 721/721/219 722/722/219 720/720/219
f 721/721/219 723/723/219 722/722/219
f 725/724/220 723/723/220 724/725/220
f 725/724/220 722/722/220 723/723/220
f 624/624/174 588/588/174 590/590/174
f 624/624/174 621/621/174 588/588/174
f 726/726/160 571/569/160 569/571/160
f 726/726/223 727/727/223 571/569/223
f 727/727/223 573/573/223 571/569/223
f 727/727/223 728/728/223 573/573/223
f 728/728/223 575/575/223 573/573/223
f 728/728/224 729/729/224 575/575/224
f 730/730/203 669/667/203 667/669/203
f 730/730/203 731/731/203 669/667/203
f 734/732/225 733/733/225 732/734/225
f 734/732/225 735/735/225 733/733/225
f 735/735/226 736/736/226 733/733/226
f 735/735/226 737/737/226 736/736/226
f 737/737/227 738/738/227 736/736/227
f 737/737/227 739/739/227 738/738/227
f 739/739/228 740/740/228 738/738/228
f 739/739/228 741/741/228 740/740/228
f 741/741/229 742/742/229 740/740/229
f 741/741/229 743/743/229 742/742/229
f 745/744/230 743/743/230 744/745/230
f 745/744/230 742/742/230 743/743/230
f 748/746/198 747/747/198 746/748/198
f 748/746/198 749/749/198 747/747/198
f 752/750/231 751/751/231 750/752/231
f 752/750/231 753/753/231 751/751/231
f 756/754/232 755/755/232 754/756/232
f 756/754/232 757/757/232 755/755/232
f 757/757/233 758/758/233 755/755/233
f 757/757/233 759/759/233 758/758/233
f 760/760/234 758/758/234 759/759/234
f 760/760/234 761/761/234 758/758/234
f 764/762/235 763/763/235 762/764/235
f 764/762/235 765/765/235 763/763/235
f 766/766/236 763/763/236 765/765/236
f 766/766/236 767/767/236 763/763/236
f 768/768/130 688/688/130 686/684/130
f 768/768/237 769/769/237 688/688/237
f 612/612/238 608/608/238 610/610/238
f 612/612/238 770/770/238 608/608/238
f 771/771/239 541/541/239 543/543/239
f 771/771/240 702/702/240 541/541/240
f 773/772/241 699/699/241 772/773/241
f 773/772/241 697/697/241 699/699/241
f 578/578/196 632/632/196 633/633/196
f 578/578/242 579/579/242 632/632/242
f 618/618/154 552/552/154 554/554/154
f 618/618/154 616/616/154 552/552/154
f 515/515/243 655/655/243 774/774/243
f 515/515/244 517/517/244 655/655/244
f 539/539/245 703/703/245 538/538/245
f 539/539/246 540/540/246 703/703/246
f 562/562/157 581/581/157 560/560/157
f 562/562/158 564/564/158 581/581/158
f 637/637/197 749/749/197 635/635/197
f 637/637/198 639/639/198 749/749/198
f 671/671/203 669/667/203 731/731/203
f 747/747/198 749/749/198 639/639/198
f 577/577/224 575/575/224 729/729/224
f 535/535/247 542/542/247 533/533/247
f 777/775/248 776/776/248 775/777/248
f 609/607/188 778/778/188 611/611/188
f 600/599/181 602/602/181 601/601/181
f 655/655/249 517/517/249 519/519/249
f 658/658/199 659/659/199 779/779/199
f 568/568/207 676/676/207 675/675/207
f 688/688/250 769/769/250 780/780/250
f 616/616/153 550/550/153 552/552/153
f 623/622/190 781/781/190 625/625/190
f 782/782/186 592/592/186 606/606/186
f 783/783/251 627/627/251 691/690/251
