# Export from Prisma3D 3.1.4
mtllib Cube.mtl
o Low Poly Quad Sphere
v -0.5 0.2053789 0.003513873
v -0.3816962 0.3116758 0.3596188
v -0.004081249 0.2053789 0.5
v -0.004081249 -0.003122449 0.003513873
v -0.004081249 -0.003122449 0.003513873
v -0.004081249 0.2053789 -0.5
v -0.3475021 0.3434096 -0.3813944
v -0.5 0.2053789 0.003513873
v -0.004081249 -0.003122449 0.003513873
v -0.004081249 0.2053789 0.5
v 0.3816962 0.3349607 0.3794129
v 0.5 0.2383317 0.003513873
v 0.5 0.2383317 0.003513873
v 0.3816962 0.3349607 -0.4119077
v -0.004081249 0.2053789 -0.5
v -0.004081249 -0.003122449 0.003513873
v 0.5 1.205379 0.003513873
v 0.3688879 1.075797 0.3853669
v -0.004081249 1.205379 0.5
v -0.004081249 1.41388 0.003513873
v -0.004081249 1.41388 0.003513873
v -0.004081249 1.205379 -0.5
v 0.3688879 1.075797 -0.3853668
v 0.5 1.205379 0.003513873
v -0.004081249 1.41388 0.003513873
v -0.004081249 1.205379 0.5
v -0.3688879 1.044774 0.4283485
v -0.5 1.205379 0.003513873
v -0.5 1.205379 0.003513873
v -0.3688879 1.044774 -0.3998041
v -0.004081249 1.205379 -0.5
v -0.004081249 1.41388 0.003513873
v -0.5 0.702916 0.5
v -0.3816962 0.3116758 0.3596188
v -0.5 0.2053789 0.003513873
v -0.7270402 0.702916 0.004840017
v -0.7270402 0.702916 0.004840017
v -0.5 1.205379 0.003513873
v -0.3688879 1.044774 0.4283485
v -0.5 0.702916 0.5
v -0.7270402 0.702916 0.004840017
v -0.5 0.2053789 0.003513873
v -0.3475021 0.3434096 -0.3813944
v -0.5 0.702916 -0.5
v -0.5 0.702916 -0.5
v -0.3688879 1.044774 -0.3998041
v -0.5 1.205379 0.003513873
v -0.7270402 0.702916 0.004840017
v -0.5 0.702916 -0.5
v -0.3475021 0.3434096 -0.3813944
v -0.004081249 0.2053789 -0.5
v -0.005621522 0.702916 -0.7049283
v -0.005621522 0.702916 -0.7049283
v -0.004081249 1.205379 -0.5
v -0.3688879 1.044774 -0.3998041
v -0.5 0.702916 -0.5
v -0.005621522 0.702916 -0.7049283
v -0.004081249 0.2053789 -0.5
v 0.3816962 0.3349607 -0.4119077
v 0.5 0.702916 -0.5
v 0.5 0.702916 -0.5
v 0.3688879 1.075797 -0.3853668
v -0.004081249 1.205379 -0.5
v -0.005621522 0.702916 -0.7049283
v 0.5 0.702916 -0.5
v 0.3816962 0.3349607 -0.4119077
v 0.5 0.2383317 0.003513873
v 0.7270402 0.702916 0.004840017
v 0.7270402 0.702916 0.004840017
v 0.5 1.205379 0.003513873
v 0.3688879 1.075797 -0.3853668
v 0.5 0.702916 -0.5
v 0.7270402 0.702916 0.004840017
v 0.5 0.2383317 0.003513873
v 0.3816962 0.3349607 0.3794129
v 0.5 0.702916 0.5
v 0.5 0.702916 0.5
v 0.3688879 1.075797 0.3853669
v 0.5 1.205379 0.003513873
v 0.7270402 0.702916 0.004840017
v 0.5 0.702916 0.5
v 0.3816962 0.3349607 0.3794129
v -0.004081249 0.2053789 0.5
v -0.005621522 0.702916 0.7049283
v -0.005621522 0.702916 0.7049283
v -0.004081249 1.205379 0.5
v 0.3688879 1.075797 0.3853669
v 0.5 0.702916 0.5
v -0.005621522 0.702916 0.7049283
v -0.004081249 0.2053789 0.5
v -0.3816962 0.3116758 0.3596188
v -0.5 0.702916 0.5
v -0.5 0.702916 0.5
v -0.3688879 1.044774 0.4283485
v -0.004081249 1.205379 0.5
v -0.005621522 0.702916 0.7049283
vn -0.3683622 -0.8536763 0.368166
vn -0.3683622 -0.8536763 0.368166
vn -0.3683622 -0.8536762 0.368166
vn -0.3683622 -0.8536763 0.368166
vn -0.4071994 -0.8216766 -0.3987935
vn -0.4071995 -0.8216766 -0.3987935
vn -0.4071994 -0.8216765 -0.3987935
vn -0.4071994 -0.8216765 -0.3987935
vn 0.3996969 -0.8473858 0.3495421
vn 0.3996969 -0.8473858 0.3495421
vn 0.3996969 -0.8473858 0.3495421
vn 0.399697 -0.8473858 0.3495421
vn 0.3875802 -0.8597684 -0.3325357
vn 0.3875802 -0.8597684 -0.3325357
vn 0.3875802 -0.8597683 -0.3325357
vn 0.3875802 -0.8597683 -0.3325357
vn 0.379761 0.8411359 0.3850611
vn 0.379761 0.8411359 0.3850611
vn 0.379761 0.8411359 0.3850611
vn 0.379761 0.8411359 0.3850611
vn 0.3798331 0.8435246 -0.3797277
vn 0.3798331 0.8435246 -0.3797277
vn 0.3798331 0.8435245 -0.3797277
vn 0.3798331 0.8435245 -0.3797277
vn -0.3956185 0.8304234 0.3922794
vn -0.3956184 0.8304234 0.3922793
vn -0.3956185 0.8304234 0.3922794
vn -0.3956185 0.8304234 0.3922794
vn -0.4077718 0.821031 -0.3995377
vn -0.4077718 0.821031 -0.3995377
vn -0.4077718 0.821031 -0.3995377
vn -0.4077718 0.8210309 -0.3995376
vn -0.8359987 -0.3875092 0.3885136
vn -0.8359987 -0.3875092 0.3885136
vn -0.8359987 -0.3875092 0.3885136
vn -0.8359987 -0.3875092 0.3885136
vn -0.8327146 0.3897507 0.3932946
vn -0.8327147 0.3897507 0.3932946
vn -0.8327147 0.3897507 0.3932946
vn -0.8327147 0.3897507 0.3932947
vn -0.8048383 -0.4227488 -0.4165559
vn -0.8048383 -0.4227488 -0.416556
vn -0.8048383 -0.4227488 -0.4165559
vn -0.8048382 -0.4227487 -0.4165559
vn -0.823458 0.4025885 -0.399799
vn -0.823458 0.4025886 -0.399799
vn -0.8234581 0.4025886 -0.399799
vn -0.823458 0.4025885 -0.399799
vn -0.3956899 -0.3936329 -0.8297486
vn -0.3956898 -0.3936328 -0.8297486
vn -0.3956898 -0.3936328 -0.8297486
vn -0.3956898 -0.3936328 -0.8297486
vn -0.3753609 0.3711691 -0.8493159
vn -0.3753609 0.3711692 -0.849316
vn -0.3753609 0.3711692 -0.849316
vn -0.3753609 0.3711692 -0.8493159
vn 0.3346027 -0.3387128 -0.8793831
vn 0.3346027 -0.3387128 -0.8793831
vn 0.3346027 -0.3387128 -0.8793831
vn 0.3346027 -0.3387128 -0.8793831
vn 0.3687227 0.3698632 -0.8527865
vn 0.3687227 0.3698632 -0.8527865
vn 0.3687227 0.3698632 -0.8527865
vn 0.3687227 0.3698632 -0.8527865
vn 0.8507531 -0.3860267 -0.3566548
vn 0.850753 -0.3860267 -0.3566548
vn 0.8507531 -0.3860267 -0.3566548
vn 0.850753 -0.3860267 -0.3566548
vn 0.8308396 0.3940744 -0.3929515
vn 0.8308396 0.3940744 -0.3929515
vn 0.8308396 0.3940744 -0.3929515
vn 0.8308396 0.3940744 -0.3929515
vn 0.8362906 -0.4004232 0.3745388
vn 0.8362906 -0.4004232 0.3745388
vn 0.8362905 -0.4004232 0.3745388
vn 0.8362905 -0.4004232 0.3745388
vn 0.8275323 0.3947525 0.3992001
vn 0.8275323 0.3947526 0.3992001
vn 0.8275323 0.3947526 0.3992001
vn 0.8275323 0.3947525 0.3992001
vn 0.3687662 -0.3739279 0.8509933
vn 0.3687662 -0.3739279 0.8509932
vn 0.3687662 -0.3739279 0.8509933
vn 0.3687662 -0.3739279 0.8509932
vn 0.3687227 0.3698632 0.8527865
vn 0.3687227 0.3698632 0.8527865
vn 0.3687227 0.3698631 0.8527865
vn 0.3687227 0.3698632 0.8527865
vn -0.3844182 -0.3827285 0.8400843
vn -0.3844182 -0.3827285 0.8400843
vn -0.3844182 -0.3827285 0.8400842
vn -0.3844182 -0.3827285 0.8400843
vn -0.3406434 0.335522 0.8782865
vn -0.3406434 0.335522 0.8782864
vn -0.3406434 0.335522 0.8782864
vn -0.3406434 0.335522 0.8782864
vt 0 0.5035139
vt 0 1
vt 0.4959188 1
vt 0.4959188 0.5035139
vt 0.4959188 0.5035139
vt 0.4959188 0
vt 0 0
vt 0 0.5035139
vt 0.4959188 0.5035139
vt 0.4959188 1
vt 1 1
vt 1 0.5035139
vt 1 0.5035139
vt 1 0
vt 0.4959188 0
vt 0.4959188 0.5035139
vt 0 0.5035139
vt 0 1
vt 0.5040812 1
vt 0.5040812 0.5035139
vt 0.5040812 0.5035139
vt 0.5040812 0
vt 0 0
vt 0 0.5035139
vt 0.5040812 0.5035139
vt 0.5040812 1
vt 1 1
vt 1 0.5035139
vt 1 0.5035139
vt 1 0
vt 0.5040812 0
vt 0.5040812 0.5035139
vt 1 0.4975371
vt 1 0
vt 0.5035139 0
vt 0.5035139 0.4975371
vt 0.5035139 0.4975371
vt 0.5035139 1
vt 1 1
vt 1 0.4975371
vt 0.5035139 0.4975371
vt 0.5035139 0
vt 0 0
vt 0 0.4975371
vt 0 0.4975371
vt 0 1
vt 0.5035139 1
vt 0.5035139 0.4975371
vt 1 0.4975371
vt 1 0
vt 0.5040812 0
vt 0.5040812 0.4975371
vt 0.5040812 0.4975371
vt 0.5040812 1
vt 1 1
vt 1 0.4975371
vt 0.5040812 0.4975371
vt 0.5040812 0
vt 0 0
vt 0 0.4975371
vt 0 0.4975371
vt 0 1
vt 0.5040812 1
vt 0.5040812 0.4975371
vt 1 0.4975371
vt 1 0
vt 0.4964861 0
vt 0.4964861 0.4975371
vt 0.4964861 0.4975371
vt 0.4964861 1
vt 1 1
vt 1 0.4975371
vt 0.4964861 0.4975371
vt 0.4964861 0
vt 0 0
vt 0 0.4975371
vt 0 0.4975371
vt 0 1
vt 0.4964861 1
vt 0.4964861 0.4975371
vt 1 0.4975371
vt 1 0
vt 0.4959188 0
vt 0.4959188 0.4975371
vt 0.4959188 0.4975371
vt 0.4959188 1
vt 1 1
vt 1 0.4975371
vt 0.4959188 0.4975371
vt 0.4959188 0
vt 0 0
vt 0 0.4975371
vt 0 0.4975371
vt 0 1
vt 0.4959188 1
vt 0.4959188 0.4975371
usemtl Default
f 3/3/3 2/2/2 1/1/1
f 3/3/3 1/1/1 4/4/4
f 7/7/7 6/6/6 5/5/5
f 7/7/7 5/5/5 8/8/8
f 11/11/11 10/10/10 9/9/9
f 11/11/11 9/9/9 12/12/12
f 15/15/15 14/14/14 13/13/13
f 15/15/15 13/13/13 16/16/16
f 19/19/19 18/18/18 17/17/17
f 19/19/19 17/17/17 20/20/20
f 23/23/23 22/22/22 21/21/21
f 23/23/23 21/21/21 24/24/24
f 27/27/27 26/26/26 25/25/25
f 27/27/27 25/25/25 28/28/28
f 31/31/31 30/30/30 29/29/29
f 31/31/31 29/29/29 32/32/32
f 35/35/35 34/34/34 33/33/33
f 35/35/35 33/33/33 36/36/36
f 39/39/39 38/38/38 37/37/37
f 39/39/39 37/37/37 40/40/40
f 43/43/43 42/42/42 41/41/41
f 43/43/43 41/41/41 44/44/44
f 47/47/47 46/46/46 45/45/45
f 47/47/47 45/45/45 48/48/48
f 51/51/51 50/50/50 49/49/49
f 51/51/51 49/49/49 52/52/52
f 55/55/55 54/54/54 53/53/53
f 55/55/55 53/53/53 56/56/56
f 59/59/59 58/58/58 57/57/57
f 59/59/59 57/57/57 60/60/60
f 63/63/63 62/62/62 61/61/61
f 63/63/63 61/61/61 64/64/64
f 67/67/67 66/66/66 65/65/65
f 67/67/67 65/65/65 68/68/68
f 71/71/71 70/70/70 69/69/69
f 71/71/71 69/69/69 72/72/72
f 75/75/75 74/74/74 73/73/73
f 75/75/75 73/73/73 76/76/76
f 79/79/79 78/78/78 77/77/77
f 79/79/79 77/77/77 80/80/80
f 83/83/83 82/82/82 81/81/81
f 83/83/83 81/81/81 84/84/84
f 87/87/87 86/86/86 85/85/85
f 87/87/87 85/85/85 88/88/88
f 91/91/91 90/90/90 89/89/89
f 91/91/91 89/89/89 92/92/92
f 95/95/95 94/94/94 93/93/93
f 95/95/95 93/93/93 96/96/96
