# Blender 5.0.1
# www.blender.org
mtllib Sandwich.mtl
o Mesh_0.117
v 0.129691 3.487080 4.336849
v 0.880868 3.395761 4.227818
v -0.312928 3.586661 4.224487
v 1.362176 3.391777 3.731328
v -4.990131 1.869629 1.010865
v -4.567244 1.777145 3.045742
v -5.390394 1.648006 2.931515
v -5.431615 2.445518 2.948425
v -4.306756 3.170970 -3.309570
v -2.724275 2.916342 -4.487039
v -4.189169 2.721055 -3.273595
v -3.912968 2.706513 -4.749479
v -3.882787 1.888801 -4.773092
v 2.844965 2.907284 3.244506
v 2.800696 2.771551 4.256618
v 3.661789 2.764455 4.234203
v 2.739589 2.680667 4.636419
v 3.677143 1.950156 4.222443
v -4.221146 3.367887 3.102348
v -4.344194 2.979864 2.920771
v -3.783241 2.708678 3.231383
v -5.431615 2.445518 2.948425
v -4.567244 1.777145 3.045742
v -3.752539 1.906284 3.207864
v -2.372209 2.711101 3.467230
v 4.955706 1.904447 0.997662
v 5.218403 2.027006 -0.982870
v 5.146120 2.824986 -0.920898
v 4.895716 2.888781 -2.346905
v 5.562465 3.092604 -0.970281
v 5.055984 3.058061 -2.448440
v 5.067239 3.323425 -2.452658
v 5.562464 3.340489 -0.970281
v 3.250309 3.373630 -3.297770
v 3.194546 2.877377 -3.353837
v 4.284737 2.877377 -3.161607
v 5.004215 2.101320 -2.446858
v 5.087086 1.386204 -1.271760
v 4.251426 1.531280 -2.709057
v 4.468534 0.943054 -1.391554
v 4.173830 0.961240 -2.852201
v 3.824699 1.615023 -3.425949
v 4.315439 2.074980 -3.185125
v 2.844965 2.907284 3.244506
v 3.661789 2.764455 4.234203
v 4.008359 2.885774 2.881227
v 4.398094 2.692858 3.018033
v 3.677143 1.950156 4.222443
v 4.413447 1.901638 3.006273
v 4.186678 1.452708 3.461915
v 4.617657 1.290293 2.635415
v 4.482004 1.321387 3.459833
v 4.490200 1.060819 3.495131
v 4.008359 2.885774 2.881227
v 4.127184 2.967809 3.262039
v 2.844965 2.907284 3.244506
v 3.146306 3.095162 3.770689
v 2.708438 3.230546 3.745441
v 3.232011 3.473106 3.789860
v 4.188671 3.345270 3.248575
v 4.496734 3.360092 2.615491
v 3.746288 4.056566 3.169764
v -4.580298 0.220959 -2.450959
v -4.580298 0.220959 -2.450959
v -4.580298 0.220959 -2.450959
v -4.409008 0.091581 -4.441761
v -4.409008 0.091581 -4.441761
v -2.828850 0.091559 -4.082140
v 2.508440 0.091502 -3.232706
v 1.719397 0.091524 3.788547
v 1.719397 0.091524 3.788547
v 2.033970 0.091493 -3.697130
v 1.143421 0.091520 4.119306
v 1.143421 0.091520 4.119306
v -3.399021 0.091552 3.523407
v -3.399021 0.091552 3.523407
v -4.869350 0.220953 0.908521
v -4.869350 0.220953 0.908521
v -4.869350 0.220953 0.908521
v 3.130664 0.091534 -3.620397
v 4.071385 0.091599 -3.502657
v 4.071385 0.091599 -3.502657
v 4.744948 0.091631 -2.826165
v 4.744948 0.091631 -2.826165
v 5.088200 0.091592 -1.362804
v 5.088200 0.091592 -1.362804
v 4.980824 0.091580 0.909904
v 4.980824 0.091580 0.909904
v 4.639718 0.091616 2.606984
v 4.639718 0.091616 2.606984
v 3.962283 0.091612 3.935508
v 3.962283 0.091612 3.935508
v 3.962283 0.091612 3.935508
v 3.060455 0.091554 4.416821
v 3.060455 0.091554 4.416821
v 2.224601 0.091529 4.317573
v 2.224601 0.091529 4.317573
v -5.094169 0.091568 3.521450
v -5.094169 0.091568 3.521450
v -5.094169 0.091568 3.521450
v 1.098289 2.782709 3.936498
v 1.098289 2.782709 3.936498
v 1.316673 2.757135 3.870494
v 1.760984 2.745821 4.507164
v 1.760984 2.745821 4.507164
v 2.431966 2.722484 4.623245
v 2.431966 2.722484 4.623245
v 2.431966 2.722484 4.623245
v 2.431966 2.722484 4.623245
v 2.063234 2.673418 4.989873
v 1.071799 2.959665 4.005614
v 1.071799 2.959665 4.005614
v 1.071799 2.959665 4.005614
v 1.071799 2.959665 4.005614
v 1.071799 2.959665 4.005614
v 2.810431 2.858216 4.251082
v 2.844965 2.907284 3.244506
v 2.800696 2.771551 4.256618
v 2.800696 2.771551 4.256618
v 2.072967 2.760082 4.984333
v 2.739589 2.680667 4.636419
v 2.768209 1.878425 4.612534
v 2.768209 1.878425 4.612534
v 3.677143 1.950156 4.222443
v 3.038650 0.960422 4.401337
v 3.038650 0.960422 4.401337
v 3.940470 0.996544 3.920020
v 3.940470 0.996544 3.920020
v 3.940470 0.996544 3.920020
v -4.952254 3.410239 0.656645
v -4.952254 3.410239 0.656645
v -4.598907 3.319953 -0.462583
v -4.598907 3.319953 -0.462583
v -5.964746 2.787872 -0.176346
v -4.784424 3.082565 -0.430175
v -4.784424 3.082565 -0.430175
v -4.784424 3.082565 -0.430175
v -5.911297 2.613871 -0.195536
v -5.564525 2.827486 0.967773
v -5.248257 2.676908 2.132797
v -5.248257 2.676908 2.132797
v -5.604101 3.021690 0.970228
v -5.263317 2.867271 2.201206
v -5.263317 2.867271 2.201206
v -5.263317 2.867271 2.201206
v -5.244654 3.290580 2.110746
v -5.244654 3.290580 2.110746
v -5.244654 3.290580 2.110746
v -4.527332 3.571197 -2.008413
v -4.555828 3.813768 2.000343
v -4.555828 3.813768 2.000343
v -4.548342 4.492552 -2.063500
v -4.548342 4.492552 -2.063500
v -4.576821 4.735030 1.943693
v -4.576821 4.735030 1.943693
v -4.576821 4.735030 1.943693
v -2.724275 2.916342 -4.487039
v -4.306756 3.170970 -3.309570
v -3.358383 3.304676 -4.293765
v -4.689522 3.673148 -3.982189
v -4.710469 4.594461 -4.036507
v -4.710469 4.594461 -4.036507
v -4.189169 2.721055 -3.273595
v -4.721557 2.059895 -0.701579
v -4.721557 2.059895 -0.701579
v -4.281725 2.024168 -2.503330
v -4.281725 2.024168 -2.503330
v -3.882787 1.888801 -4.773092
v -4.281726 1.903882 -2.503330
v -4.281726 1.903882 -2.503330
v -4.281726 1.903882 -2.503330
v -3.040923 1.893961 -4.212173
v -5.431615 2.445518 2.948425
v -5.390394 1.648006 2.931515
v -4.990131 1.869629 1.010865
v -4.721558 1.939610 -0.701579
v -4.721558 1.939610 -0.701579
v -4.733543 1.323217 -0.633603
v -4.281726 1.170826 -2.503330
v -3.040923 0.964251 -4.212173
v -4.274110 1.016257 -2.498406
v -4.302060 0.964251 -4.434546
v -4.636895 0.983185 -2.291410
v -4.748507 0.989497 -1.577032
v -5.095253 0.955180 0.808782
v -5.116386 1.006968 1.462638
v -5.084838 1.081774 3.511384
v -5.084838 1.081774 3.511384
v -4.596617 1.105005 3.268551
v -4.567244 1.777145 3.045742
v -5.100204 1.181583 1.436930
v -5.325638 1.175392 0.277345
v -5.171762 1.170826 -0.910715
v -5.169436 1.088935 -0.906531
v -5.326697 1.085325 0.282019
v 4.496734 3.360092 2.615491
v 4.127184 2.967809 3.262039
v 4.464693 2.943542 2.441286
v 4.464693 2.943542 2.441286
v 4.464693 2.943542 2.441286
v 4.008359 2.885774 2.881227
v 4.445732 2.846828 2.410396
v 4.445732 2.846828 2.410396
v 4.445732 2.846828 2.410396
v 2.708438 3.230546 3.745441
v 3.232011 3.473106 3.789860
v 2.078286 3.996835 3.556587
v 2.078286 3.996835 3.556587
v 3.746288 4.056566 3.169764
v 2.629869 4.107437 4.022321
v 2.054703 4.918025 3.499330
v 2.054703 4.918025 3.499330
v 2.054703 4.918025 3.499330
v 2.606078 5.028585 3.964882
v 2.606078 5.028585 3.964882
v 3.589138 4.264074 4.014155
v 3.564967 5.185163 3.956719
v 3.564967 5.185163 3.956719
v 4.408519 4.294569 3.435162
v 4.384027 5.215642 3.377952
v 4.384027 5.215642 3.377952
v 4.894557 5.014784 1.995529
v 4.894557 5.014784 1.995529
v 4.894557 5.014784 1.995529
v 4.919248 4.093631 2.052200
v 4.919248 4.093631 2.052200
v 4.936242 1.202892 0.905752
v 4.936242 1.202892 0.905752
v 4.836174 1.205277 1.453985
v 4.836174 1.205277 1.453985
v 5.215516 1.162775 1.082442
v 4.848628 1.089136 1.461081
v 4.848628 1.089136 1.461081
v 5.235106 1.049788 1.069102
v 4.959012 1.087481 0.894416
v 4.959012 1.087481 0.894416
v 4.182786 0.991629 3.528790
v 4.617908 1.007541 2.591497
v 3.677143 1.950156 4.222443
v 4.186678 1.452708 3.461915
v 4.482004 1.321387 3.459833
v 4.490200 1.060819 3.495131
v 4.617657 1.290293 2.635415
v 4.413447 1.901638 3.006273
v 4.955706 1.904447 0.997662
v 5.218403 2.027006 -0.982870
v 5.087086 1.386204 -1.271760
v 4.468534 0.943054 -1.391554
v 5.066390 0.990906 -1.378289
v 4.723136 0.990383 -2.841652
v 4.173830 0.961240 -2.852201
v 4.050305 0.928921 -3.522254
v 3.824699 1.615023 -3.425949
v 4.008359 2.885774 2.881227
v 4.398094 2.692858 3.018033
v 4.881414 2.703471 1.139892
v 4.881414 2.703471 1.139892
v 5.146120 2.824986 -0.920898
v 5.266663 2.856043 0.987409
v 5.266663 2.856043 0.987409
v 5.266663 2.856043 0.987409
v 5.562465 3.092604 -0.970281
v 5.266663 3.083969 0.987408
v 5.266663 3.083969 0.987408
v 5.562464 3.340489 -0.970281
v 5.070732 3.914920 0.052272
v 4.924498 3.869223 -2.001513
v 5.045983 4.836141 -0.003619
v 5.045983 4.836141 -0.003619
v 4.923037 4.772306 -2.011664
v 4.923037 4.772306 -2.011664
v 4.643434 3.916888 -2.746595
v 4.432305 4.804581 -3.415307
v 4.432305 4.804581 -3.415307
v 4.456817 3.883343 -3.360745
v 3.621500 4.703834 -3.997719
v 3.621500 4.703834 -3.997719
v 3.645695 3.782560 -3.943385
v 4.643071 3.629295 -2.753272
v 5.120058 3.899783 -2.704456
v 4.959896 3.635277 -2.093198
v 5.067239 3.323425 -2.452658
v 3.250309 3.373630 -3.297770
v 5.130448 3.642529 -2.712270
v 4.496734 3.360092 2.615491
v -3.053912 4.422572 -3.908791
v -3.112598 4.889510 3.829615
v -3.112598 4.889510 3.829615
v -4.770634 5.073951 3.909308
v -4.770634 5.073951 3.909308
v 2.104683 4.492500 -3.532888
v 1.563373 4.452218 -3.933006
v 1.311209 4.924416 3.950547
v 1.311209 4.924416 3.950547
v 2.663709 4.547353 -3.994256
v 1.334502 4.003228 4.007981
v 1.362176 3.391777 3.731328
v 2.708438 3.230546 3.745441
v -3.091034 3.968309 3.886993
v -0.312928 3.586661 4.224487
v -1.118724 2.976011 3.761104
v -1.118724 2.976011 3.761104
v -1.118724 2.976011 3.761104
v 0.064424 2.904280 4.184222
v 0.064424 2.904280 4.184222
v 0.064424 2.904280 4.184222
v -1.133106 3.077286 3.829483
v -1.133106 3.077286 3.829483
v 0.081667 3.028052 4.200991
v 0.081667 3.028052 4.200991
v -1.339205 3.167940 4.063505
v -2.173491 3.073474 3.686478
v -2.173491 3.073474 3.686478
v 0.129691 3.487080 4.336849
v 0.880868 3.395761 4.227818
v 1.063146 3.073385 3.995881
v 1.063146 3.073385 3.995881
v 2.844965 2.907284 3.244506
v -2.458807 2.948274 3.621331
v -2.458807 2.948274 3.621331
v -2.458807 2.948274 3.621331
v -2.372209 2.711101 3.467230
v -3.314965 2.912559 3.566724
v -3.314965 2.912559 3.566724
v -3.783241 2.708678 3.231383
v -4.221146 3.367887 3.102348
v -3.154719 3.024067 3.758247
v -3.154719 3.024067 3.758247
v -2.566142 3.049640 3.746262
v -2.566142 3.049640 3.746262
v -2.175164 2.913818 3.623589
v -2.175164 2.913818 3.623589
v -0.834788 1.876217 3.755185
v -0.834788 1.876217 3.755185
v 0.331628 1.770893 4.031755
v 0.331628 1.770893 4.031755
v 0.698748 2.766141 4.234727
v 0.729455 1.964159 4.211206
v 1.121610 0.962255 4.103817
v 0.323741 1.634277 4.002161
v 0.323741 1.634277 4.002161
v 0.323741 1.634277 4.002161
v -0.831572 1.748436 3.787663
v -0.831572 1.748436 3.787663
v -3.420826 1.041446 3.507924
v -3.818791 1.402088 3.347827
v -3.818791 1.402088 3.347827
v -3.818791 1.402088 3.347827
v -2.159105 1.586794 3.498548
v -2.159105 1.586794 3.498548
v -2.147320 1.754513 3.473504
v -2.147320 1.754513 3.473504
v -3.752539 1.906284 3.207864
v -3.791980 1.517042 3.283446
v -3.791980 1.517042 3.283446
v -4.567244 1.777145 3.045742
v -4.596617 1.105005 3.268551
v 1.697589 0.970793 3.773061
v 2.202802 0.983846 4.302094
v 1.791682 1.944495 4.483649
v 1.347378 1.955089 3.846974
v 1.316673 2.757135 3.870494
v -0.118822 1.607140 4.561499
v -0.118822 1.607140 4.561499
v -0.117709 1.734631 4.566990
v -5.593245 1.841023 -1.706194
v -5.593245 1.841023 -1.706194
v -5.593245 1.961309 -1.706194
v -3.580245 1.404431 4.163061
v -3.580245 1.404431 4.163061
v -3.574998 1.521924 4.142644
v -1.605634 2.912818 4.336208
v -1.605634 2.912818 4.336208
v -1.612904 3.029859 4.330851
v 0.462997 2.909844 4.676991
v 0.462997 2.909844 4.676991
v 0.454523 3.028849 4.681034
v -2.870412 2.911088 4.106503
v -2.870412 2.911088 4.106503
v -2.873972 3.028274 4.098777
v 5.385215 2.854687 1.563184
v 5.385215 2.962070 1.563184
v -5.431615 2.445518 2.948425
v -4.344194 2.979864 2.920771
v -4.749707 4.152820 3.966717
vn -0.9036 -0.4209 -0.0800
vn -0.9415 -0.3263 -0.0846
vn -0.0352 -0.9992 0.0196
vn -0.0000 -1.0000 -0.0000
vn -0.1416 -0.9573 0.2519
vn 0.3012 -0.5166 0.8015
vn -0.0769 -0.8937 0.4420
vn -0.0763 -0.9971 -0.0065
vn -0.0751 -0.9971 -0.0073
vn 0.0001 -1.0000 -0.0000
vn 0.2648 -0.9275 -0.2640
vn 0.8117 -0.3705 -0.4514
vn 0.6779 -0.7325 -0.0631
vn 0.8274 -0.5524 0.1012
vn 0.8931 -0.3330 0.3024
vn 0.6473 -0.3689 0.6670
vn 0.1137 -0.7751 0.6216
vn -0.2821 -0.1123 0.9528
vn -0.8350 -0.2938 0.4652
vn -0.8311 -0.5454 -0.1088
vn 0.3163 -0.5890 0.7437
vn -0.3529 -0.4714 0.8083
vn -0.5305 -0.6930 0.4881
vn 0.3352 -0.0554 0.9405
vn -0.2415 -0.8260 0.5093
vn 0.5638 -0.2157 0.7972
vn 0.5637 -0.2157 0.7973
vn 0.6916 0.4799 0.5398
vn 0.5533 -0.4156 0.7219
vn 0.4795 0.8083 0.3416
vn 0.4835 0.8076 0.3376
vn 0.6915 0.4799 0.5398
vn 0.4239 0.3019 0.8539
vn -0.2417 -0.8260 0.5093
vn 0.0293 0.5895 0.8072
vn 0.2609 0.4482 0.8550
vn 0.0307 -0.1300 0.9910
vn 0.6734 -0.0402 0.7382
vn 0.2244 -0.0610 0.9726
vn 0.7325 0.0484 0.6791
vn -0.0695 -0.1561 0.9853
vn 0.3963 0.2784 0.8749
vn 0.0278 0.3563 0.9340
vn 0.3892 0.2279 0.8925
vn -0.9791 -0.1515 -0.1359
vn -0.5183 0.1207 0.8466
vn -0.9236 -0.3714 0.0952
vn -0.6503 0.2945 0.7002
vn -0.5088 0.8572 -0.0798
vn -0.5007 0.7348 -0.4575
vn -0.8312 0.3855 -0.4007
vn -0.8702 -0.2882 -0.3997
vn -0.4850 -0.7940 -0.3665
vn -0.6919 -0.6664 0.2780
vn -0.8743 -0.2775 -0.3983
vn -0.9491 -0.3045 -0.0809
vn -0.9608 0.1668 0.2217
vn -0.9125 0.2412 0.3304
vn -0.7515 0.5001 0.4303
vn -0.9918 0.0992 -0.0806
vn -0.9567 0.2911 -0.0039
vn -0.9520 0.3031 0.0426
vn -0.7035 0.7000 -0.1231
vn -0.6724 0.0563 -0.7380
vn -0.7337 -0.3209 -0.5989
vn -0.8388 -0.1400 -0.5261
vn -0.9557 -0.2873 0.0638
vn -0.6601 0.7455 0.0920
vn -0.9653 0.0827 -0.2476
vn -0.5087 0.8572 -0.0798
vn -0.9400 0.3404 0.0248
vn -0.9202 0.2283 -0.3181
vn -0.9478 -0.2716 -0.1671
vn -0.6632 -0.5090 -0.5487
vn -0.7655 -0.3276 -0.5539
vn -0.9125 0.2412 0.3305
vn -0.9491 -0.3045 -0.0810
vn -0.6503 0.2946 0.7002
vn -0.9710 -0.1983 0.1335
vn -0.7644 0.6298 -0.1378
vn -0.8786 0.1523 -0.4527
vn -0.7499 0.3645 -0.5521
vn -0.7044 0.5829 -0.4051
vn -0.3510 0.9338 -0.0689
vn -0.8863 0.4468 -0.1216
vn -0.9415 -0.3262 -0.0846
vn -0.9036 -0.4208 -0.0799
vn -0.9785 -0.1350 -0.1557
vn -0.7614 -0.6444 -0.0707
vn -0.9825 0.1200 0.1424
vn -0.3105 0.8797 0.3601
vn -0.4096 0.5311 0.7417
vn -0.9304 0.3475 0.1169
vn -0.9090 0.4138 -0.0491
vn -0.7495 0.6172 -0.2394
vn -0.8795 -0.3638 -0.3069
vn -0.9500 -0.2997 0.0876
vn -0.9653 0.0828 -0.2476
vn -0.7462 0.6496 -0.1455
vn 0.4795 0.8083 0.3417
vn 0.3026 0.8800 0.3660
vn 0.2610 0.4483 0.8550
vn 0.9116 0.0648 0.4059
vn 0.5470 -0.6113 0.5719
vn 0.7948 -0.2291 0.5620
vn 0.7031 0.3257 0.6322
vn 0.7130 -0.1604 0.6826
vn 0.0043 0.0366 0.9993
vn 0.2561 0.1471 0.9554
vn 0.1943 -0.0385 0.9802
vn 0.5685 -0.4178 0.7087
vn -0.3376 -0.4659 0.8179
vn -0.2071 0.9629 0.1729
vn -0.1989 0.1738 0.9645
vn 0.2155 -0.4070 0.8876
vn 0.2991 0.5881 0.7515
vn 0.7477 -0.2880 0.5984
vn 0.4364 0.8526 0.2874
vn 0.8253 0.5387 0.1694
vn 0.9174 -0.2331 0.3226
vn 0.9777 0.1822 0.1040
vn 0.9315 0.2607 0.2536
vn 0.6584 0.4334 0.6154
vn 0.9006 -0.1679 0.4010
vn 0.4599 -0.7156 0.5258
vn 0.9864 -0.1629 0.0211
vn 0.7325 0.0484 0.6790
vn 0.6525 -0.1064 0.7503
vn 0.8932 -0.3329 0.3024
vn 0.9446 -0.2341 0.2301
vn 0.6735 -0.0402 0.7381
vn 0.7632 0.2652 0.5892
vn 0.4305 0.3608 0.8273
vn 0.9027 -0.1952 0.3835
vn 0.9408 0.2642 0.2125
vn 0.9315 0.2606 0.2536
vn 0.9393 0.0813 0.3333
vn 0.9820 0.0535 0.1811
vn 0.9778 0.1822 0.1039
vn 0.9989 0.0376 -0.0273
vn 0.9046 -0.3897 -0.1730
vn 0.7591 0.6084 -0.2314
vn 0.9229 0.3741 -0.0913
vn 0.9006 -0.1678 0.4009
vn 0.3055 0.9305 -0.2022
vn 0.7932 0.5472 -0.2671
vn 0.6996 0.4601 -0.5466
vn 0.9025 -0.0673 -0.4255
vn 0.2649 -0.9274 -0.2640
vn 0.8118 -0.3704 -0.4514
vn 0.6778 -0.7325 -0.0631
vn 0.7031 0.3257 0.6321
vn 0.8123 0.4487 0.3725
vn 0.7130 -0.1603 0.6826
vn 0.9177 -0.3481 0.1916
vn 0.8782 -0.4781 0.0099
vn 0.8575 -0.5073 -0.0860
vn 0.9123 -0.3913 -0.1210
vn 0.9426 0.2522 0.2188
vn 0.9168 0.3712 -0.1470
vn 0.9670 0.2330 0.1030
vn 0.9142 0.3958 -0.0870
vn 0.8014 0.5973 -0.0324
vn 0.8330 0.5012 -0.2343
vn 0.8620 0.2342 -0.4495
vn 0.7415 0.5413 -0.3963
vn 0.7952 -0.0925 -0.5993
vn 0.3730 0.6186 -0.6915
vn 0.6317 -0.3521 -0.6906
vn 0.5676 -0.2375 -0.7883
vn 0.7907 0.3268 -0.5177
vn 0.9959 0.0610 -0.0666
vn 0.8354 0.0993 -0.5406
vn 0.4034 -0.2649 -0.8758
vn 0.6483 -0.6245 -0.4356
vn 0.9174 -0.2332 0.3225
vn 0.8253 0.5386 0.1693
vn -0.6601 0.7455 0.0921
vn -0.9520 0.3032 0.0425
vn 0.0025 0.9991 -0.0422
vn -0.7036 0.6999 -0.1231
vn 0.0406 0.7611 0.6474
vn -0.5426 0.6830 0.4889
vn -0.1078 0.9940 -0.0190
vn -0.0232 0.9979 -0.0597
vn 0.1948 0.6560 0.7292
vn -0.1988 0.1739 0.9645
vn 0.4364 0.8526 0.2875
vn 0.8253 0.5387 0.1693
vn 0.7415 0.5414 -0.3962
vn 0.3729 0.6186 -0.6916
vn -0.1608 0.9839 -0.0779
vn -0.6065 -0.1882 0.7725
vn -0.5774 0.3137 0.7538
vn -0.2881 -0.1369 0.9477
vn -0.1762 0.0624 0.9824
vn -0.1379 -0.3602 0.9226
vn 0.2276 0.0707 0.9712
vn 0.3893 0.2278 0.8925
vn 0.0407 0.7611 0.6473
vn -0.0924 -0.0949 0.9912
vn 0.0278 0.3562 0.9340
vn -0.0046 -0.5737 0.8191
vn -0.2821 -0.2109 0.9359
vn 0.1660 -0.2667 0.9494
vn -0.3053 -0.2605 0.9159
vn -0.1783 -0.5992 0.7805
vn -0.2678 -0.3287 0.9057
vn -0.0696 -0.1561 0.9853
vn 0.3478 0.3656 0.8634
vn 0.1929 -0.6037 0.7735
vn -0.4003 -0.5481 0.7344
vn -0.2882 -0.1370 0.9477
vn -0.6065 -0.1883 0.7725
vn -0.5771 0.1156 0.8085
vn 0.4126 0.0892 0.9065
vn -0.2157 -0.6972 0.6836
vn -0.3028 0.1834 0.9352
vn 0.0582 -0.0287 0.9979
vn 0.1646 -0.0534 0.9849
vn 0.3163 -0.5890 0.7436
vn 0.3034 -0.0448 0.9518
vn -0.0114 -0.0530 0.9985
vn 0.2125 -0.7280 0.6519
vn -0.4097 0.0380 0.9114
vn -0.1103 0.3520 0.9295
vn -0.5185 0.1512 0.8416
vn 0.1478 -0.0901 0.9849
vn -0.1295 0.3244 0.9370
vn -0.1762 0.0625 0.9824
vn -0.4040 0.5619 0.7219
vn -0.4096 0.5312 0.7417
vn -0.8351 -0.2937 0.4652
vn -0.0769 -0.8937 0.4421
vn 0.3011 -0.5166 0.8015
vn -0.1198 -0.1364 0.9834
vn -0.1416 -0.9573 0.2521
vn -0.4579 -0.1565 0.8751
vn -0.2821 -0.1124 0.9528
vn 0.2243 -0.0609 0.9726
vn 0.1136 -0.7751 0.6215
vn 0.0306 -0.1300 0.9910
vn -0.4723 -0.2113 0.8557
vn -0.5306 -0.6930 0.4881
vn -0.1039 -0.0301 0.9941
vn -0.3528 -0.4713 0.8083
vn 0.2124 -0.7279 0.6519
vn 0.4508 -0.4641 0.7624
vn -0.3994 0.4001 0.8249
vn 0.4509 -0.4641 0.7624
vn 0.2124 -0.7280 0.6519
vn -0.7442 -0.6619 -0.0895
vn -0.9482 0.2750 -0.1592
vn -0.9202 0.2283 -0.3180
vn -0.7441 -0.6620 -0.0896
vn -0.2835 -0.5155 0.8086
vn -0.3933 0.5064 0.7674
vn -0.5184 0.1513 0.8417
vn -0.4040 0.5618 0.7219
vn -0.0045 -0.5737 0.8191
vn -0.0010 -0.4782 0.8783
vn -0.2158 -0.6973 0.6835
vn -0.0122 0.6354 0.7721
vn 0.1659 -0.2667 0.9494
vn -0.0011 -0.4782 0.8783
vn -0.0046 -0.5736 0.8191
vn -0.2821 -0.2110 0.9359
vn -0.4950 -0.3548 0.7932
vn 0.4294 0.3969 0.8112
vn 0.3478 0.3656 0.8633
vn 0.5639 -0.2158 0.7972
vn -0.4950 -0.3548 0.7931
vn 0.1930 -0.6037 0.7735
vn 0.0026 -0.2422 0.9702
vn -0.4003 -0.5480 0.7344
vn -0.5771 0.1156 0.8084
vn -0.0442 0.6834 0.7287
vn 0.0025 -0.2422 0.9702
vn 0.9989 0.0376 -0.0274
vn 0.8783 -0.4781 0.0099
vn 0.9371 -0.0980 -0.3351
vn 0.9123 -0.3913 -0.1211
vn 0.6166 -0.3114 -0.7230
vn 0.8354 0.0992 -0.5406
vn 0.4035 -0.2649 -0.8758
vn 0.4660 0.1872 -0.8648
vn 0.7361 0.2747 -0.6186
vn 0.8628 -0.1699 -0.4762
vn 0.9045 -0.3897 -0.1731
vn 0.7524 -0.4735 -0.4579
vn 0.7932 0.5473 -0.2671
vn 0.9024 -0.0673 -0.4255
vn 0.7105 -0.3815 -0.5914
vn 0.3025 0.8801 0.3660
vn 0.9393 0.0813 0.3334
vn 0.7632 0.2653 0.5892
vn 0.9407 0.2642 0.2126
vn 0.9027 -0.1953 0.3835
vn 0.8575 -0.5072 -0.0860
vn 0.6721 -0.7202 0.1721
vn 0.9176 -0.3482 0.1916
vn 0.9472 -0.0499 0.3169
vn 0.7948 -0.2290 0.5620
vn 0.7030 0.3256 0.6322
vn 0.0169 -0.6089 0.7931
vn 0.0044 0.0366 0.9993
vn 0.2562 0.1470 0.9554
vn 0.6898 0.2180 0.6904
vn 0.9116 0.0649 0.4059
vn -0.6503 0.2945 0.7003
vn -0.7198 -0.3189 0.6165
vn -0.7035 0.7000 -0.1230
vn -0.5426 0.6831 0.4890
vt 0.040866 0.134157
vt 0.030138 0.017712
vt 0.127342 0.024511
vt 0.428805 0.046699
vt 0.427739 0.457754
vt 0.385661 0.019940
vt 0.395927 0.480894
vt 0.126682 0.477032
vt 0.040408 0.368491
vt 0.461466 0.019347
vt 0.518152 0.019536
vt 0.565839 0.053482
vt 0.594021 0.135541
vt 0.601477 0.252732
vt 0.593388 0.369889
vt 0.564743 0.451800
vt 0.516865 0.485470
vt 0.460262 0.484944
vt 0.029439 0.483661
vt 0.250705 0.505874
vt 0.258489 0.495416
vt 0.300106 0.508767
vt 0.337669 0.494138
vt 0.330359 0.520372
vt 0.249452 0.516677
vt 0.327509 0.577307
vt 0.293175 0.624478
vt 0.332376 0.578003
vt 0.332451 0.577497
vt 0.332569 0.550931
vt 0.326916 0.524263
vt 0.341893 0.546147
vt 0.349741 0.561078
vt 0.396057 0.551695
vt 0.398303 0.604585
vt 0.446577 0.565082
vt 0.448894 0.622011
vt 0.777857 0.369480
vt 0.786465 0.411616
vt 0.763784 0.346051
vt 0.775464 0.448286
vt 0.360999 0.826482
vt 0.470118 0.812533
vt 0.456956 0.834547
vt 0.461871 0.856569
vt 0.666965 0.490806
vt 0.701217 0.556091
vt 0.611206 0.554837
vt 0.685331 0.565833
vt 0.603018 0.563458
vt 0.604638 0.482499
vt 0.521411 0.551458
vt 0.610625 0.403843
vt 0.617526 0.482676
vt 0.623124 0.401657
vt 0.649223 0.410075
vt 0.174556 0.925689
vt 0.416714 0.933129
vt 0.173659 0.979858
vt 0.413137 0.986572
vt 0.006115 0.900771
vt 0.103161 0.897618
vt 0.037371 0.911781
vt 0.069854 0.947842
vt 0.064272 0.988365
vt 0.097760 0.875815
vt 0.272192 0.896765
vt 0.268925 0.913535
vt 0.339195 0.899440
vt 0.416641 0.887040
vt 0.256528 0.839672
vt 0.144164 0.836413
vt 0.016602 0.840323
vt 0.143647 0.829849
vt 0.033373 0.812583
vt 0.426925 0.880001
vt 0.421170 0.871997
vt 0.256505 0.834103
vt 0.260424 0.806324
vt 0.147346 0.790626
vt 0.035892 0.784173
vt 0.147020 0.781578
vt 0.045643 0.755690
vt 0.164379 0.769544
vt 0.042452 0.716686
vt 0.154681 0.724637
vt 0.207174 0.775221
vt 0.344067 0.733107
vt 0.345113 0.769316
vt 0.491368 0.723376
vt 0.381979 0.774758
vt 0.497821 0.768074
vt 0.484919 0.789659
vt 0.380962 0.784631
vt 0.314560 0.784192
vt 0.251499 0.783369
vt 0.251338 0.779579
vt 0.315311 0.779519
vt 0.019162 0.868197
vt 0.358793 0.607658
vt 0.218855 0.553043
vt 0.168069 0.530355
vt 0.221483 0.520131
vt 0.176918 0.508595
vt 0.223203 0.513674
vt 0.069066 0.551276
vt 0.104838 0.565416
vt 0.037728 0.614132
vt 0.156465 0.602837
vt 0.072407 0.640630
vt 0.012669 0.676515
vt 0.060469 0.697003
vt 0.127338 0.652666
vt 0.127965 0.708692
vt 0.182153 0.645630
vt 0.197035 0.702192
vt 0.285294 0.666428
vt 0.268090 0.606095
vt 0.450601 0.895785
vt 0.484098 0.865268
vt 0.474954 0.907606
vt 0.493114 0.868311
vt 0.483208 0.912078
vt 0.509951 0.912132
vt 0.972432 0.832064
vt 0.976194 0.882585
vt 0.947396 0.833804
vt 0.890071 0.882744
vt 0.889017 0.831264
vt 0.989585 0.781555
vt 0.942509 0.804599
vt 0.934126 0.815550
vt 0.933988 0.826265
vt 0.890808 0.815516
vt 0.821838 0.818562
vt 0.914027 0.781346
vt 0.796113 0.776334
vt 0.787590 0.818965
vt 0.681315 0.757649
vt 0.663554 0.790779
vt 0.786092 0.825228
vt 0.649007 0.829002
vt 0.657683 0.860105
vt 0.794841 0.883992
vt 0.821619 0.824682
vt 0.578816 0.860989
vt 0.567609 0.833999
vt 0.529937 0.847675
vt 0.523549 0.804748
vt 0.520160 0.895861
vt 0.576618 0.910422
vt 0.664606 0.909617
vt 0.919720 0.715228
vt 0.915879 0.739733
vt 0.883734 0.726170
vt 0.807539 0.729296
vt 0.686496 0.714003
vt 0.795969 0.706154
vt 0.685751 0.687515
vt 0.795505 0.693651
vt 0.686195 0.674401
vt 0.747465 0.635804
vt 0.619507 0.634232
vt 0.745497 0.580224
vt 0.622479 0.581770
vt 0.576240 0.627840
vt 0.541132 0.573629
vt 0.541202 0.623917
vt 0.485111 0.576171
vt 0.485350 0.626576
vt 0.571068 0.648183
vt 0.589296 0.635516
vt 0.612431 0.648561
vt 0.597774 0.672236
vt 0.482663 0.674408
vt 0.588868 0.643934
vt 0.891754 0.702495
vt 0.899922 0.677475
vt 0.865700 0.629002
vt 0.864407 0.575153
vt 0.030138 0.017712
vt 0.427739 0.457754
vt 0.395927 0.480894
vt 0.601477 0.252732
vt 0.774924 0.096800
vt 0.804084 0.089582
vt 0.814331 0.127952
vt 0.857310 0.031514
vt 0.866296 0.082416
vt 0.862908 0.126103
vt 0.818115 0.212976
vt 0.685173 0.495929
vt 0.682653 0.444280
vt 0.739644 0.493392
vt 0.737114 0.443559
vt 0.787650 0.529487
vt 0.676337 0.186912
vt 0.732012 0.183384
vt 0.808180 0.289869
vt 0.811378 0.364069
vt 0.801199 0.290208
vt 0.804015 0.365231
vt 0.784275 0.282304
vt 0.793348 0.228319
vt 0.802206 0.428430
vt 0.808775 0.429214
vt 0.820641 0.546122
vt 0.800519 0.210487
vt 0.795950 0.157791
vt 0.786573 0.169727
vt 0.790984 0.204824
vt 0.804517 0.227090
vt 0.873102 0.304448
vt 0.880510 0.376159
vt 0.822696 0.400993
vt 0.809239 0.425738
vt 0.820481 0.430138
vt 0.869011 0.402131
vt 0.929520 0.422596
vt 0.888715 0.375160
vt 0.880963 0.304743
vt 0.921104 0.147828
vt 0.896403 0.123643
vt 0.886776 0.223012
vt 0.876590 0.223864
vt 0.887887 0.124629
vt 0.910029 0.076191
vt 0.926331 0.047628
vt 0.984924 0.050833
vt 0.978267 0.149967
vt 0.981310 0.423244
vt 0.930331 0.461394
vt 0.981251 0.461997
vt 0.928509 0.504719
vt 0.981818 0.504308
vt 0.934921 0.554750
vt 0.983628 0.553305
vt 0.984913 0.611312
vt 0.934146 0.611588
vt 0.877124 0.546312
vt 0.867997 0.490228
vt 0.825495 0.530674
vt 0.821627 0.490086
vt 0.870821 0.445067
vt 0.822446 0.443729
vt 0.610976 0.931126
vt 0.582704 0.961788
vt 0.542672 0.913200
vt 0.576421 0.965954
vt 0.535418 0.916131
vt 0.542522 0.989663
vt 0.581086 0.971928
vt 0.546955 0.996746
vt 0.765795 0.903269
vt 0.765789 0.910527
vt 0.672356 0.925865
vt 0.674907 0.932738
vt 0.781083 0.988928
vt 0.788107 0.986770
vt 0.772420 0.907426
vt 0.858890 0.902710
vt 0.890935 0.953960
vt 0.897334 0.950068
vt 0.925283 0.994746
vt 0.933388 0.992416
vt 0.985188 0.902161
vt 0.977558 0.894678
vt 0.892169 0.944636
vt 0.872085 0.895117
vt 0.460167 0.694043
vt 0.387612 0.702910
vt 0.394650 0.615761
vt 0.378382 0.619735
vt 0.376094 0.703338
vt 0.305616 0.687240
vt 0.371219 0.712561
vt 0.309071 0.700289
vt 0.507255 0.945304
vt 0.478587 0.972483
vt 0.500836 0.940849
vt 0.473546 0.967010
vt 0.442371 0.918963
vt 0.436791 0.923548
vt 0.467241 0.970962
vt 0.431185 0.987018
vt 0.679063 0.958692
vt 0.641684 0.967145
vt 0.639817 0.925106
vt 0.633747 0.940405
vt 0.634619 0.966950
vt 0.606669 0.963326
vt 0.634243 0.974010
vt 0.596283 0.968575
vt 0.595522 0.703634
vt 0.596129 0.688375
vt 0.479011 0.702875
vt 0.539440 0.723944
vt 0.598250 0.751671
vt 0.574025 0.800426
vt 0.546965 0.767182
vt 0.969595 0.676416
vt 0.986195 0.742369
vt 0.587588 0.017170
vt 0.619674 0.041874
vt 0.573172 0.043958
vt 0.609354 0.129684
vt 0.626438 0.044975
vt 0.616261 0.131620
vt 0.661396 0.025159
vt 0.651225 0.012675
vt 0.085711 0.506607
vt 0.097728 0.543059
vt 0.172926 0.554421
vt 0.818433 0.022336
vt 0.798821 0.015354
vt 0.752265 0.018895
vt 0.706173 0.102251
vt 0.679828 0.013315
vt 0.647286 0.103317
s 1
usemtl sandwich
f 65/1/1 67/2/2 68/3/3
f 69/4/4 71/5/5 72/6/4
f 71/5/5 74/7/6 72/6/4
f 74/7/6 76/8/7 72/6/4
f 72/6/4 76/8/7 68/3/3
f 68/3/3 76/8/7 63/1/8
f 76/8/7 77/9/9 63/1/8
f 80/10/10 82/11/11 69/4/4
f 82/11/11 84/12/12 69/4/4
f 84/12/12 86/13/13 69/4/4
f 86/13/13 87/14/14 69/4/4
f 69/4/4 87/14/14 71/5/5
f 87/14/14 89/15/15 71/5/5
f 89/15/15 91/16/16 71/5/5
f 91/16/16 95/17/17 71/5/5
f 71/5/5 95/17/17 96/18/18
f 99/19/19 79/9/20 76/8/7
f 102/20/21 103/21/22 105/22/23
f 109/23/24 110/24/25 105/22/23
f 105/22/23 110/24/25 102/20/21
f 110/24/25 114/25/26 102/20/21
f 114/25/27 116/26/28 117/27/29
f 116/26/28 118/28/30 117/27/29
f 119/29/31 116/26/32 106/30/24
f 116/26/32 120/31/33 106/30/24
f 106/30/24 120/31/33 110/24/34
f 110/24/34 120/31/33 111/25/35
f 120/31/33 116/26/32 111/25/35
f 118/28/30 107/32/24 121/33/36
f 107/32/24 122/34/37 121/33/36
f 121/33/36 122/34/37 124/35/38
f 122/34/37 125/36/39 124/35/38
f 124/35/38 125/36/39 129/37/40
f 1/38/41 2/39/42 3/40/43
f 2/39/42 4/41/44 3/40/43
f 5/42/45 6/43/46 7/44/47
f 6/43/46 8/45/48 7/44/47
f 130/46/49 133/47/50 134/48/51
f 133/47/50 137/49/52 134/48/51
f 137/49/52 138/50/53 134/48/51
f 134/48/51 138/50/53 139/51/54
f 138/50/53 135/52/55 139/51/54
f 135/52/55 141/53/56 139/51/54
f 139/51/54 141/53/56 142/54/57
f 141/53/56 143/55/58 142/54/57
f 143/55/58 146/56/59 142/54/57
f 146/56/59 130/46/49 142/54/57
f 130/46/49 134/48/51 142/54/57
f 142/54/57 134/48/51 139/51/54
f 149/57/60 151/58/61 152/59/62
f 151/58/61 156/60/63 152/59/62
f 157/61/64 158/62/65 159/63/66
f 158/62/65 149/57/60 159/63/66
f 159/63/66 149/57/60 160/64/67
f 149/57/60 152/59/62 160/64/67
f 160/64/67 152/59/62 162/65/68
f 158/62/65 163/66/69 149/57/60
f 163/66/69 136/67/55 149/57/60
f 136/67/55 132/68/50 149/57/60
f 149/57/60 132/68/50 151/58/61
f 132/68/50 131/69/70 151/58/61
f 151/58/61 131/69/70 147/70/59
f 165/71/71 136/67/55 167/72/72
f 136/67/55 163/66/69 167/72/72
f 163/66/69 168/73/73 167/72/72
f 167/72/72 168/73/73 170/74/74
f 168/73/73 172/75/75 170/74/74
f 144/76/76 140/77/77 173/45/78
f 173/45/78 140/77/77 174/44/47
f 174/44/47 140/77/77 175/42/45
f 140/77/77 136/67/55 175/42/45
f 136/67/55 165/71/71 175/42/45
f 165/71/71 177/78/79 175/42/45
f 175/42/45 177/78/79 178/79/80
f 178/79/80 177/78/79 179/80/81
f 177/78/79 170/74/74 179/80/81
f 170/74/74 172/75/75 179/80/81
f 172/75/75 180/81/82 179/80/81
f 179/80/81 180/81/82 181/82/83
f 180/81/82 182/83/84 181/82/83
f 181/82/83 182/83/84 183/84/85
f 182/83/84 66/85/86 183/84/85
f 66/85/86 64/86/87 183/84/85
f 183/84/85 64/86/87 184/87/88
f 64/86/87 78/88/20 184/87/88
f 184/87/88 78/88/20 185/89/89
f 78/88/20 98/90/19 185/89/89
f 185/89/89 98/90/19 186/91/90
f 98/90/19 188/92/91 186/91/90
f 188/92/91 189/93/92 186/91/90
f 186/91/90 189/93/92 190/43/46
f 186/91/90 190/43/46 191/94/93
f 190/43/46 175/42/45 191/94/93
f 175/42/45 178/79/80 191/94/93
f 191/94/93 178/79/80 192/95/94
f 192/95/94 178/79/80 193/96/95
f 178/79/80 179/80/81 193/96/95
f 193/96/95 179/80/81 194/97/96
f 179/80/81 181/82/83 194/97/96
f 194/97/96 181/82/83 184/87/88
f 181/82/83 183/84/85 184/87/88
f 193/96/95 194/97/96 192/95/94
f 194/97/96 195/98/97 192/95/94
f 192/95/94 195/98/97 191/94/93
f 191/94/93 195/98/97 186/91/90
f 186/91/90 195/98/97 185/89/89
f 195/98/97 194/97/96 185/89/89
f 185/89/89 194/97/96 184/87/88
f 9/62/65 10/61/64 11/66/98
f 10/61/64 12/99/99 11/66/98
f 11/66/98 12/99/99 13/73/73
f 14/27/29 15/28/100 16/100/101
f 15/28/100 17/33/102 16/100/101
f 16/100/101 17/33/102 18/35/38
f 196/101/103 197/102/104 200/103/105
f 197/102/104 201/104/106 200/103/105
f 200/103/105 201/104/106 202/105/107
f 205/106/108 206/107/109 208/108/110
f 206/107/109 209/109/111 208/108/110
f 209/109/111 210/110/112 208/108/110
f 208/108/110 210/110/112 213/111/113
f 213/111/113 210/110/112 215/112/114
f 210/110/112 216/113/115 215/112/114
f 215/112/114 216/113/115 217/114/116
f 216/113/115 219/115/117 217/114/116
f 217/114/116 219/115/117 220/116/118
f 220/116/118 219/115/117 222/117/119
f 222/117/119 219/115/117 225/118/120
f 219/115/117 209/109/111 225/118/120
f 225/118/120 209/109/111 196/101/103
f 219/115/117 216/113/115 209/109/111
f 216/113/115 210/110/112 209/109/111
f 227/119/121 229/120/122 231/121/123
f 229/120/122 232/122/124 231/121/123
f 231/121/123 232/122/124 234/123/125
f 232/122/124 235/124/126 234/123/125
f 128/125/127 93/126/16 237/127/128
f 93/126/16 90/128/129 237/127/128
f 237/127/128 90/128/129 238/129/130
f 239/130/131 128/125/127 240/131/132
f 128/125/127 237/127/128 240/131/132
f 240/131/132 237/127/128 241/132/133
f 241/132/133 237/127/128 242/133/134
f 237/127/128 238/129/130 242/133/134
f 242/133/134 238/129/130 243/134/135
f 238/129/130 230/135/136 243/134/135
f 243/134/135 230/135/136 244/136/137
f 244/136/137 230/135/136 245/137/138
f 230/135/136 228/138/139 245/137/138
f 245/137/138 228/138/139 246/139/140
f 246/139/140 228/138/139 247/140/141
f 228/138/139 236/141/126 247/140/141
f 247/140/141 236/141/126 248/142/142
f 248/142/142 236/141/126 249/143/143
f 249/143/143 236/141/126 88/144/14
f 236/141/126 233/145/144 88/144/14
f 88/144/14 233/145/144 90/128/129
f 90/128/129 233/145/144 238/129/130
f 233/145/144 230/135/136 238/129/130
f 249/143/143 250/146/145 248/142/142
f 248/142/142 250/146/145 251/147/146
f 250/146/145 252/148/147 251/147/146
f 251/147/146 252/148/147 253/149/148
f 81/150/149 252/148/147 83/151/150
f 252/148/147 250/146/145 83/151/150
f 250/146/145 249/143/143 83/151/150
f 83/151/150 249/143/143 85/152/151
f 249/143/143 88/144/14 85/152/151
f 254/153/152 255/154/153 203/155/154
f 203/155/154 255/154/153 257/156/155
f 255/154/153 244/136/137 257/156/155
f 244/136/137 245/137/138 257/156/155
f 245/137/138 258/157/156 257/156/155
f 257/156/155 258/157/156 260/158/157
f 258/157/156 262/159/158 260/158/157
f 260/158/157 262/159/158 263/160/159
f 262/159/158 265/161/160 263/160/159
f 263/160/159 265/161/160 266/162/161
f 265/161/160 267/163/162 266/162/161
f 266/162/161 267/163/162 269/164/163
f 269/164/163 267/163/162 271/165/164
f 267/163/162 272/166/165 271/165/164
f 271/165/164 272/166/165 274/167/166
f 272/166/165 275/168/167 274/167/166
f 274/167/166 275/168/167 277/169/168
f 277/169/168 275/168/167 278/170/169
f 278/170/169 275/168/167 279/171/170
f 275/168/167 272/166/165 279/171/170
f 279/171/170 272/166/165 280/172/171
f 272/166/165 267/163/162 280/172/171
f 280/172/171 267/163/162 281/173/172
f 267/163/162 265/161/160 281/173/172
f 265/161/160 282/174/173 281/173/172
f 281/173/172 282/174/173 279/171/170
f 279/171/170 282/174/173 278/170/169
f 282/174/173 283/175/174 278/170/169
f 279/171/170 280/172/171 284/176/175
f 280/172/171 281/173/172 284/176/175
f 284/176/175 281/173/172 279/171/170
f 198/177/105 263/160/159 285/178/103
f 263/160/159 266/162/161 285/178/103
f 285/178/103 266/162/161 226/179/176
f 266/162/161 269/164/163 226/179/176
f 226/179/176 269/164/163 223/180/177
f 161/19/178 153/9/179 286/8/180
f 153/9/179 155/1/181 286/8/180
f 286/8/180 155/1/181 288/3/182
f 155/1/181 289/181/183 288/3/182
f 291/182/184 292/183/185 211/4/113
f 211/4/113 292/183/185 294/6/186
f 292/183/185 286/8/180 294/6/186
f 294/6/186 286/8/180 288/3/182
f 214/10/187 218/11/116 211/4/113
f 218/11/116 221/12/188 211/4/113
f 221/12/188 224/13/189 211/4/113
f 224/13/189 268/184/163 211/4/113
f 211/4/113 268/184/163 291/182/184
f 268/184/163 270/15/164 291/182/184
f 270/15/164 273/16/190 291/182/184
f 273/16/190 276/17/191 291/182/184
f 291/182/184 276/17/191 295/18/192
f 19/185/193 20/186/194 21/187/195
f 20/186/194 22/188/78 21/187/195
f 22/188/78 23/189/46 21/187/195
f 23/189/46 24/190/196 21/187/195
f 21/187/195 24/190/196 25/191/197
f 212/192/113 293/193/186 207/194/110
f 293/193/186 296/195/198 207/194/110
f 296/195/198 297/41/199 207/194/110
f 207/194/110 297/41/199 298/196/108
f 287/197/200 299/198/201 293/193/186
f 293/193/186 299/198/201 296/195/198
f 299/198/201 300/40/202 296/195/198
f 296/195/198 300/40/202 297/41/199
f 303/199/203 306/200/204 307/201/205
f 306/200/204 310/202/206 307/201/205
f 310/202/206 311/203/207 307/201/205
f 307/201/205 311/203/207 313/204/208
f 313/204/208 311/203/207 299/198/201
f 299/198/201 311/203/207 300/40/202
f 311/203/207 310/202/206 300/40/202
f 300/40/202 310/202/206 314/38/209
f 314/38/209 310/202/206 315/39/42
f 310/202/206 316/205/210 315/39/42
f 315/39/42 316/205/210 297/41/199
f 297/41/199 316/205/210 298/196/108
f 316/205/210 112/206/26 298/196/108
f 298/196/108 112/206/26 318/207/29
f 320/208/211 324/209/212 322/191/197
f 322/191/197 324/209/212 325/187/213
f 325/187/213 324/209/212 326/185/214
f 324/209/212 328/210/215 326/185/214
f 326/185/214 328/210/215 299/198/201
f 328/210/215 330/211/216 299/198/201
f 299/198/201 330/211/216 313/204/208
f 330/211/216 320/208/211 313/204/208
f 313/204/208 320/208/211 332/212/217
f 320/208/211 322/191/197 332/212/217
f 332/212/217 322/191/197 303/199/203
f 322/191/197 334/213/218 303/199/203
f 303/199/203 334/213/218 306/200/204
f 334/213/218 335/214/219 306/200/204
f 335/214/219 337/215/220 306/200/204
f 306/200/204 337/215/220 115/216/26
f 115/216/26 337/215/220 101/217/221
f 101/217/221 337/215/220 338/218/222
f 337/215/220 335/214/219 338/218/222
f 338/218/222 335/214/219 339/219/223
f 335/214/219 342/220/224 339/219/223
f 342/220/224 344/221/225 339/219/223
f 344/221/225 345/222/226 339/219/223
f 348/223/227 345/222/226 350/224/228
f 345/222/226 344/221/225 350/224/228
f 350/224/228 344/221/225 351/225/229
f 344/221/225 334/213/218 351/225/229
f 334/213/218 322/191/197 351/225/229
f 322/191/197 353/190/230 351/225/229
f 351/225/229 353/190/230 355/226/231
f 353/190/230 356/189/46 355/226/231
f 355/226/231 356/189/46 348/223/227
f 356/189/46 357/227/232 348/223/227
f 348/223/227 357/227/232 345/222/226
f 357/227/232 187/228/91 345/222/226
f 187/228/91 100/229/233 345/222/226
f 100/229/233 75/230/234 345/222/226
f 345/222/226 75/230/234 339/219/223
f 75/230/234 73/231/235 339/219/223
f 339/219/223 73/231/235 358/232/236
f 73/231/235 70/233/237 358/232/236
f 358/232/236 70/233/237 359/234/238
f 70/233/237 97/235/239 359/234/238
f 359/234/238 97/235/239 126/236/240
f 97/235/239 94/237/241 126/236/240
f 94/237/241 92/238/16 126/236/240
f 92/238/16 127/239/40 126/236/240
f 126/236/240 123/240/242 359/234/238
f 359/234/238 123/240/242 360/241/243
f 123/240/242 108/242/24 360/241/243
f 108/242/24 104/243/244 360/241/243
f 360/241/243 104/243/244 361/244/245
f 104/243/244 362/245/246 361/244/245
f 362/245/246 101/217/221 361/244/245
f 101/217/221 338/218/222 361/244/245
f 338/218/222 339/219/223 361/244/245
f 339/219/223 358/232/236 361/244/245
f 361/244/245 358/232/236 360/241/243
f 358/232/236 359/234/238 360/241/243
f 341/246/247 364/247/248 343/248/225
f 364/247/248 365/249/249 343/248/225
f 343/248/225 365/249/249 333/250/218
f 333/250/218 365/249/249 336/251/219
f 365/249/249 363/252/250 336/251/219
f 336/251/219 363/252/250 340/253/251
f 366/254/252 368/255/253 171/256/74
f 171/256/74 368/255/253 166/257/254
f 166/257/254 368/255/253 164/258/71
f 164/258/71 368/255/253 176/259/79
f 368/255/253 367/260/255 176/259/79
f 176/259/79 367/260/255 169/261/74
f 370/262/256 371/263/257 346/264/258
f 346/264/258 371/263/257 354/265/259
f 354/265/259 371/263/257 352/266/229
f 352/266/229 371/263/257 349/267/228
f 371/263/257 369/268/256 349/267/228
f 349/267/228 369/268/256 347/269/227
f 301/270/260 372/271/261 331/272/262
f 331/272/262 372/271/261 312/273/208
f 372/271/261 374/274/263 312/273/208
f 312/273/208 374/274/263 308/275/264
f 374/274/263 373/276/265 308/275/264
f 308/275/264 373/276/265 302/277/266
f 305/278/267 376/279/268 309/280/206
f 376/279/268 377/281/269 309/280/206
f 309/280/206 377/281/269 317/282/270
f 317/282/270 377/281/269 113/283/271
f 377/281/269 375/284/272 113/283/271
f 113/283/271 375/284/272 304/285/267
f 321/286/273 378/287/274 323/288/275
f 323/288/275 378/287/274 327/289/276
f 378/287/274 380/290/277 327/289/276
f 327/289/276 380/290/277 329/291/216
f 380/290/277 379/292/278 329/291/216
f 329/291/216 379/292/278 319/293/273
f 26/137/138 27/139/279 28/157/280
f 27/139/279 29/294/281 28/157/280
f 28/157/280 29/294/281 30/159/282
f 29/294/281 31/295/283 30/159/282
f 31/295/283 32/174/284 30/159/282
f 30/159/282 32/174/284 33/161/160
f 32/174/284 31/295/283 34/175/285
f 34/175/285 31/295/283 35/296/286
f 31/295/283 29/294/281 35/296/286
f 35/296/286 29/294/281 36/297/287
f 36/297/287 29/294/281 37/298/288
f 29/294/281 27/139/279 37/298/288
f 27/139/279 38/140/289 37/298/288
f 37/298/288 38/140/289 39/299/290
f 38/140/289 40/142/142 39/299/290
f 40/142/142 41/147/291 39/299/290
f 41/147/291 42/149/292 39/299/290
f 42/149/292 43/300/293 39/299/290
f 39/299/290 43/300/293 37/298/288
f 43/300/293 36/297/287 37/298/288
f 44/301/29 45/302/294 46/153/106
f 46/153/106 45/302/294 47/154/153
f 45/302/294 48/130/131 47/154/153
f 47/154/153 48/130/131 49/136/295
f 48/130/131 50/131/296 49/136/295
f 49/136/295 50/131/296 51/134/297
f 50/131/296 52/132/133 51/134/297
f 51/134/297 52/132/133 53/133/298
f 259/303/299 381/304/300 256/305/301
f 256/305/301 381/304/300 204/306/107
f 381/304/300 382/307/302 204/306/107
f 204/306/107 382/307/302 199/308/303
f 199/308/303 382/307/302 264/309/159
f 264/309/159 382/307/302 261/310/157
f 382/307/302 381/304/300 261/310/157
f 54/104/304 55/102/104 56/311/29
f 55/102/104 57/312/305 56/311/29
f 56/311/29 57/312/305 58/106/306
f 58/106/306 57/312/305 59/107/307
f 57/312/305 55/102/104 59/107/307
f 59/107/307 55/102/104 60/313/308
f 55/102/104 61/101/309 60/313/308
f 61/101/309 62/109/111 60/313/308
f 60/313/308 62/109/111 59/107/307
f 383/188/310 384/186/194 145/314/58
f 145/314/58 384/186/194 148/315/59
f 384/186/194 326/185/214 148/315/59
f 148/315/59 326/185/214 150/316/61
f 326/185/214 385/317/311 150/316/61
f 150/316/61 385/317/311 154/318/312
f 154/318/312 385/317/311 290/319/313
f 290/319/313 385/317/311 287/197/200
f 287/197/200 385/317/311 299/198/201
f 385/317/311 326/185/214 299/198/201
